<svg width="28" height="28" viewBox="0 0 28 28" fill="none" xmlns="http://www.w3.org/2000/svg">
<path d="M23.5297 10.7275C23.227 10.3204 22.8332 9.9898 22.3798 9.76218C21.9265 9.53455 21.4261 9.41622 20.9188 9.41665H6.19634L5.84967 8.33332C5.62494 7.69765 5.20807 7.14761 4.65682 6.75941C4.10557 6.3712 3.44723 6.16405 2.77301 6.16665H2.16634C1.87902 6.16665 1.60347 6.28079 1.40031 6.48395C1.19714 6.68712 1.08301 6.96267 1.08301 7.24998C1.08301 7.5373 1.19714 7.81285 1.40031 8.01602C1.60347 8.21918 1.87902 8.33332 2.16634 8.33332H2.77301C3.00012 8.33273 3.22168 8.40354 3.40636 8.53573C3.59104 8.66792 3.7295 8.85481 3.80217 9.06998L4.33301 10.7817L6.17467 19.8058C6.32232 20.5419 6.72025 21.2042 7.30085 21.6801C7.88146 22.156 8.60893 22.4163 9.35967 22.4167H19.8247C20.6021 22.4271 21.3575 22.1585 21.9538 21.6596C22.5501 21.1607 22.9478 20.4645 23.0747 19.6975L24.1038 13.5225C24.2271 13.0436 24.2394 12.543 24.1399 12.0586C24.0404 11.5743 23.8317 11.119 23.5297 10.7275V10.7275ZM21.9588 12.9808V13.1108L20.9297 19.34C20.8881 19.5963 20.7559 19.8292 20.5571 19.9963C20.3582 20.1633 20.106 20.2533 19.8463 20.25H9.35967C9.10623 20.2551 8.85902 20.1712 8.66108 20.0128C8.46313 19.8545 8.32699 19.6317 8.27634 19.3833L6.73801 11.5833H20.9188C21.087 11.5833 21.2529 11.6225 21.4033 11.6977C21.5537 11.7729 21.6846 11.8821 21.7855 12.0167C21.8881 12.1524 21.9573 12.3105 21.9874 12.478C22.0175 12.6455 22.0077 12.8178 21.9588 12.9808V12.9808ZM11.9163 25.6667C11.9163 26.0952 11.7893 26.5141 11.5512 26.8704C11.3131 27.2267 10.9747 27.5044 10.5788 27.6684C10.1829 27.8324 9.74727 27.8753 9.32698 27.7917C8.90669 27.7081 8.52062 27.5017 8.21761 27.1987C7.9146 26.8957 7.70824 26.5096 7.62464 26.0893C7.54104 25.6691 7.58394 25.2334 7.74793 24.8375C7.91192 24.4416 8.18963 24.1032 8.54594 23.8651C8.90225 23.6271 9.32115 23.5 9.74967 23.5C10.3243 23.5 10.8754 23.7283 11.2817 24.1346C11.6881 24.5409 11.9163 25.092 11.9163 25.6667ZM21.6663 25.6667C21.6663 26.0952 21.5393 26.5141 21.3012 26.8704C21.0631 27.2267 20.7247 27.5044 20.3288 27.6684C19.9329 27.8324 19.4973 27.8753 19.077 27.7917C18.6567 27.7081 18.2706 27.5017 17.9676 27.1987C17.6646 26.8957 17.4582 26.5096 17.3746 26.0893C17.291 25.6691 17.3339 25.2334 17.4979 24.8375C17.6619 24.4416 17.9396 24.1032 18.2959 23.8651C18.6522 23.6271 19.0711 23.5 19.4997 23.5C20.0743 23.5 20.6254 23.7283 21.0317 24.1346C21.4381 24.5409 21.6663 25.092 21.6663 25.6667Z" fill="#979797"/>
</svg>
