<svg width="38" height="38" viewBox="0 0 38 38" fill="none" xmlns="http://www.w3.org/2000/svg">
<path d="M35.625 5.9375V14.25C35.624 15.1945 35.2483 16.1 34.5804 16.7679C33.9125 17.4358 33.007 17.8115 32.0625 17.8125H23.75C22.8055 17.8115 21.9 17.4358 21.2321 16.7679C20.5642 16.1 20.1885 15.1945 20.1875 14.25V5.9375C20.1885 4.99298 20.5642 4.08745 21.2321 3.41958C21.9 2.7517 22.8055 2.37604 23.75 2.375H32.0625C33.007 2.37604 33.9125 2.7517 34.5804 3.41958C35.2483 4.08745 35.624 4.99298 35.625 5.9375ZM14.25 2.375H5.9375C4.99298 2.37604 4.08745 2.7517 3.41958 3.41958C2.7517 4.08745 2.37604 4.99298 2.375 5.9375V14.25C2.37604 15.1945 2.7517 16.1 3.41958 16.7679C4.08745 17.4358 4.99298 17.8115 5.9375 17.8125H14.25C15.1945 17.8115 16.1 17.4358 16.7679 16.7679C17.4358 16.1 17.8115 15.1945 17.8125 14.25V5.9375C17.8115 4.99298 17.4358 4.08745 16.7679 3.41958C16.1 2.7517 15.1945 2.37604 14.25 2.375ZM14.25 20.1875H5.9375C4.99298 20.1885 4.08745 20.5642 3.41958 21.2321C2.7517 21.9 2.37604 22.8055 2.375 23.75V32.0625C2.37604 33.007 2.7517 33.9126 3.41958 34.5804C4.08745 35.2483 4.99298 35.624 5.9375 35.625H14.25C15.1945 35.624 16.1 35.2483 16.7679 34.5804C17.4358 33.9126 17.8115 33.007 17.8125 32.0625V23.75C17.8115 22.8055 17.4358 21.9 16.7679 21.2321C16.1 20.5642 15.1945 20.1885 14.25 20.1875ZM27.9062 20.1875C26.3796 20.1875 24.8873 20.6402 23.6179 21.4883C22.3486 22.3365 21.3593 23.542 20.7751 24.9524C20.1908 26.3628 20.038 27.9148 20.3358 29.4121C20.6336 30.9094 21.3688 32.2847 22.4483 33.3642C23.5278 34.4437 24.9031 35.1789 26.4004 35.4767C27.8977 35.7745 29.4497 35.6217 30.8601 35.0374C32.2705 34.4532 33.476 33.4639 34.3242 32.1946C35.1723 30.9252 35.625 29.4329 35.625 27.9063C35.6226 25.8598 34.8087 23.8979 33.3616 22.4509C31.9146 21.0038 29.9527 20.1899 27.9062 20.1875Z" fill="white"/>
</svg>
