<svg width="28" height="28" viewBox="0 0 28 28" fill="none" xmlns="http://www.w3.org/2000/svg">
<path d="M5.2 13.2667H11.0667C11.6502 13.2667 12.2097 13.0349 12.6223 12.6223C13.0349 12.2097 13.2667 11.6502 13.2667 11.0667V5.2C13.2667 4.61653 13.0349 4.05695 12.6223 3.64437C12.2097 3.23179 11.6502 3 11.0667 3H5.2C4.61653 3 4.05695 3.23179 3.64437 3.64437C3.23179 4.05695 3 4.61653 3 5.2V11.0667C3 11.6502 3.23179 12.2097 3.64437 12.6223C4.05695 13.0349 4.61653 13.2667 5.2 13.2667ZM4.46667 5.2C4.46667 5.00551 4.54393 4.81898 4.68146 4.68146C4.81898 4.54393 5.00551 4.46667 5.2 4.46667H11.0667C11.2612 4.46667 11.4477 4.54393 11.5852 4.68146C11.7228 4.81898 11.8 5.00551 11.8 5.2V11.0667C11.8 11.2612 11.7228 11.4477 11.5852 11.5852C11.4477 11.7228 11.2612 11.8 11.0667 11.8H5.2C5.00551 11.8 4.81898 11.7228 4.68146 11.5852C4.54393 11.4477 4.46667 11.2612 4.46667 11.0667V5.2Z" fill="#163BDE"/>
<path d="M5.2 25H11.0667C11.6502 25 12.2097 24.7682 12.6223 24.3557C13.0349 23.9431 13.2667 23.3835 13.2667 22.8V16.9333C13.2667 16.3499 13.0349 15.7903 12.6223 15.3777C12.2097 14.9651 11.6502 14.7333 11.0667 14.7333H5.2C4.61653 14.7333 4.05695 14.9651 3.64437 15.3777C3.23179 15.7903 3 16.3499 3 16.9333V22.8C3 23.3835 3.23179 23.9431 3.64437 24.3557C4.05695 24.7682 4.61653 25 5.2 25ZM4.46667 16.9333C4.46667 16.7388 4.54393 16.5523 4.68146 16.4148C4.81898 16.2773 5.00551 16.2 5.2 16.2H11.0667C11.2612 16.2 11.4477 16.2773 11.5852 16.4148C11.7228 16.5523 11.8 16.7388 11.8 16.9333V22.8C11.8 22.9945 11.7228 23.181 11.5852 23.3186C11.4477 23.4561 11.2612 23.5333 11.0667 23.5333H5.2C5.00551 23.5333 4.81898 23.4561 4.68146 23.3186C4.54393 23.181 4.46667 22.9945 4.46667 22.8V16.9333Z" fill="#163BDE"/>
<path d="M19.8667 14.7333C18.8515 14.7333 17.859 15.0344 17.0148 15.5985C16.1706 16.1625 15.5127 16.9642 15.1242 17.9022C14.7356 18.8402 14.634 19.8724 14.832 20.8681C15.0301 21.8639 15.519 22.7786 16.2369 23.4965C16.9548 24.2144 17.8695 24.7033 18.8653 24.9014C19.861 25.0995 20.8932 24.9978 21.8312 24.6093C22.7692 24.2207 23.5709 23.5628 24.135 22.7186C24.699 21.8744 25.0001 20.882 25.0001 19.8667C24.9985 18.5057 24.4572 17.2009 23.4948 16.2386C22.5325 15.2762 21.2277 14.7349 19.8667 14.7333ZM19.8667 23.5333C19.1415 23.5333 18.4326 23.3183 17.8296 22.9154C17.2267 22.5125 16.7567 21.9398 16.4792 21.2699C16.2017 20.5999 16.129 19.8626 16.2705 19.1513C16.412 18.4401 16.7612 17.7867 17.274 17.2739C17.7868 16.7612 18.4401 16.4119 19.1514 16.2705C19.8627 16.129 20.5999 16.2016 21.2699 16.4791C21.9399 16.7566 22.5126 17.2266 22.9155 17.8296C23.3184 18.4326 23.5334 19.1415 23.5334 19.8667C23.5322 20.8388 23.1456 21.7707 22.4582 22.4581C21.7708 23.1455 20.8388 23.5322 19.8667 23.5333Z" fill="#163BDE"/>
<path d="M22.8001 3H16.9334C16.3499 3 15.7903 3.23179 15.3778 3.64437C14.9652 4.05695 14.7334 4.61653 14.7334 5.2V11.0667C14.7334 11.6502 14.9652 12.2097 15.3778 12.6223C15.7903 13.0349 16.3499 13.2667 16.9334 13.2667H22.8001C23.3836 13.2667 23.9431 13.0349 24.3557 12.6223C24.7683 12.2097 25.0001 11.6502 25.0001 11.0667V5.2C25.0001 4.61653 24.7683 4.05695 24.3557 3.64437C23.9431 3.23179 23.3836 3 22.8001 3ZM23.5334 11.0667C23.5334 11.2612 23.4561 11.4477 23.3186 11.5852C23.1811 11.7228 22.9946 11.8 22.8001 11.8H16.9334C16.7389 11.8 16.5524 11.7228 16.4149 11.5852C16.2773 11.4477 16.2001 11.2612 16.2001 11.0667V5.2C16.2001 5.00551 16.2773 4.81898 16.4149 4.68146C16.5524 4.54393 16.7389 4.46667 16.9334 4.46667H22.8001C22.9946 4.46667 23.1811 4.54393 23.3186 4.68146C23.4561 4.81898 23.5334 5.00551 23.5334 5.2V11.0667Z" fill="#163BDE"/>
</svg>
