<svg width="24" height="24" viewBox="0 0 24 24" fill="none" xmlns="http://www.w3.org/2000/svg">
<g clip-path="url(#clip0_1405_849)">
<path d="M22.2535 8.45935C21.8553 8.66218 21.4314 8.81019 20.9935 8.89935C21.2147 9.57756 21.3294 10.286 21.3335 10.9993C21.3183 12.0227 21.0906 13.0318 20.6648 13.9625C20.2391 14.8932 19.6245 15.7253 18.8602 16.406C18.7931 16.4682 18.7396 16.5435 18.7029 16.6272C18.6662 16.7109 18.6471 16.8013 18.6468 16.8927V20.4527L15.7268 18.5927C15.6454 18.5412 15.5537 18.508 15.4582 18.4953C15.3627 18.4827 15.2655 18.4909 15.1735 18.5193C14.146 18.8385 13.0761 19.0003 12.0002 18.9993C6.8535 18.9993 2.66683 15.4127 2.66683 10.9993C2.66683 6.58602 6.8535 2.99935 12.0002 2.99935C13.0272 2.99922 14.0488 3.14742 15.0335 3.43935C15.0751 2.99674 15.176 2.56173 15.3335 2.14602C14.2505 1.83012 13.1283 1.66853 12.0002 1.66602C6.12016 1.66602 1.3335 5.85268 1.3335 10.9993C1.3335 16.146 6.12016 20.3327 12.0002 20.3327C13.1003 20.3314 14.195 20.1789 15.2535 19.8793L18.9402 22.226C19.0408 22.2906 19.157 22.3269 19.2765 22.3312C19.396 22.3354 19.5144 22.3074 19.6194 22.2502C19.7244 22.1929 19.812 22.1085 19.8731 22.0057C19.9343 21.9029 19.9666 21.7856 19.9668 21.666V17.1793C20.801 16.3791 21.4666 15.4201 21.9246 14.3588C22.3826 13.2975 22.6236 12.1552 22.6335 10.9993C22.6408 10.138 22.5126 9.28085 22.2535 8.45935Z" fill="white"/>
<path d="M7.33317 10.334C7.15636 10.334 6.98679 10.4042 6.86177 10.5292C6.73674 10.6543 6.6665 10.8238 6.6665 11.0007C6.6665 11.1775 6.73674 11.347 6.86177 11.4721C6.98679 11.5971 7.15636 11.6673 7.33317 11.6673H16.6665C16.8433 11.6673 17.0129 11.5971 17.1379 11.4721C17.2629 11.347 17.3332 11.1775 17.3332 11.0007C17.3332 10.8238 17.2629 10.6543 17.1379 10.5292C17.0129 10.4042 16.8433 10.334 16.6665 10.334H7.33317Z" fill="white"/>
<path d="M9.50016 13.666C9.32335 13.666 9.15378 13.7363 9.02876 13.8613C8.90373 13.9863 8.8335 14.1559 8.8335 14.3327C8.8335 14.5095 8.90373 14.6791 9.02876 14.8041C9.15378 14.9291 9.32335 14.9993 9.50016 14.9993H14.5002C14.677 14.9993 14.8465 14.9291 14.9716 14.8041C15.0966 14.6791 15.1668 14.5095 15.1668 14.3327C15.1668 14.1559 15.0966 13.9863 14.9716 13.8613C14.8465 13.7363 14.677 13.666 14.5002 13.666H9.50016Z" fill="white"/>
<path d="M6.85352 7.66667C6.85352 7.84348 6.92375 8.01305 7.04878 8.13807C7.1738 8.2631 7.34337 8.33333 7.52018 8.33333H16.4802C16.5912 8.33132 16.7 8.30161 16.7966 8.24689C16.8932 8.19217 16.9747 8.11418 17.0335 8.02C16.6415 7.73187 16.2934 7.38828 16.0002 7H7.52018C7.34337 7 7.1738 7.07024 7.04878 7.19526C6.92375 7.32029 6.85352 7.48986 6.85352 7.66667Z" fill="white"/>
<path d="M19.9998 7.33268C21.8408 7.33268 23.3332 5.8403 23.3332 3.99935C23.3332 2.1584 21.8408 0.666016 19.9998 0.666016C18.1589 0.666016 16.6665 2.1584 16.6665 3.99935C16.6665 5.8403 18.1589 7.33268 19.9998 7.33268Z" fill="#FFEA00"/>
</g>
<defs>
<clipPath id="clip0_1405_849">
<rect width="24" height="24" fill="white"/>
</clipPath>
</defs>
</svg>
