<svg width="16" height="16" viewBox="0 0 16 16" fill="none" xmlns="http://www.w3.org/2000/svg">
<path fill-rule="evenodd" clip-rule="evenodd" d="M3.125 1.25C2.08946 1.25 1.25 2.08946 1.25 3.125V5H15.375C15.7202 5 16 5.27983 16 5.62501V12.875C16 14.6009 14.6009 16 12.875 16H3.125C1.3991 16 0 14.6009 0 12.875V3.125C0 1.3991 1.3991 0 3.125 0H12.875C14.6009 0 16 1.3991 16 3.125C16 3.47018 15.7202 3.75 15.375 3.75C15.0298 3.75 14.75 3.47018 14.75 3.125C14.75 2.08946 13.9106 1.25 12.875 1.25H3.125ZM1.25 6.25001V12.875C1.25 13.9106 2.08946 14.75 3.125 14.75H12.875C13.9106 14.75 14.75 13.9106 14.75 12.875V6.25001H1.25Z" fill="#163BDE"/>
<path fill-rule="evenodd" clip-rule="evenodd" d="M4.37476 8.62503C4.02959 8.62503 3.74976 8.90487 3.74976 9.25003V11.75C3.74976 12.0952 4.02959 12.375 4.37476 12.375H5.62476C5.96992 12.375 6.24976 12.0952 6.24976 11.75V9.25003C6.24976 8.90487 5.96992 8.62503 5.62476 8.62503H4.37476ZM2.49976 9.25003C2.49976 8.21451 3.33923 7.37503 4.37476 7.37503H5.62476C6.66028 7.37503 7.49976 8.21451 7.49976 9.25003V11.75C7.49976 12.7856 6.66028 13.625 5.62476 13.625H4.37476C3.33923 13.625 2.49976 12.7856 2.49976 11.75V9.25003Z" fill="#163BDE"/>
<path fill-rule="evenodd" clip-rule="evenodd" d="M8.74976 8.00003C8.74976 7.65485 9.02958 7.37503 9.37476 7.37503H12.8748C13.2199 7.37503 13.4998 7.65485 13.4998 8.00003C13.4998 8.34521 13.2199 8.62503 12.8748 8.62503H9.37476C9.02958 8.62503 8.74976 8.34521 8.74976 8.00003Z" fill="#163BDE"/>
<path fill-rule="evenodd" clip-rule="evenodd" d="M8.74976 10.5C8.74976 10.1548 9.02958 9.875 9.37476 9.875H12.8748C13.2199 9.875 13.4998 10.1548 13.4998 10.5C13.4998 10.8452 13.2199 11.125 12.8748 11.125H9.37476C9.02958 11.125 8.74976 10.8452 8.74976 10.5Z" fill="#163BDE"/>
<path fill-rule="evenodd" clip-rule="evenodd" d="M8.74976 13C8.74976 12.6549 9.02958 12.375 9.37476 12.375H12.8748C13.2199 12.375 13.4998 12.6549 13.4998 13C13.4998 13.3452 13.2199 13.625 12.8748 13.625H9.37476C9.02958 13.625 8.74976 13.3452 8.74976 13Z" fill="#163BDE"/>
</svg>
