<svg width="16" height="16" viewBox="0 0 16 16" fill="none" xmlns="http://www.w3.org/2000/svg">
<path d="M13.8028 1.61165L7.827 0.667608C7.56452 0.626289 7.2962 0.64233 7.04052 0.714628C6.78483 0.786927 6.54784 0.913765 6.34586 1.08641C6.14388 1.25906 5.98171 1.47343 5.8705 1.71475C5.7593 1.95607 5.70169 2.21862 5.70166 2.48433V6.16129C5.70166 6.2832 5.75009 6.40013 5.8363 6.48633C5.92251 6.57254 6.03943 6.62097 6.16134 6.62097C6.28325 6.62097 6.40017 6.57254 6.48638 6.48633C6.57259 6.40013 6.62102 6.2832 6.62102 6.16129V2.48433C6.62106 2.35146 6.64987 2.22018 6.70549 2.09951C6.7611 1.97885 6.8422 1.87166 6.94319 1.78532C7.04418 1.69898 7.16267 1.63554 7.29052 1.59936C7.41837 1.56318 7.55253 1.55513 7.68379 1.57575L13.6594 2.51934C13.8761 2.55278 14.0736 2.66287 14.2161 2.8296C14.3585 2.99633 14.4364 3.20863 14.4355 3.42792V12.5721C14.4364 12.7913 14.3585 13.0036 14.2161 13.1703C14.0737 13.3371 13.8763 13.4472 13.6596 13.4807L7.68379 14.4243C7.55252 14.4443 7.41847 14.436 7.29069 14.3998C7.16292 14.3637 7.04439 14.3005 6.9431 14.2146C6.84201 14.1284 6.76085 14.0212 6.70524 13.9005C6.64963 13.7799 6.62089 13.6485 6.62102 13.5157V9.83871C6.62102 9.7168 6.57259 9.59988 6.48638 9.51367C6.40017 9.42746 6.28325 9.37903 6.16134 9.37903C6.03943 9.37903 5.92251 9.42746 5.8363 9.51367C5.75009 9.59988 5.70166 9.7168 5.70166 9.83871V13.5157C5.70125 13.7815 5.75855 14.0443 5.86962 14.2858C5.98069 14.5273 6.14288 14.7418 6.34497 14.9145C6.54706 15.0872 6.78425 15.214 7.04012 15.2861C7.296 15.3581 7.56448 15.3738 7.827 15.3319L13.803 14.3884C14.2364 14.3217 14.6314 14.1017 14.9162 13.7684C15.201 13.435 15.3567 13.0105 15.3549 12.5721V3.42792C15.3567 2.98945 15.201 2.56492 14.9161 2.23158C14.6313 1.89824 14.2362 1.67825 13.8028 1.61165V1.61165Z" fill="#163BDE"/>
<path d="M2.21465 8.45967H10.7582C10.8801 8.45967 10.997 8.41124 11.0832 8.32504C11.1694 8.23883 11.2179 8.12191 11.2179 7.99999C11.2179 7.87808 11.1694 7.76116 11.0832 7.67495C10.997 7.58875 10.8801 7.54032 10.7582 7.54032H2.21465L4.18804 5.56692C4.27334 5.48054 4.321 5.36392 4.32061 5.24252C4.32023 5.12112 4.27183 5.0048 4.18599 4.91896C4.10014 4.83312 3.98382 4.78473 3.86243 4.78435C3.74103 4.78397 3.62441 4.83163 3.53803 4.91694L0.780341 7.67459C0.6943 7.76103 0.645996 7.87803 0.645996 7.99999C0.645996 8.12196 0.6943 8.23895 0.780341 8.32539L3.53803 11.0831C3.62449 11.168 3.74098 11.2153 3.86216 11.2147C3.98334 11.2142 4.0994 11.1658 4.18508 11.0801C4.27077 10.9944 4.31915 10.8784 4.3197 10.7572C4.32025 10.636 4.27292 10.5195 4.18801 10.4331L2.21465 8.45967Z" fill="#163BDE"/>
</svg>
