<svg width="16" height="16" viewBox="0 0 16 16" fill="none" xmlns="http://www.w3.org/2000/svg">
<path d="M12.2347 16C12.0141 15.999 11.7984 15.9321 11.6134 15.8074L8.00714 13.4446H7.99286L4.64369 15.6445C4.42733 15.786 4.17517 15.8574 3.91947 15.8495C3.66376 15.8416 3.41616 15.7547 3.20833 15.6C2.99497 15.4373 2.83337 15.2121 2.7443 14.9535C2.65523 14.6948 2.64274 14.4144 2.70845 14.1483L3.6725 10.2152C3.67553 10.2049 3.6758 10.1939 3.67329 10.1835C3.67077 10.1731 3.66556 10.1635 3.65822 10.1559L0.430444 7.37091C0.246508 7.21149 0.112828 6.99858 0.0466419 6.75963C-0.0195443 6.52067 -0.0152027 6.26663 0.059107 6.03026C0.130607 5.79692 0.268417 5.59144 0.454467 5.44076C0.640517 5.29008 0.866124 5.20123 1.10171 5.18586L5.31495 4.9044C5.32117 4.90362 5.32709 4.90116 5.3321 4.89726C5.33712 4.89336 5.34105 4.88816 5.34351 4.88218L6.91455 0.771327C6.99936 0.5442 7.14841 0.348986 7.34213 0.211327C7.53585 0.0736675 7.76518 0 8 0C8.23482 0 8.46415 0.0736675 8.65788 0.211327C8.85159 0.348986 9.00064 0.5442 9.08545 0.771327L10.6565 4.88218C10.6589 4.88816 10.6629 4.89336 10.6679 4.89726C10.6729 4.90116 10.6788 4.90362 10.6851 4.9044L14.8983 5.18586C15.1339 5.20123 15.3595 5.29008 15.5455 5.44076C15.7316 5.59144 15.8694 5.79692 15.9409 6.03026C16.0152 6.26663 16.0195 6.52067 15.9534 6.75963C15.8872 6.99858 15.7535 7.21149 15.5696 7.37091L12.3418 10.1559C12.3344 10.1635 12.3292 10.1731 12.3267 10.1835C12.3242 10.1939 12.3245 10.2049 12.3275 10.2152L13.363 14.4594C13.4244 14.6994 13.4143 14.9532 13.334 15.1872C13.2537 15.4213 13.107 15.6246 12.9131 15.7704C12.7146 15.9165 12.478 15.9966 12.2347 16ZM8 12.2595C8.21996 12.2579 8.43569 12.3222 8.62127 12.4447L12.2204 14.8075H12.2347C12.2439 14.8026 12.2513 14.7948 12.2561 14.7853C12.2632 14.7779 12.2632 14.7704 12.2561 14.7408L11.2206 10.4966C11.1645 10.2704 11.1708 10.0323 11.239 9.80959C11.3072 9.5869 11.4345 9.38863 11.6063 9.23746L14.8412 6.45245C14.8483 6.44504 14.8626 6.43023 14.8483 6.3932C14.834 6.35616 14.834 6.36357 14.8269 6.36357L10.6065 6.0821C10.3856 6.06558 10.1738 5.98444 9.99556 5.8481C9.81735 5.71175 9.68005 5.52579 9.5996 5.31178L8.02142 1.20834C8.01428 1.18612 8.00714 1.18612 8 1.18612C7.99286 1.18612 7.98572 1.18612 7.97858 1.20834L6.4004 5.31919C6.31995 5.5332 6.18265 5.71916 6.00444 5.8555C5.82622 5.99185 5.61438 6.07299 5.3935 6.08951L1.17312 6.37098C1.16598 6.37098 1.15884 6.37098 1.15169 6.4006C1.14455 6.43023 1.15169 6.45245 1.15884 6.45986L4.39375 9.24487C4.56552 9.39604 4.69278 9.59431 4.76098 9.81699C4.82917 10.0397 4.83555 10.2778 4.77937 10.504L3.81532 14.4445C3.8067 14.4796 3.80819 14.5166 3.81962 14.5508C3.83104 14.5851 3.85189 14.6151 3.87959 14.6371C3.89951 14.6569 3.92567 14.6686 3.95323 14.67C3.9808 14.6713 4.00791 14.6623 4.02955 14.6445L7.37873 12.4447C7.56431 12.3222 7.78004 12.2579 8 12.2595Z" fill="#163BDE"/>
</svg>
