<svg width="22" height="22" viewBox="0 0 22 22" fill="none" xmlns="http://www.w3.org/2000/svg">
<path d="M21.2751 19.7754L18.2854 16.7963C19.9062 14.7941 20.6968 12.2463 20.4943 9.67825C20.2918 7.11022 19.1116 4.71781 17.1971 2.99433C15.2826 1.27084 12.7797 0.347706 10.2046 0.415267C7.62952 0.482829 5.17852 1.53594 3.35701 3.35744C1.53551 5.17894 0.482402 7.62995 0.41484 10.2051C0.347279 12.7802 1.27042 15.283 2.9939 17.1975C4.71738 19.112 7.1098 20.2922 9.67782 20.4947C12.2458 20.6972 14.7937 19.9066 16.7959 18.2859L19.775 21.2755C19.8732 21.3745 19.99 21.4531 20.1188 21.5068C20.2475 21.5604 20.3856 21.588 20.525 21.588C20.6645 21.588 20.8026 21.5604 20.9313 21.5068C21.06 21.4531 21.1769 21.3745 21.2751 21.2755C21.3741 21.1773 21.4527 21.0605 21.5063 20.9317C21.56 20.803 21.5876 20.6649 21.5876 20.5255C21.5876 20.386 21.56 20.2479 21.5063 20.1192C21.4527 19.9905 21.3741 19.8736 21.2751 19.7754ZM2.56607 10.4896C2.56607 8.92254 3.03075 7.39069 3.90135 6.08775C4.77195 4.78481 6.00936 3.76929 7.45712 3.16961C8.90487 2.56993 10.4979 2.41303 12.0349 2.71874C13.5718 3.02445 14.9835 3.77905 16.0916 4.88711C17.1997 5.99518 17.9543 7.40693 18.26 8.94386C18.5657 10.4808 18.4088 12.0738 17.8091 13.5216C17.2094 14.9694 16.1939 16.2068 14.891 17.0774C13.588 17.948 12.0562 18.4126 10.4891 18.4126C8.38782 18.4126 6.37255 17.5779 4.88669 16.092C3.40082 14.6062 2.56607 12.5909 2.56607 10.4896Z" fill="#163BDE"/>
</svg>
