<svg width="22" height="22" viewBox="0 0 22 22" fill="none" xmlns="http://www.w3.org/2000/svg">
<path d="M0.603191 11.1167C-0.22995 11.5663 -0.195386 12.2248 0.67808 12.5804L3.26607 13.6337C4.14026 13.9907 5.46306 13.7959 6.20403 13.2011L17.4424 4.08423C18.1812 3.48646 18.2605 3.57461 17.6189 4.28126L8.73442 14.0633C8.09066 14.7677 8.28077 15.6329 9.15783 15.9818L9.46099 16.1033C10.3381 16.4521 11.7674 17.0381 12.6387 17.4025L15.509 18.6047C16.381 18.9691 17.3128 18.5395 17.5605 17.6062L21.9351 1.06576C22.1821 0.132449 21.7025 -0.26384 20.8693 0.18504L0.603191 11.1167Z" fill="#FFEA00"/>
<path d="M8.56928 21.9937C8.51815 22.1515 10.3393 19.2811 10.3393 19.2811C10.8541 18.4723 10.5618 17.5071 9.6919 17.1412L7.7059 16.3049C6.83603 15.939 6.4191 16.3686 6.77914 17.2627C6.77914 17.2627 8.62185 21.8315 8.56928 21.9937Z" fill="#FFEA00"/>
</svg>
