<svg width="32" height="32" viewBox="0 0 32 32" fill="none" xmlns="http://www.w3.org/2000/svg">
<path d="M27.4105 7.76718H4.58911V27.3005H27.4105V7.76718Z" fill="#E9EAEB"/>
<path d="M27.4116 7.76715H24.5142V27.3005H27.4116V7.76715Z" fill="#B9BBC1"/>
<path d="M27.4901 7.76704H4.50928V4.56047C4.50928 4.30427 4.71693 4.09662 4.97313 4.09662H27.0263C27.2824 4.09662 27.4901 4.30427 27.4901 4.56047V7.76704Z" fill="#FDC74F"/>
<path d="M27.0266 4.09659H24.593V6.51049H27.4904V4.56044C27.4904 4.3043 27.2828 4.09659 27.0266 4.09659Z" fill="#FCA629"/>
<path d="M4.58932 13.5817C3.53901 13.5817 2.6875 12.7302 2.6875 11.6799V10.1305H6.49109V11.6799C6.49115 12.7302 5.63963 13.5817 4.58932 13.5817Z" fill="#E60D28"/>
<path d="M8.39279 13.5817C7.34248 13.5817 6.49097 12.7302 6.49097 11.6799V10.1305H10.2946V11.6799C10.2946 12.7302 9.4431 13.5817 8.39279 13.5817Z" fill="#F2F2F2"/>
<path d="M12.196 13.5817C11.1457 13.5817 10.2942 12.7302 10.2942 11.6799V10.1305H14.0978V11.6799C14.0978 12.7302 13.2463 13.5817 12.196 13.5817Z" fill="#E60D28"/>
<path d="M16.0002 13.5817C14.9499 13.5817 14.0984 12.7302 14.0984 11.6799V10.1305H17.902V11.6799C17.902 12.7302 17.0505 13.5817 16.0002 13.5817Z" fill="#F2F2F2"/>
<path d="M19.8034 13.5817C18.7531 13.5817 17.9016 12.7302 17.9016 11.6799V10.1305H21.7052V11.6799C21.7053 12.7302 20.8537 13.5817 19.8034 13.5817Z" fill="#E60D28"/>
<path d="M23.6064 13.5817C22.5561 13.5817 21.7046 12.7302 21.7046 11.6799V10.1306H25.5082V11.6799C25.5082 12.7302 24.6567 13.5817 23.6064 13.5817Z" fill="#F2F2F2"/>
<path d="M27.4109 13.5817C26.3605 13.5817 25.509 12.7302 25.509 11.6799V10.1305H29.3126V11.6799C29.3127 12.7302 28.4612 13.5817 27.4109 13.5817Z" fill="#E60D28"/>
<path d="M6.49109 10.1305H2.6875L4.50776 6.5105H7.7913L6.49109 10.1305Z" fill="#FC502A"/>
<path d="M10.2946 10.1305H6.49097L7.79118 6.5105H11.0747L10.2946 10.1305Z" fill="white"/>
<path d="M14.0978 10.1305H10.2942L11.0743 6.5105H14.3578L14.0978 10.1305Z" fill="#FC502A"/>
<path d="M17.902 10.1305H14.0984L14.3584 6.5105H17.642L17.902 10.1305Z" fill="white"/>
<path d="M21.7054 10.1305H17.9018L17.6418 6.5105H20.9254L21.7054 10.1305Z" fill="#FC502A"/>
<path d="M25.5087 10.1305H21.7051L20.925 6.5105H24.2085L25.5087 10.1305Z" fill="white"/>
<path d="M29.3132 10.1305H25.5096L24.2095 6.5105H27.493L29.3132 10.1305Z" fill="#FC502A"/>
<path d="M28.4648 25.5157H3.53534C3.05565 25.5157 2.66675 25.9046 2.66675 26.3843V27.6572C2.66675 27.7932 2.77701 27.9034 2.91295 27.9034H29.0872C29.2232 27.9034 29.3334 27.7931 29.3334 27.6572V26.3843C29.3334 25.9046 28.9445 25.5157 28.4648 25.5157Z" fill="#8B8996"/>
<path d="M28.4647 25.5157H26.427V27.9034H29.0871C29.2231 27.9034 29.3333 27.7932 29.3333 27.6572V26.3843C29.3333 25.9046 28.9444 25.5157 28.4647 25.5157Z" fill="#706F7F"/>
<path d="M25.1631 22.9629H13.4489C13.2577 22.9629 13.1028 22.8079 13.1028 22.6168V16.1709C13.1028 15.9797 13.2577 15.8248 13.4489 15.8248H25.1631C25.3542 15.8248 25.5092 15.9797 25.5092 16.1709V22.6168C25.5092 22.8079 25.3542 22.9629 25.1631 22.9629Z" fill="#00C6C8"/>
<path d="M25.163 15.8248H22.6028V22.9629H25.163C25.3542 22.9629 25.5091 22.8079 25.5091 22.6168V16.1709C25.5091 15.9797 25.3542 15.8248 25.163 15.8248Z" fill="#0FB0C0"/>
<path d="M11.4571 25.5157H6.11255V16.1709C6.11255 15.9797 6.2675 15.8248 6.45864 15.8248H11.111C11.3022 15.8248 11.4571 15.9797 11.4571 16.1709V25.5157Z" fill="#00C6C8"/>
<path d="M11.111 15.8248H8.55078V25.5157H11.4571V16.1709C11.4571 15.9797 11.3022 15.8248 11.111 15.8248Z" fill="#0FB0C0"/>
<path d="M9.96368 21.2987C10.1859 21.2987 10.3661 21.1186 10.3661 20.8963V20.172C10.3661 19.9498 10.1859 19.7696 9.96368 19.7696C9.74144 19.7696 9.56128 19.9498 9.56128 20.172V20.8963C9.56123 21.1186 9.74144 21.2987 9.96368 21.2987Z" fill="white"/>
</svg>
