<svg width="18" height="16" viewBox="0 0 18 16" fill="none" xmlns="http://www.w3.org/2000/svg">
<path d="M16.066 7.66365V5.77641C16.066 4.84922 15.3282 4.09151 14.409 4.05843V2.90004C14.409 2.29666 13.9181 1.80577 13.3147 1.80577H10.3021L9.91304 0.724414C9.81384 0.448659 9.61305 0.228304 9.34768 0.103964C9.0823 -0.0204079 8.78447 -0.0336642 8.50912 0.0665709L3.04231 2.0563C2.76724 2.15641 2.54779 2.35772 2.42436 2.62316C2.30093 2.8886 2.28839 3.18615 2.38909 3.46103L2.60873 4.06053C1.71033 4.11609 0.996338 4.86425 0.996338 5.77641V14.2804C0.996338 15.2286 1.76774 16 2.7159 16H14.3464C15.2946 16 16.066 15.2286 16.066 14.2804V12.3307C16.5956 12.2546 17.0039 11.798 17.0039 11.2478V8.74657C17.0039 8.19627 16.5956 7.73975 16.066 7.66365ZM16.066 11.2478C16.066 11.334 15.9959 11.4041 15.9097 11.4041H13.4085C12.6327 11.4041 12.0016 10.7729 12.0016 9.99716C12.0016 9.22139 12.6327 8.59024 13.4085 8.59024H15.9097C15.9959 8.59024 16.066 8.66037 16.066 8.74657V11.2478ZM3.26979 3.13837C3.25038 3.08538 3.2646 3.04064 3.27483 3.01866C3.28505 2.99671 3.31009 2.95697 3.36312 2.93768L8.8299 0.947958C8.88299 0.928668 8.92773 0.943018 8.94971 0.953304C8.97169 0.963591 9.01136 0.98879 9.03046 1.04194L9.30528 1.8058H9.09393C8.49055 1.8058 7.99966 2.29669 7.99966 2.90007V4.05687H3.6063L3.26979 3.13837ZM13.471 2.90004V4.05684H8.93761V2.90004C8.93761 2.81384 9.00773 2.74372 9.09393 2.74372H13.3147C13.4009 2.74372 13.471 2.81384 13.471 2.90004ZM14.3464 15.0621H2.7159C2.28492 15.0621 1.93428 14.7114 1.93428 14.2804V5.77641C1.93428 5.34542 2.28492 4.99479 2.7159 4.99479H14.3464C14.7774 4.99479 15.128 5.34542 15.128 5.77641V7.6523H13.4085C12.1155 7.6523 11.0636 8.7042 11.0636 9.99716C11.0636 11.2901 12.1155 12.342 13.4085 12.342H15.128V14.2804C15.128 14.7114 14.7774 15.0621 14.3464 15.0621Z" fill="#163BDE"/>
<path d="M13.4084 10.4661C13.6674 10.4661 13.8774 10.2562 13.8774 9.99717C13.8774 9.73816 13.6674 9.5282 13.4084 9.5282C13.1494 9.5282 12.9395 9.73816 12.9395 9.99717C12.9395 10.2562 13.1494 10.4661 13.4084 10.4661Z" fill="#163BDE"/>
</svg>
