<svg width="132" height="44" viewBox="0 0 132 44" fill="none" xmlns="http://www.w3.org/2000/svg">
<path d="M126.041 0H5.95934C2.66809 0 0 2.6528 0 5.92521V38.0748C0 41.3472 2.66809 44 5.95934 44H126.041C129.332 44 132 41.3472 132 38.0748V5.92521C132 2.6528 129.332 0 126.041 0Z" fill="white"/>
<path d="M29.8541 22.1699C29.8663 20.9077 30.1976 19.6689 30.8175 18.5679C31.4374 17.4669 32.3258 16.5393 33.4008 15.8706C32.7101 14.8951 31.8022 14.0919 30.748 13.5241C29.6938 12.9562 28.522 12.639 27.3242 12.5973C24.747 12.3383 22.288 14.1162 20.9758 14.1162C19.6635 14.1162 17.6774 12.7504 15.5376 12.7504C14.1315 12.782 12.7581 13.1789 11.5533 13.9017C10.3486 14.6245 9.35432 15.6482 8.66896 16.8714C5.73708 21.9227 7.91235 29.423 10.7733 33.5323C12.1683 35.5339 13.8234 37.7946 16.0105 37.7122C18.1976 37.6298 18.9069 36.3581 21.4486 36.3581C23.9904 36.3581 24.6997 37.7122 26.9223 37.6651C29.1448 37.618 30.6226 35.6281 32.0058 33.6029C32.9947 32.1516 33.7672 30.5652 34.2993 28.8931C32.9791 28.3286 31.8543 27.3907 31.0641 26.1956C30.274 25.0006 29.8533 23.6008 29.8541 22.1699Z" fill="black"/>
<path d="M25.3987 10.3269C26.5639 8.91536 27.1408 7.08648 27.0039 5.23853C25.2466 5.4151 23.6216 6.27891 22.4632 7.65238C21.8781 8.31387 21.4294 9.0908 21.144 9.93618C20.8587 10.7816 20.7427 11.6778 20.803 12.5707C21.6852 12.5884 22.5593 12.395 23.3567 12.0057C24.1542 11.6163 24.8531 11.0417 25.3987 10.3269Z" fill="black"/>
<path d="M47.6896 17.6735H46.1787V16.8316H47.6781C48.1277 16.8549 48.5736 16.7343 48.9601 16.485C49.3057 16.247 49.577 15.9019 49.7384 15.4946C49.9195 15.0242 50.0091 14.5185 50.0017 14.009V13.5262C50.0141 13.1075 49.9638 12.6894 49.8529 12.2881C49.7659 11.9619 49.6179 11.6585 49.4179 11.3968C49.2244 11.1572 48.9812 10.9706 48.7083 10.852C48.4083 10.7136 48.0844 10.646 47.7583 10.654H46.1444V9.81212H47.7697C48.2161 9.80621 48.6594 9.89452 49.0746 10.0721C49.4564 10.2314 49.8006 10.4809 50.0818 10.8025C50.371 11.1377 50.5931 11.5339 50.7342 11.9663C50.8918 12.4556 50.9693 12.9709 50.9632 13.489V13.9595C50.9681 14.4775 50.8907 14.9926 50.7342 15.4822C50.5962 15.9153 50.3692 16.3089 50.0704 16.6336C49.7803 16.9583 49.4289 17.2116 49.0402 17.3764C48.6102 17.5626 48.1527 17.6632 47.6896 17.6735ZM46.6823 9.86165V17.6735H45.7323V9.86165H46.6823ZM52.0162 14.8137V14.6899C52.0127 14.2943 52.0707 13.9009 52.1879 13.5262C52.2922 13.1827 52.4553 12.8635 52.6686 12.5853C52.8781 12.3141 53.1452 12.1017 53.447 11.9663C53.7609 11.8031 54.106 11.7225 54.4542 11.731C54.806 11.7237 55.1546 11.8042 55.4729 11.9663C55.7747 12.1017 56.0417 12.3141 56.2512 12.5853C56.4682 12.8629 56.6352 13.182 56.7434 13.5262C56.8511 13.903 56.9052 14.2954 56.9037 14.6899V14.8137C56.9052 15.2081 56.8511 15.6005 56.7434 15.9774C56.6326 16.3203 56.4659 16.6389 56.2512 16.9183C56.0355 17.1822 55.7701 17.3932 55.4729 17.5373C55.1563 17.6904 54.8124 17.7665 54.4657 17.7601C54.1272 17.7723 53.7905 17.7031 53.4797 17.5575C53.169 17.412 52.8919 17.1936 52.6686 16.9183C52.4577 16.6383 52.2948 16.3196 52.1879 15.9774C52.0733 15.6105 52.0152 15.2257 52.0162 14.8384V14.8137ZM52.9319 14.6899V14.8137C52.9308 15.0899 52.9655 15.3649 53.0349 15.6308C53.0862 15.8743 53.1794 16.1053 53.3096 16.3117C53.441 16.4999 53.6041 16.6595 53.7903 16.7821C53.9999 16.8947 54.2318 16.9499 54.4657 16.9431C54.6959 16.9499 54.9241 16.8946 55.1295 16.7821C55.3146 16.6624 55.4744 16.5022 55.5988 16.3117C55.7281 16.1032 55.8247 15.8732 55.885 15.6308C55.9544 15.3649 55.9891 15.0899 55.988 14.8137V14.6899C55.9891 14.4137 55.9544 14.1386 55.885 13.8728C55.822 13.6315 55.7255 13.4019 55.5988 13.1919C55.4728 12.9898 55.3021 12.8251 55.1022 12.7126C54.9023 12.6002 54.6795 12.5436 54.4542 12.5481C54.223 12.5451 53.9948 12.6046 53.7903 12.7214C53.6015 12.8403 53.4378 13.0006 53.3096 13.1919C53.1814 13.3994 53.0884 13.63 53.0349 13.8728C52.9633 14.1466 52.9286 14.4301 52.9319 14.7146V14.6899ZM59.4218 16.6583L60.7953 11.8796H61.402L61.2875 12.8329L59.8797 17.6859H59.2845L59.4218 16.6583ZM58.5176 11.8672L59.6622 16.6955L59.7537 17.6735H59.1357L57.5675 11.8672H58.5176ZM62.7526 16.6583L63.8972 11.8672H64.8015L63.2448 17.6735H62.6267L62.7526 16.6583ZM61.608 11.8672L62.9586 16.5717L63.1075 17.6735H62.5237L61.0815 12.8081L60.967 11.8672H61.608ZM66.6901 13.1052V17.6735H65.7744V11.8672H66.5298L66.6901 13.1052ZM66.4726 14.5537H66.0949C66.0923 14.1794 66.1465 13.8072 66.2551 13.4519C66.3478 13.1257 66.4996 12.8227 66.7015 12.5605C66.8899 12.3163 67.124 12.118 67.3883 11.9786C67.6637 11.8377 67.965 11.7658 68.2696 11.7682C68.5145 11.7691 68.7577 11.8109 68.9907 11.892C69.1934 11.9648 69.3776 12.0877 69.5287 12.251C69.6851 12.4407 69.8022 12.6645 69.8721 12.9071C69.9603 13.2242 70.0028 13.5541 69.998 13.8852V17.6859H69.0709V13.8604C69.0848 13.6095 69.0416 13.3586 68.945 13.13C68.8741 12.9534 68.7486 12.809 68.5901 12.7214C68.4017 12.6364 68.1991 12.5943 67.9949 12.5976C67.7796 12.5938 67.5669 12.6491 67.3768 12.7586C67.1923 12.863 67.0289 13.0061 66.8961 13.1795C66.7583 13.3698 66.6501 13.583 66.5756 13.8109C66.4831 14.0474 66.4252 14.298 66.4039 14.5537H66.4726ZM72.3902 9.42834V17.6735H71.4631V9.42834H72.3902ZM73.615 14.8384V14.7146C73.6115 14.3191 73.6695 13.9257 73.7866 13.5509C73.8904 13.2046 74.0578 12.8845 74.2788 12.61C74.4841 12.3394 74.7474 12.1269 75.0457 11.991C75.3643 11.8363 75.7095 11.7563 76.0587 11.7563C76.4079 11.7563 76.7531 11.8363 77.0717 11.991C77.3735 12.1265 77.6405 12.3388 77.85 12.61C78.0711 12.8845 78.2385 13.2046 78.3422 13.5509C78.4593 13.9257 78.5174 14.3191 78.5139 14.7146V14.8384C78.5174 15.234 78.4593 15.6274 78.3422 16.0022C78.236 16.3473 78.0688 16.6668 77.85 16.9431C77.636 17.2037 77.375 17.4143 77.0831 17.5621C76.7625 17.7154 76.4149 17.7915 76.0644 17.7849C75.714 17.7903 75.3666 17.7143 75.0457 17.5621C74.7526 17.4165 74.4913 17.2055 74.2788 16.9431C74.06 16.6668 73.8929 16.3473 73.7866 16.0022C73.6461 15.6318 73.5648 15.2383 73.5463 14.8384H73.615ZM74.5421 14.7146V14.8384C74.5373 15.1141 74.5681 15.3891 74.6337 15.6555C74.689 15.8998 74.786 16.1307 74.9198 16.3364C75.0456 16.5301 75.2098 16.6909 75.4005 16.8069C75.6055 16.9209 75.8341 16.9763 76.0644 16.9678C76.2946 16.9747 76.5228 16.9194 76.7283 16.8069C76.9169 16.6877 77.0806 16.5275 77.209 16.3364C77.3346 16.1274 77.4274 15.8973 77.4837 15.6555C77.5532 15.3897 77.5878 15.1147 77.5867 14.8384V14.7146C77.5878 14.4384 77.5532 14.1634 77.4837 13.8975C77.4262 13.6541 77.3294 13.4236 77.1976 13.2166C77.075 13.0199 76.91 12.8585 76.7168 12.7462C76.5133 12.6268 76.2844 12.5671 76.053 12.5729C75.8218 12.5698 75.5935 12.6294 75.3891 12.7462C75.2016 12.8623 75.0411 13.0232 74.9198 13.2166C74.788 13.4236 74.6911 13.6541 74.6337 13.8975C74.5448 14.1603 74.4908 14.4355 74.4734 14.7146H74.5421ZM82.7604 16.6583V13.6995C82.7635 13.4893 82.7203 13.2814 82.6345 13.0929C82.5446 12.9258 82.4139 12.7887 82.2567 12.6967C82.0588 12.6015 81.8438 12.555 81.6272 12.5605C81.4191 12.5535 81.212 12.5958 81.0206 12.6843C80.8585 12.7606 80.7168 12.8798 80.6085 13.0309C80.516 13.1584 80.4638 13.3147 80.4597 13.4766H79.544C79.55 13.2608 79.6008 13.0492 79.6928 12.8576C79.8015 12.6455 79.9496 12.4601 80.1278 12.3129C80.3244 12.1307 80.5546 11.9957 80.8031 11.9167C81.0848 11.8031 81.3839 11.7485 81.6844 11.7558C82.0387 11.7482 82.3903 11.8243 82.7146 11.9786C83.0057 12.111 83.253 12.3354 83.4242 12.6224C83.6039 12.947 83.6915 13.3215 83.6761 13.6995V16.4107C83.6601 16.6167 83.6601 16.8237 83.6761 17.0297C83.7018 17.2219 83.7519 17.4094 83.8249 17.5868V17.6735H82.8634C82.8097 17.5258 82.7713 17.3722 82.7489 17.2154C82.7412 17.0296 82.745 16.8435 82.7604 16.6583ZM82.9206 14.1823V14.8756H81.982C81.7475 14.8733 81.5134 14.8982 81.2838 14.9499C81.1024 14.9815 80.9279 15.0486 80.7688 15.1479C80.6384 15.2296 80.5284 15.3443 80.4483 15.4822C80.39 15.5941 80.3529 15.7174 80.3392 15.845C80.3254 15.9725 80.3354 16.1018 80.3685 16.2251C80.4015 16.3485 80.457 16.4635 80.5316 16.5634C80.6062 16.6633 80.6985 16.746 80.8031 16.8069C80.9807 16.9022 81.1772 16.9489 81.3754 16.9431C81.6346 16.9436 81.89 16.8756 82.1194 16.745C82.3186 16.6324 82.491 16.4714 82.623 16.2745C82.7453 16.1213 82.8212 15.9312 82.8405 15.7298L83.2297 16.2126C83.1935 16.3892 83.1275 16.5571 83.0351 16.7078C82.9215 16.9053 82.7828 17.0845 82.623 17.2402C82.4461 17.4099 82.2452 17.5479 82.0278 17.6487C81.7467 17.7662 81.4463 17.8202 81.1451 17.8075C80.8439 17.7947 80.5484 17.7154 80.2766 17.5744C80.019 17.4332 79.8015 17.2194 79.647 16.9554C79.496 16.696 79.4166 16.3954 79.4181 16.0888C79.4127 15.8014 79.4716 15.5168 79.5898 15.2594C79.7056 15.02 79.8747 14.8158 80.082 14.6651C80.309 14.4919 80.5659 14.3698 80.8374 14.3061C81.1629 14.2179 81.4977 14.1763 81.8332 14.1823H82.9206ZM88.5063 16.5717V9.42834H89.422V17.6735H88.575L88.5063 16.5717ZM84.8436 14.8384V14.727C84.8405 14.3089 84.8906 13.8924 84.9924 13.489C85.0858 13.1505 85.233 12.8321 85.4273 12.5481C85.6077 12.2971 85.8387 12.0939 86.1026 11.9539C86.3708 11.802 86.6699 11.7254 86.9725 11.731C87.276 11.7284 87.5765 11.7959 87.8539 11.9291C88.1076 12.0533 88.3281 12.2449 88.4949 12.4862C88.688 12.7417 88.832 13.0363 88.9184 13.3528C89.0328 13.7259 89.1059 14.1124 89.1358 14.5042V14.9994C89.1089 15.3916 89.0358 15.7785 88.9184 16.1507C88.8288 16.4658 88.6851 16.7598 88.4949 17.0173C88.3219 17.252 88.103 17.4423 87.8539 17.5744C87.572 17.7048 87.2675 17.7681 86.9611 17.7601C86.6623 17.7642 86.3672 17.6876 86.1026 17.5373C85.8377 17.388 85.6069 17.1765 85.4273 16.9183C85.2331 16.6387 85.0859 16.3245 84.9924 15.9898C84.8961 15.6148 84.8461 15.2276 84.8436 14.8384ZM85.7707 14.727V14.8384C85.7678 15.1133 85.7947 15.3875 85.8508 15.6555C85.9017 15.8913 85.9867 16.1169 86.1026 16.3241C86.2159 16.5127 86.3689 16.6697 86.549 16.7821C86.7457 16.8963 86.9669 16.9518 87.19 16.9431C87.4518 16.9538 87.7106 16.8806 87.934 16.7326C88.1384 16.5981 88.3047 16.4054 88.4147 16.1755C88.5429 15.9456 88.6357 15.6948 88.6894 15.4327V14.1823C88.6548 13.9893 88.5971 13.8021 88.5178 13.6252C88.4525 13.4418 88.3554 13.2737 88.2316 13.13C88.1127 12.9773 87.9642 12.8547 87.7966 12.771C87.6078 12.6873 87.4055 12.6452 87.2014 12.6472C86.9758 12.6316 86.7505 12.682 86.5491 12.793C86.3477 12.9041 86.1776 13.0718 86.0568 13.2785C85.9389 13.489 85.8538 13.7191 85.805 13.9595C85.7819 14.2149 85.7857 14.4725 85.8165 14.727H85.7707ZM93.0962 14.8384V14.7146C93.0947 14.3202 93.1487 13.9278 93.2564 13.5509C93.3601 13.2046 93.5276 12.8845 93.7486 12.61C93.9539 12.3394 94.2172 12.1269 94.5155 11.991C94.834 11.8363 95.1793 11.7563 95.5285 11.7563C95.8777 11.7563 96.2229 11.8363 96.5415 11.991C96.8449 12.1233 97.1126 12.3362 97.3198 12.61C97.5408 12.8845 97.7083 13.2046 97.812 13.5509C97.9291 13.9257 97.9871 14.3191 97.9837 14.7146V14.8384C97.9871 15.234 97.9291 15.6274 97.812 16.0022C97.7058 16.3473 97.5386 16.6668 97.3198 16.9431C97.1073 17.2055 96.846 17.4165 96.5529 17.5621C96.2323 17.7154 95.8847 17.7915 95.5342 17.7849C95.1874 17.7913 94.8436 17.7152 94.527 17.5621C94.2297 17.418 93.9644 17.2069 93.7486 16.9431C93.5298 16.6668 93.3627 16.3473 93.2564 16.0022C93.1642 15.6227 93.1256 15.2304 93.142 14.8384H93.0962ZM94.0119 14.7146V14.8384C94.0127 15.1137 94.0434 15.388 94.1034 15.6555C94.1637 15.8979 94.2603 16.128 94.3896 16.3364C94.5153 16.5301 94.6796 16.6909 94.8703 16.8069C95.0758 16.9194 95.304 16.9747 95.5342 16.9678C95.7646 16.9763 95.9931 16.9209 96.1981 16.8069C96.3888 16.6909 96.553 16.5301 96.6788 16.3364C96.809 16.1301 96.9022 15.8991 96.9535 15.6555C97.0229 15.3897 97.0576 15.1147 97.0565 14.8384V14.7146C97.0576 14.4384 97.0229 14.1634 96.9535 13.8975C96.9009 13.6523 96.8036 13.4208 96.6674 13.2166C96.5461 13.0232 96.3856 12.8623 96.1981 12.7462C95.9936 12.6294 95.7654 12.5698 95.5342 12.5729C95.2993 12.5698 95.0674 12.6294 94.8589 12.7462C94.6714 12.8623 94.5109 13.0232 94.3896 13.2166C94.2629 13.4266 94.1664 13.6562 94.1034 13.8975C94.0588 14.1671 94.0435 14.4413 94.0577 14.7146H94.0119ZM100.055 13.1052V17.6735H99.1283V11.8672H99.9982L100.055 13.1052ZM99.8379 14.5537H99.4487C99.4462 14.1794 99.5003 13.8072 99.609 13.4519C99.7109 13.13 99.8618 12.8287 100.055 12.5605C100.244 12.3163 100.478 12.118 100.742 11.9786C101.022 11.839 101.327 11.7672 101.635 11.7682C101.876 11.7688 102.116 11.8105 102.345 11.892C102.552 11.9617 102.741 12.0849 102.894 12.251C103.05 12.4407 103.168 12.6645 103.237 12.9071C103.321 13.2249 103.36 13.5548 103.352 13.8852V17.6859H102.436V13.8604C102.444 13.6099 102.401 13.3605 102.31 13.13C102.236 12.952 102.106 12.8075 101.944 12.7214C101.759 12.6378 101.561 12.5957 101.36 12.5976C101.141 12.5933 100.925 12.6486 100.731 12.7586C100.546 12.863 100.383 13.0061 100.25 13.1795C100.12 13.3732 100.016 13.5858 99.9409 13.8109C99.8873 14.0539 99.868 14.3044 99.8837 14.5537H99.8379ZM109.521 11.8672V12.6348H106.614V11.8672H109.521ZM107.644 10.4683H108.56V16.2498C108.552 16.4046 108.584 16.5586 108.651 16.6955C108.701 16.7866 108.777 16.8566 108.869 16.8935C108.963 16.9124 109.06 16.9124 109.155 16.8935H109.395H109.59V17.6982L109.304 17.7725C109.163 17.7874 109.021 17.7874 108.88 17.7725C108.667 17.7748 108.455 17.724 108.262 17.624C108.069 17.5196 107.912 17.3502 107.816 17.1411C107.689 16.8559 107.63 16.5411 107.644 16.225V10.4683ZM111.559 9.44072V17.6859H110.643V9.42834L111.559 9.44072ZM111.341 14.5661H110.964C110.961 14.1918 111.015 13.8196 111.124 13.4642C111.216 13.1381 111.368 12.8351 111.57 12.5729C111.761 12.3208 112.003 12.1186 112.276 11.9814C112.55 11.8442 112.848 11.7755 113.15 11.7806C113.391 11.7811 113.63 11.8229 113.859 11.9044C114.063 11.9741 114.248 12.0974 114.397 12.2634C114.561 12.4492 114.683 12.6739 114.752 12.9195C114.836 13.2373 114.875 13.5671 114.867 13.8975V17.6982H113.951V13.8604C113.959 13.6099 113.916 13.3605 113.825 13.13C113.747 12.9547 113.618 12.8114 113.459 12.7214C113.274 12.6378 113.075 12.5957 112.875 12.5976C112.656 12.5933 112.44 12.6486 112.245 12.7586C112.061 12.863 111.898 13.0061 111.765 13.1795C111.631 13.3704 111.526 13.5836 111.456 13.8109C111.377 14.0492 111.338 14.3007 111.341 14.5537V14.5661ZM118.472 17.7973C118.123 17.8006 117.777 17.729 117.453 17.5868C117.158 17.4513 116.892 17.2501 116.673 16.9963C116.455 16.7425 116.287 16.4417 116.183 16.1136C116.062 15.7524 116 15.3712 116 14.987V14.7642C115.999 14.3425 116.065 13.9239 116.194 13.5262C116.316 13.1809 116.495 12.8622 116.721 12.5853C116.935 12.3366 117.192 12.1349 117.476 11.991C117.755 11.8626 118.055 11.7952 118.358 11.7929C118.697 11.7835 119.034 11.8598 119.342 12.0158C119.618 12.1452 119.859 12.3499 120.04 12.61C120.222 12.8819 120.354 13.1886 120.429 13.5138C120.524 13.8805 120.57 14.2597 120.567 14.6404V15.086H116.549V14.2813H119.64V14.1823C119.63 13.9233 119.58 13.6679 119.491 13.4271C119.411 13.1709 119.256 12.9499 119.05 12.7978C118.843 12.6458 118.596 12.5712 118.346 12.5853C118.143 12.5832 117.943 12.6342 117.762 12.7338C117.586 12.8353 117.433 12.9793 117.316 13.1547C117.179 13.3598 117.078 13.5907 117.018 13.8357C116.946 14.1389 116.912 14.4511 116.915 14.7642V14.987C116.914 15.251 116.949 15.5138 117.018 15.7669C117.093 15.9948 117.201 16.2081 117.339 16.3983C117.47 16.582 117.638 16.7303 117.831 16.8316C118.044 16.9332 118.274 16.9838 118.506 16.9802C118.794 16.9958 119.08 16.9228 119.331 16.7697C119.562 16.6251 119.765 16.4314 119.926 16.2002L120.475 16.6707C120.206 17.1235 119.802 17.464 119.331 17.6363C119.055 17.7411 118.764 17.7914 118.472 17.7849V17.7973Z" fill="black"/>
<path d="M50.2881 26.1835L47.2258 35.5338H44.693L48.8836 24.2582H50.4493L50.2881 26.1835ZM52.8324 35.5338L49.7586 26.1835L49.5168 24.2582H51.094L55.3077 35.5338H52.8324ZM52.6943 31.3371V33.1588H46.6847V31.3371H52.6943ZM58.1973 28.7661V38.762H55.9639V27.152H58.0362L58.1973 28.7661ZM63.4932 31.2449V31.464C63.4994 32.0363 63.4258 32.6068 63.2744 33.1588C63.1513 33.6442 62.9448 34.1046 62.6643 34.5192C62.3945 34.8922 62.0443 35.1996 61.6396 35.4185C61.2081 35.6372 60.7302 35.748 60.2466 35.7413C59.7958 35.7668 59.3461 35.6738 58.9422 35.4716C58.5383 35.2693 58.1942 34.9649 57.9441 34.5884C57.6757 34.1861 57.4664 33.7474 57.3224 33.2856C57.1661 32.7611 57.0506 32.2253 56.977 31.683V31.2564C57.0496 30.6912 57.1651 30.1324 57.3224 29.5847C57.4664 29.1157 57.6757 28.6693 57.9441 28.2588C58.1848 27.8958 58.5084 27.5955 58.8881 27.3826C59.2954 27.1667 59.7514 27.0595 60.2121 27.0713C60.6947 27.0611 61.1726 27.1679 61.6051 27.3826C62.015 27.5781 62.3679 27.8759 62.6297 28.2473C62.9185 28.6545 63.1293 29.1119 63.2514 29.5962C63.386 30.1351 63.4479 30.6896 63.4356 31.2449H63.4932ZM61.2597 31.4178V31.2449C61.2598 30.9161 61.229 30.588 61.1676 30.2649C61.1177 29.9869 61.0244 29.7184 60.8913 29.4694C60.7747 29.2448 60.5974 29.0575 60.3795 28.9291C60.1617 28.8006 59.9122 28.7362 59.6595 28.743C59.3911 28.7394 59.1247 28.7903 58.8766 28.8929C58.6688 28.9859 58.4898 29.1333 58.3585 29.3195C58.2134 29.5191 58.1115 29.7469 58.0592 29.9882C57.984 30.2745 57.9415 30.5685 57.9326 30.8644V31.9367C57.9483 32.2922 58.0222 32.6427 58.1513 32.9743C58.26 33.2593 58.4478 33.5073 58.6924 33.6891C58.9852 33.8715 59.3266 33.96 59.671 33.9428C59.9328 33.953 60.1921 33.889 60.4193 33.7583C60.6208 33.6135 60.7863 33.4242 60.9028 33.2049C61.037 32.9532 61.1266 32.6802 61.1676 32.3978C61.2069 32.0882 61.2185 31.7757 61.2022 31.464L61.2597 31.4178ZM67.1081 28.7661V38.762H64.8747V27.152H66.947L67.1081 28.7661ZM72.4155 31.2449V31.464C72.416 32.036 72.3425 32.6057 72.1967 33.1588C72.0745 33.6466 71.8638 34.1077 71.5751 34.5192C71.308 34.8947 70.9572 35.2026 70.5504 35.4185C70.1189 35.6372 69.641 35.748 69.1574 35.7413C68.707 35.7634 68.2586 35.6689 67.8553 35.4669C67.452 35.265 67.1075 34.9624 66.8549 34.5884C66.5858 34.1881 66.38 33.7487 66.2447 33.2856C66.079 32.7629 65.9596 32.2267 65.8878 31.683V31.2564C65.9585 30.6899 66.0779 30.1306 66.2447 29.5847C66.38 29.1144 66.5857 28.6674 66.8549 28.2588C67.0985 27.8983 67.4215 27.5986 67.7989 27.3826C68.2066 27.1676 68.6623 27.0605 69.1229 27.0713C69.6092 27.061 70.0908 27.1678 70.5274 27.3826C70.932 27.5814 71.2804 27.8787 71.5405 28.2473C71.8329 28.6539 72.0476 29.1113 72.1737 29.5962C72.3032 30.136 72.3651 30.6898 72.3579 31.2449H72.4155ZM70.113 31.4178V31.2449C70.1187 30.9158 70.0878 30.5871 70.0208 30.2649C69.9709 29.9869 69.8777 29.7184 69.7445 29.4694C69.628 29.2448 69.4506 29.0575 69.2328 28.9291C69.0149 28.8006 68.7654 28.7362 68.5127 28.743C68.2444 28.7403 67.9782 28.7913 67.7298 28.8929C67.5258 28.9919 67.3482 29.1381 67.2118 29.3195C67.0758 29.5243 66.9746 29.7503 66.9124 29.9882C66.8428 30.2757 66.8004 30.569 66.7858 30.8644V31.9367C66.8071 32.2915 66.8808 32.6411 67.0045 32.9743C67.1134 33.2624 67.3059 33.5113 67.5571 33.6891C67.8451 33.8727 68.1833 33.9614 68.5242 33.9428C68.786 33.953 69.0454 33.889 69.2725 33.7583C69.4768 33.6165 69.6429 33.4264 69.7561 33.2049C69.8943 32.954 69.9878 32.6809 70.0324 32.3978C70.0869 32.0896 70.1138 31.777 70.113 31.464V31.4178ZM78.2639 33.2164C78.2656 33.0629 78.2171 32.9131 78.1258 32.7898C77.9896 32.6248 77.8102 32.5011 77.6077 32.4324C77.2597 32.2885 76.8967 32.1841 76.5255 32.1211C76.1339 32.034 75.7491 31.9184 75.3742 31.7752C75.0364 31.6435 74.7186 31.465 74.4302 31.2449C74.177 31.0557 73.9654 30.8163 73.8085 30.5416C73.6545 30.2464 73.5754 29.9178 73.5783 29.5847C73.5779 29.2409 73.6567 28.9016 73.8085 28.5932C73.9615 28.2734 74.1861 27.9933 74.4647 27.7746C74.7735 27.5192 75.1295 27.3273 75.5124 27.2097C75.9697 27.0616 76.4478 26.9876 76.9284 26.9906C77.5682 26.9787 78.2034 27.1004 78.7935 27.348C79.2792 27.5452 79.6986 27.8772 80.0023 28.3049C80.2889 28.7084 80.4383 29.1934 80.4283 29.6884H78.2063C78.2097 29.484 78.1622 29.282 78.0682 29.1005C77.9746 28.9225 77.8248 28.7807 77.6422 28.6969C77.4182 28.582 77.1685 28.5264 76.9169 28.5355C76.6942 28.5311 76.4735 28.5784 76.2722 28.6739C76.1065 28.7459 75.9633 28.8614 75.8578 29.0082C75.7657 29.1485 75.7176 29.3131 75.7196 29.4809C75.716 29.6013 75.7437 29.7205 75.8002 29.8268C75.8671 29.9343 75.9577 30.025 76.065 30.092C76.2161 30.1914 76.3784 30.2727 76.5485 30.3341C76.7442 30.3341 76.9975 30.4609 77.2853 30.5186C77.8417 30.6234 78.3857 30.7857 78.9086 31.0028C79.3554 31.1679 79.752 31.446 80.0599 31.8098C80.3513 32.1883 80.4983 32.6584 80.4743 33.1357C80.4779 33.4923 80.3949 33.8444 80.2326 34.1618C80.0532 34.4775 79.8101 34.7524 79.5188 34.9689C79.1688 35.2142 78.7794 35.3975 78.3675 35.5107C77.8942 35.636 77.4065 35.6981 76.9169 35.6952C76.232 35.7173 75.5521 35.5708 74.9368 35.2686C74.4452 35.0267 74.0247 34.6612 73.7164 34.2079C73.4519 33.816 73.3078 33.3551 73.302 32.8821H75.4203C75.4228 33.1454 75.5029 33.402 75.6505 33.6199C75.7997 33.7993 75.9947 33.9347 76.2147 34.0119C76.4537 34.1016 76.7077 34.1446 76.963 34.1388C77.21 34.1485 77.4565 34.1094 77.6883 34.0235C77.8613 33.9588 78.0129 33.847 78.1258 33.7006C78.2237 33.5588 78.2723 33.3886 78.2639 33.2164ZM91.8258 32.5823C91.8319 32.3973 91.8006 32.213 91.7337 32.0404C91.6679 31.8646 91.5567 31.7095 91.4114 31.5908C91.2075 31.4243 90.9831 31.2848 90.7436 31.1757C90.4443 31.0489 90.0759 30.9106 89.5924 30.7607C89.0987 30.6042 88.6143 30.4194 88.1418 30.2073C87.7099 30.0171 87.3038 29.773 86.9329 29.4809C86.597 29.2177 86.3188 28.888 86.1155 28.5125C85.9152 28.1157 85.8108 27.6773 85.8108 27.2327C85.8108 26.7881 85.9152 26.3497 86.1155 25.953C86.3286 25.564 86.6232 25.2258 86.979 24.9614C87.3806 24.6754 87.8285 24.4608 88.303 24.3273C88.8455 24.171 89.4077 24.0933 89.9723 24.0967C90.7223 24.0788 91.4665 24.2326 92.1482 24.5464C92.7333 24.8152 93.2318 25.2425 93.5873 25.78C93.9352 26.3101 94.1157 26.9328 94.1053 27.5671H91.8028C91.8096 27.2657 91.7382 26.9678 91.5956 26.7024C91.4522 26.4453 91.2358 26.2366 90.9739 26.1028C90.6502 25.9502 90.2954 25.8752 89.9378 25.8838C89.5948 25.8761 89.2539 25.9389 88.9362 26.0683C88.6898 26.172 88.4781 26.344 88.326 26.564C88.1958 26.7667 88.1277 27.0032 88.1303 27.2442C88.1266 27.4268 88.1745 27.6066 88.2684 27.7631C88.3825 27.9339 88.5269 28.0824 88.6944 28.2012C88.9217 28.347 89.1604 28.4742 89.4082 28.5816C89.6845 28.6969 90.0068 28.8122 90.3752 28.9275C90.929 29.0893 91.4682 29.2976 91.987 29.5501C92.4064 29.7546 92.7942 30.0186 93.1383 30.3341C93.4456 30.6085 93.6892 30.9469 93.8521 31.3256C94.0204 31.7186 94.1029 32.1432 94.0938 32.5708C94.1023 33.0254 94.0037 33.4757 93.806 33.8851C93.6191 34.2781 93.3335 34.6158 92.9771 34.8651C92.5907 35.1502 92.1528 35.3577 91.6877 35.4762C91.1411 35.6309 90.5748 35.7046 90.0068 35.6952C89.4511 35.6912 88.898 35.6176 88.3605 35.4762C87.8352 35.3325 87.3372 35.1027 86.8869 34.7959C86.4476 34.501 86.0846 34.1059 85.8277 33.643C85.5545 33.1376 85.4195 32.5688 85.4363 31.9943H87.7388C87.7337 32.298 87.7884 32.5997 87.9 32.8821C88.0039 33.1124 88.1619 33.3141 88.3605 33.4701C88.574 33.6253 88.8169 33.7351 89.0743 33.7929C89.3721 33.8647 89.6775 33.8996 89.9838 33.8966C90.3223 33.9087 90.6595 33.8498 90.9739 33.7237C91.21 33.6415 91.413 33.4845 91.5522 33.2765C91.6913 33.0685 91.7591 32.8208 91.7452 32.5708L91.8258 32.5823ZM99.689 27.152V28.7315H94.8191V27.152H99.689ZM96.0279 25.0767H98.2499V33.0089C98.2422 33.1977 98.2736 33.3861 98.342 33.5623C98.402 33.6901 98.5094 33.7893 98.6413 33.839C98.7974 33.8895 98.9609 33.9129 99.1249 33.9082H99.4933H99.7811V35.5453C99.5792 35.6154 99.371 35.6656 99.1594 35.6952C98.9142 35.7146 98.6678 35.7146 98.4226 35.6952C97.9845 35.7039 97.5493 35.6215 97.1447 35.4531C96.7831 35.2902 96.487 35.0099 96.3043 34.6576C96.0923 34.2161 95.9934 33.7288 96.0164 33.2395L96.0279 25.0767ZM100.403 31.4294V31.268C100.398 30.6924 100.488 30.1199 100.668 29.5732C100.824 29.0695 101.087 28.6055 101.439 28.2127C101.779 27.829 102.199 27.5257 102.671 27.325C103.755 26.8791 104.971 26.8791 106.055 27.325C106.532 27.5214 106.958 27.8252 107.299 28.2127C107.65 28.6055 107.913 29.0695 108.07 29.5732C108.25 30.1199 108.34 30.6924 108.335 31.268V31.464C108.339 32.0395 108.249 32.6119 108.07 33.1588C107.908 33.6601 107.646 34.123 107.299 34.5192C106.958 34.9067 106.532 35.2105 106.055 35.407C105.523 35.6277 104.951 35.7375 104.375 35.7298C103.795 35.7362 103.219 35.6264 102.682 35.407C102.205 35.2105 101.78 34.9067 101.439 34.5192C101.092 34.123 100.83 33.6601 100.668 33.1588C100.488 32.6119 100.399 32.0395 100.403 31.464V31.4294ZM102.636 31.268V31.464C102.63 31.793 102.661 32.1217 102.728 32.4439C102.78 32.7268 102.877 32.9993 103.016 33.251C103.151 33.4722 103.336 33.658 103.557 33.7929C103.809 33.9239 104.091 33.9875 104.375 33.9773C104.651 33.9878 104.925 33.9241 105.169 33.7929C105.39 33.658 105.575 33.4722 105.71 33.251C105.849 32.9993 105.946 32.7268 105.998 32.4439C106.069 32.1222 106.104 31.7935 106.102 31.464V31.3026C106.104 30.9768 106.069 30.6519 105.998 30.3341C105.946 30.0534 105.844 29.7841 105.699 29.5386C105.571 29.3056 105.385 29.1106 105.157 28.9736C104.91 28.8453 104.636 28.7783 104.357 28.7783C104.079 28.7783 103.804 28.8453 103.557 28.9736C103.333 29.1139 103.147 29.3081 103.016 29.5386C102.879 29.787 102.782 30.0555 102.728 30.3341C102.664 30.6411 102.633 30.9542 102.636 31.268ZM111.938 28.9621V35.5107H109.705V27.1289H111.8L111.938 28.9621ZM114.46 27.0713V29.1466H114.068H113.665C113.384 29.142 113.104 29.1849 112.836 29.2734C112.626 29.3468 112.433 29.4648 112.272 29.6193C112.12 29.7824 112.003 29.9746 111.927 30.1842C111.853 30.4316 111.811 30.6872 111.8 30.9451L111.351 30.8068C111.349 30.3027 111.403 29.8 111.512 29.308C111.615 28.9035 111.774 28.5155 111.984 28.1551C112.181 27.8366 112.449 27.5682 112.767 27.3711C113.079 27.1794 113.438 27.0795 113.803 27.0828C113.93 27.0714 114.057 27.0714 114.183 27.0828C114.276 27.0792 114.368 27.0831 114.46 27.0944V27.0713ZM119.214 35.6722C118.616 35.6832 118.022 35.5774 117.465 35.3609C116.97 35.1582 116.52 34.8605 116.141 34.4846C115.787 34.1114 115.509 33.6728 115.323 33.1934C115.133 32.6846 115.035 32.1457 115.035 31.6023V31.3026C115.028 30.707 115.121 30.1144 115.312 29.5501C115.478 29.0473 115.74 28.5815 116.083 28.1781C116.423 27.7944 116.844 27.4911 117.315 27.2904C117.836 27.073 118.396 26.9632 118.961 26.9675C119.502 26.9589 120.039 27.0609 120.538 27.2673C120.984 27.4517 121.379 27.7403 121.69 28.1089C122.019 28.4863 122.263 28.9308 122.403 29.4117C122.572 29.9527 122.653 30.517 122.645 31.0835V32.0058H115.991V30.5416H120.515V30.3802C120.521 30.0941 120.462 29.8104 120.343 29.5501C120.244 29.3067 120.07 29.1009 119.848 28.9621C119.592 28.8046 119.295 28.7282 118.996 28.743C118.729 28.7307 118.464 28.799 118.236 28.939C118.019 29.0715 117.841 29.2583 117.718 29.4809C117.577 29.7359 117.48 30.0126 117.43 30.2995C117.358 30.6367 117.323 30.9808 117.326 31.3256V31.6254C117.321 31.9431 117.371 32.2593 117.476 32.5592C117.561 32.8292 117.698 33.0799 117.879 33.2971C118.061 33.5031 118.285 33.6682 118.535 33.7814C118.814 33.8916 119.111 33.9464 119.41 33.9428C119.806 33.9552 120.2 33.8763 120.561 33.7122C120.919 33.5527 121.231 33.3071 121.471 32.9974L122.553 34.1503C122.354 34.4312 122.108 34.6767 121.828 34.8766C121.5 35.1255 121.135 35.3201 120.746 35.4531C120.253 35.6199 119.735 35.7017 119.214 35.6952V35.6722Z" fill="black"/>
</svg>
