<svg width="277" height="80" viewBox="0 0 277 80" fill="none" xmlns="http://www.w3.org/2000/svg">
<path d="M53.3038 78.8736C52.2077 78.8736 51.1179 78.7985 50.0343 78.6482C48.9383 78.4917 47.8547 78.26 46.7898 77.9469C45.4135 77.5461 44.087 76.9888 42.8353 76.2938C41.5835 75.5862 40.4252 74.7221 39.3976 73.7139C38.3016 72.6431 37.3675 71.4096 36.6326 70.057C35.9102 68.7045 35.3809 67.258 35.0633 65.7552C34.7519 64.3275 34.6087 62.8685 34.6336 61.4095C34.6647 59.9505 34.8889 58.504 35.2999 57.1014C35.7172 55.6486 36.3088 54.2523 37.0623 52.9435C38.476 50.4952 40.5497 48.4977 43.0408 47.1764C45.7684 45.7488 48.8013 44.9911 51.8777 44.9723C53.5529 44.9723 55.2219 45.2102 56.8348 45.6736C58.1613 46.0493 59.4379 46.5878 60.6274 47.2829C61.7297 47.9279 62.7385 48.7356 63.6104 49.6686C64.4822 50.6079 65.2171 51.6661 65.7963 52.8121C66.419 54.0456 66.8861 55.3543 67.2037 56.7006C67.5088 57.9655 67.6458 59.268 67.6272 60.5767C67.6209 60.9524 67.6209 60.9837 67.2286 61.0776C66.2135 61.3281 65.1797 61.5723 64.1771 61.8102L64.146 61.8165L63.7225 61.9167L57.0341 63.4884L57.0092 63.4947L50.7629 64.9662C48.8635 65.4108 46.9392 65.8679 45.0772 66.3125L43.2089 66.7571C43.1778 66.7633 43.1466 66.7696 43.1217 66.7758C43.0595 66.7884 43.0034 66.8009 42.9411 66.8197C42.8851 66.8322 42.8353 66.876 42.8104 66.9324C42.7917 66.995 42.8041 67.0639 42.8415 67.114C43.3646 67.8842 44.0123 68.5605 44.7596 69.1115C46.2106 70.176 47.8734 70.9024 49.642 71.2342C50.8314 71.4722 52.0396 71.5912 53.254 71.5912C55.745 71.5661 58.2111 71.1027 60.5464 70.2198C61.848 69.7314 63.106 69.1428 64.3141 68.4603C64.4449 68.3914 64.5757 68.3225 64.7127 68.2536L64.9306 68.1409C64.968 68.1973 64.9929 68.2348 65.024 68.2787C65.0614 68.3288 65.0988 68.3851 65.1237 68.4415L65.2794 68.8422C65.9582 70.6143 66.6681 72.4428 67.3531 74.2524C67.4403 74.4841 67.4777 74.6031 67.4466 74.697C67.4154 74.7909 67.3033 74.8598 67.0854 74.9851C64.3141 76.6194 61.2937 77.7841 58.1488 78.4228C56.5359 78.7171 54.9229 78.8674 53.3038 78.8736ZM51.9462 52.2923C51.3608 52.2923 50.7816 52.3299 50.2025 52.405C46.1795 52.8246 42.8539 55.7363 41.8887 59.6812C41.87 59.7439 41.8575 59.8127 41.8513 59.8754C41.8451 59.9004 41.8451 59.9254 41.8388 59.9505C41.8202 60.0256 41.8326 60.107 41.8824 60.1697C41.9198 60.2072 41.9696 60.2323 42.0257 60.226C42.0444 60.226 42.063 60.226 42.0817 60.2198C42.1751 60.201 42.2623 60.1759 42.3557 60.1571C42.4118 60.1446 42.4741 60.1258 42.5301 60.1133L43.7569 59.8253L43.7943 59.819C48.2408 58.7795 52.8429 57.7025 57.3641 56.6443C57.8437 56.5316 58.317 56.4126 58.8152 56.2873C59.0767 56.2247 59.3445 56.1558 59.6185 56.087C59.4068 55.5798 59.1016 55.1227 58.7155 54.7344C57.8374 53.8077 56.7289 53.1439 55.5021 52.8058C54.35 52.4614 53.1481 52.2861 51.9462 52.2923Z" fill="white"/>
<path d="M89.0811 78.8612C88.5891 78.8612 88.0847 78.8487 87.5803 78.8236C86.1791 78.7547 84.7903 78.5544 83.4265 78.2287C82.0626 77.8969 80.7362 77.4147 79.472 76.7948C78.3884 76.2688 77.3608 75.6301 76.408 74.9037C75.4926 74.2087 74.6643 73.4072 73.9295 72.5243C73.2008 71.6413 72.5781 70.6708 72.0736 69.6376C71.5443 68.5543 71.1457 67.4084 70.8717 66.2312C70.5603 64.9412 70.3797 63.62 70.3237 62.2925C70.2739 61.0213 70.3673 59.7502 70.5977 58.4978C70.8344 57.2455 71.2142 56.0244 71.7374 54.866C72.2854 53.645 72.9704 52.4928 73.78 51.422C74.6332 50.2824 75.642 49.2617 76.7817 48.4038C77.9213 47.5522 79.1731 46.8572 80.4995 46.3437C81.6267 45.8991 82.785 45.561 83.9745 45.323C85.1328 45.0976 86.3098 44.9786 87.4868 44.9786C89.2679 44.9849 91.0366 45.2416 92.7429 45.7551C94.0009 46.1183 95.209 46.638 96.3362 47.3018C97.3887 47.9217 98.3539 48.6919 99.2009 49.5748C100.042 50.4702 100.764 51.4721 101.337 52.5554C101.953 53.7201 102.433 54.9537 102.763 56.2248C103.05 57.3958 103.23 58.598 103.305 59.8066C103.324 59.9882 103.324 60.1823 103.324 60.3639V60.3701C103.324 60.9713 103.324 60.9838 102.769 61.1215C102.059 61.2969 101.331 61.4659 100.633 61.635L100.253 61.7227C93.9697 63.2067 87.5616 64.7221 81.5395 66.1435L80.6241 66.3564C80.0387 66.4941 79.4408 66.6319 78.843 66.7759C78.6375 66.826 78.5378 66.8824 78.5129 66.9575C78.488 67.0327 78.5316 67.1516 78.6749 67.3458C78.9862 67.7653 79.3412 68.1598 79.7273 68.5167C81.2967 69.9319 83.2334 70.8774 85.3134 71.2406C86.5153 71.4848 87.7359 71.6038 88.9628 71.6038C91.7839 71.5725 94.5676 70.9776 97.1582 69.8505C97.7623 69.6 98.3664 69.2994 98.9455 69.0051C99.232 68.8611 99.5309 68.7108 99.8299 68.5668C99.917 68.523 99.998 68.4791 100.079 68.4228C100.26 68.2913 100.465 68.2099 100.683 68.1848C100.702 68.2224 100.72 68.2662 100.739 68.3038C100.783 68.3977 100.833 68.4979 100.87 68.5981C101.63 70.5831 102.34 72.4241 103.025 74.2337C103.205 74.7096 103.199 74.7347 102.788 74.9664C101.119 75.9056 99.3815 76.7071 97.5879 77.3771C96.2303 77.8843 94.8229 78.2601 93.3968 78.5043C91.9645 78.7422 90.5259 78.8612 89.0811 78.8612ZM87.6301 52.2924C87.0821 52.2924 86.534 52.3237 85.9922 52.3926C81.7388 52.8059 78.2638 55.9806 77.4605 60.201C77.5103 60.2073 77.5539 60.2136 77.5913 60.2198C77.6348 60.2261 77.6784 60.2324 77.722 60.2324C77.7407 60.2324 77.7656 60.2324 77.7843 60.2261C83.4078 58.9049 89.1247 57.5648 94.6548 56.2624L95.2152 56.1309C95.2028 55.8554 95.0907 55.5861 94.8976 55.3857C94.8665 55.3482 94.8354 55.3106 94.8104 55.273C93.9075 54.077 92.637 53.2192 91.1922 52.8247C90.0464 52.4677 88.8382 52.2861 87.6301 52.2924Z" fill="white"/>
<path d="M123.432 78.6482C123.283 78.6482 123.127 78.6482 122.978 78.6419C121.857 78.6169 120.742 78.5042 119.64 78.2975C118.575 78.0971 117.529 77.7966 116.52 77.4021C115.511 77.0076 114.539 76.5129 113.624 75.9306C112.677 75.3232 111.787 74.6344 110.971 73.8579C109.987 72.9374 109.134 71.8855 108.43 70.7395C107.726 69.5874 107.178 68.3475 106.792 67.0576C106.25 65.2918 105.976 63.4508 105.989 61.5973C106.032 58.5917 106.873 55.6486 108.424 53.075C108.997 52.1358 109.663 51.2591 110.423 50.4701C111.183 49.6749 112.03 48.9673 112.933 48.3474C113.879 47.7087 114.882 47.1576 115.934 46.7005C116.937 46.2622 117.977 45.9178 119.042 45.6548C120.107 45.3981 121.19 45.2227 122.28 45.1288C123.102 45.0599 123.899 45.0224 124.665 45.0224C125.325 45.0224 125.986 45.0474 126.615 45.1038C128.178 45.2666 129.728 45.5546 131.242 45.9804L131.391 46.018C131.572 46.0744 131.759 46.1182 131.945 46.1307C132.138 46.1307 132.201 46.0117 132.369 45.6986C132.406 45.6235 132.456 45.5358 132.506 45.4356C133.814 43.0562 135.146 40.6391 136.429 38.2972V38.3097L136.448 38.2722L138.092 35.279C138.198 35.0912 138.304 34.9033 138.41 34.7217L138.547 34.5026C138.596 34.5151 138.652 34.5339 138.708 34.5527V35.3855C138.708 37.9152 138.708 40.4387 138.708 42.9685V42.981C138.708 50.4326 138.708 58.1408 138.715 65.7238C138.715 66.5441 138.646 67.3644 138.497 68.1785C138.347 68.9862 138.123 69.7752 137.83 70.5454C137.357 71.7915 136.66 72.9437 135.782 73.9518C134.891 74.9475 133.851 75.7865 132.686 76.4378C131.864 76.9011 131.005 77.2894 130.114 77.5962C129.224 77.903 128.315 78.1347 127.387 78.2975C126.085 78.5229 124.759 78.6419 123.432 78.6482ZM124.622 52.2735C123.775 52.2735 122.922 52.3236 122.081 52.4301C120.3 52.6304 118.575 53.2065 117.037 54.1333C115.586 54.9849 114.421 56.2435 113.686 57.7651C112.447 60.2824 112.428 63.2379 113.636 65.7677C115.044 68.8547 117.641 70.6957 121.365 71.2342C122.012 71.3282 122.666 71.372 123.326 71.372C124.46 71.3657 125.593 71.253 126.708 71.0338C127.997 70.8335 129.205 70.3012 130.233 69.4934C131.347 68.6231 132.014 67.2956 132.051 65.8804C132.064 65.6362 132.064 65.3857 132.057 65.1478V60.0194C132.057 59.4683 132.057 58.8985 132.057 58.3976V58.3913C132.057 56.9761 132.057 55.5109 132.064 54.0644C132.095 53.7826 131.92 53.5134 131.646 53.432C130.737 53.05 129.784 52.7745 128.807 52.6242C127.424 52.3988 126.023 52.2798 124.622 52.2735Z" fill="white"/>
<path d="M17.1964 78.6357C16.1938 78.6357 15.1911 78.5668 14.1947 78.4228C13.1921 78.2788 12.2081 78.0596 11.2428 77.7591C9.8541 77.3458 8.53386 76.7133 7.33817 75.8931C6.75278 75.486 6.20475 75.0227 5.69409 74.5155C5.17721 73.9895 4.70391 73.4196 4.28667 72.806C3.72619 71.9857 3.27158 71.1028 2.9166 70.176C2.56786 69.2493 2.3063 68.285 2.13816 67.3081C1.95756 66.2061 1.8766 65.0915 1.88906 63.9706C1.88906 53.3506 1.88906 44.0018 1.88906 35.3981C1.88906 35.348 1.88906 35.2979 1.88906 35.2478C1.85792 34.966 1.90151 34.6779 2.00738 34.4087L2.42463 35.1726C2.70487 35.6798 2.96642 36.162 3.22175 36.6442C4.03756 38.1595 4.86583 39.6999 5.66918 41.1902L5.71278 41.2654C6.48499 42.6993 7.35685 44.3274 8.19757 45.8866C8.22871 45.9366 8.25362 45.993 8.27853 46.0431C8.35326 46.1809 8.42176 46.3249 8.50895 46.4564C8.55254 46.544 8.64596 46.6067 8.7456 46.6129C8.80164 46.6129 8.85147 46.5941 8.90129 46.5628C8.9262 46.5503 8.95733 46.5315 8.98224 46.519C10.8318 45.73 12.7935 45.2541 14.7988 45.1164C15.5212 45.0537 16.2436 45.0224 16.9473 45.0224C18.2053 45.0224 19.457 45.1226 20.6963 45.3355C21.9418 45.5484 23.1686 45.8678 24.3643 46.2998C25.6721 46.7695 26.9176 47.4019 28.0635 48.1846C29.2093 48.9736 30.2369 49.9317 31.115 51.015C31.9744 52.0732 32.6781 53.2504 33.2137 54.509C33.743 55.7677 34.1229 57.0826 34.3409 58.4289C34.9013 61.5849 34.6335 64.8347 33.5686 67.8592C33.1327 69.0927 32.5473 70.27 31.8187 71.3533C31.0838 72.4365 30.2182 73.4196 29.2343 74.2775C28.188 75.1917 27.0422 75.9745 25.8153 76.6257C24.7816 77.1767 23.6917 77.6213 22.5645 77.9407C21.4374 78.26 20.279 78.4666 19.1083 78.5606C18.4606 78.6044 17.8254 78.6357 17.1964 78.6357ZM16.063 52.2736C13.6529 52.3299 11.274 52.8184 9.03829 53.7075C8.76428 53.7889 8.59614 54.0645 8.64596 54.3462C8.65218 55.6299 8.65218 56.9261 8.65218 58.1847V58.2098C8.65218 58.6293 8.65218 59.0426 8.65218 59.4621C8.65218 59.9631 8.65218 60.4765 8.64596 60.9712C8.63973 62.0608 8.6335 63.1879 8.65841 64.2962C8.6335 66.8072 10.0036 69.1241 12.2143 70.3075C12.7748 70.6331 13.3789 70.8836 14.0017 71.0589C15.1226 71.372 16.2872 71.5286 17.4517 71.5286C18.4481 71.5223 19.4383 71.4159 20.4098 71.2092C24.7691 70.2887 27.584 67.1078 27.9452 62.7057C28.2814 58.6356 26.4069 55.3356 22.8074 53.6512C22.5583 53.5322 22.3341 53.4383 22.1286 53.3506C20.3724 52.6681 18.5042 52.3111 16.6235 52.2861C16.4304 52.2798 16.2436 52.2736 16.063 52.2736Z" fill="white"/>
<path d="M171.982 79.0615C171.621 79.0615 171.266 78.9551 170.967 78.7547C170.531 78.4604 170.145 78.0972 169.828 77.6777C169.697 77.5149 169.578 77.352 169.441 77.1579C169.373 77.064 169.304 76.9701 169.23 76.8636C168.943 76.9826 168.663 77.1078 168.389 77.2268C167.779 77.5149 167.156 77.7591 166.515 77.9657C165.468 78.2725 164.403 78.5105 163.326 78.6608C162.255 78.811 161.178 78.8862 160.1 78.8862C159.185 78.8862 158.275 78.8361 157.366 78.7359C156.264 78.6169 155.168 78.4165 154.091 78.1348C151.687 77.4961 149.439 76.3752 147.477 74.8473C145.434 73.2506 143.834 71.1529 142.844 68.7483C142.32 67.4772 141.941 66.1497 141.716 64.7972C141.206 61.8792 141.461 58.8735 142.451 56.0807C142.806 55.0726 143.255 54.102 143.796 53.1815C144.32 52.2986 144.93 51.4721 145.615 50.7144C146.306 49.9567 147.072 49.2742 147.894 48.6668C148.754 48.0406 149.669 47.4958 150.622 47.0325C152.067 46.3311 153.592 45.7989 155.162 45.4607C156.719 45.1289 158.307 44.9661 159.895 44.9661C160.511 44.9661 161.146 44.9911 161.788 45.0349C162.741 45.1038 163.687 45.2541 164.615 45.4858C165.543 45.7175 166.446 46.0431 167.312 46.4626C168.165 46.8696 168.968 47.3706 169.715 47.9529C170.419 48.504 171.054 49.1427 171.609 49.8503C172.163 50.5578 172.63 51.328 172.997 52.1421C173.39 53.0062 173.689 53.9079 173.894 54.8284C174.137 55.9492 174.255 57.0952 174.243 58.2473C174.243 63.8892 174.243 69.625 174.243 75.1729V75.1917C174.243 75.3796 174.237 75.5737 174.23 75.7615C174.224 75.9682 174.218 76.1873 174.218 76.4002C174.193 77.0577 173.981 77.6902 173.601 78.2224C173.228 78.7484 172.624 79.0678 171.982 79.0615ZM159.976 52.3612C158.587 52.3612 157.204 52.5178 155.853 52.8371C154.402 53.1627 153.032 53.7576 151.805 54.603C150.043 55.7927 148.81 57.6337 148.38 59.7251C148.106 61.0338 148.075 62.3801 148.286 63.7013C148.567 65.655 149.52 67.4459 150.989 68.7546C152.247 69.8629 153.748 70.6519 155.373 71.0589C156.849 71.4472 158.363 71.6476 159.888 71.6476C160.897 71.6476 161.906 71.5599 162.896 71.3908C164.347 71.109 165.773 70.6958 167.156 70.1635C167.405 70.1134 167.579 69.8755 167.548 69.625C167.542 69.481 167.542 69.3307 167.548 69.1929C167.548 69.1241 167.548 69.0489 167.548 68.9738V63.764C167.548 63.2442 167.548 62.712 167.555 62.1985C167.561 60.9148 167.561 59.5811 167.542 58.2786C167.623 56.0369 166.297 53.983 164.223 53.144C163.407 52.7683 162.535 52.5303 161.645 52.4489C161.09 52.3863 160.53 52.3612 159.976 52.3612Z" fill="white"/>
<path d="M203.547 66.579C202.308 64.976 201.262 63.229 200.446 61.3692C200.147 60.6867 200.197 60.5176 200.851 60.1482C202.657 59.1525 204.382 58.0254 206.014 56.7668C211.618 52.5714 215.94 46.8732 218.475 40.3233C218.518 40.2106 218.562 40.1042 218.612 40.004C218.867 39.4467 219.054 39.3215 219.608 39.503C220.493 39.7848 221.377 40.0917 222.236 40.4423C223.276 40.8681 224.285 41.3816 225.244 41.9702C225.581 42.1455 225.742 42.5337 225.637 42.8969C225.618 42.9658 225.562 43.185 225.5 43.4104C223.606 50.3046 219.714 56.4725 214.321 61.1313C211.668 63.4794 208.716 65.4582 205.54 67.0236C205.223 67.224 204.874 67.3555 204.506 67.4181C204.201 67.4306 204.008 67.1739 203.547 66.579ZM229.684 42.2895C228.109 40.3797 226.023 39.19 223.837 38.1442C223.451 37.9564 223.058 37.7936 222.666 37.6245C221.931 37.2989 221.888 37.2363 222.068 36.4911C222.411 35.0885 222.741 33.6858 223.133 32.302C225.039 25.5017 227.623 18.9205 230.855 12.6462C232.007 10.4358 233.29 8.29428 234.698 6.24041C236.628 3.46644 239.449 1.44388 242.688 0.504615C243.84 0.141431 245.042 -0.0276369 246.244 0.00367201C248.542 -0.0151134 250.696 1.13079 251.979 3.05316C252.739 4.14272 253.299 5.3575 253.648 6.64117C254.296 8.9956 254.613 11.4314 254.595 13.8735C254.788 20.367 252.421 26.6664 248.012 31.4128C245.359 34.3245 242.27 36.798 238.851 38.7454C236.473 40.1417 233.969 41.319 231.385 42.2708C231.129 42.3647 230.868 42.4336 230.619 42.5463C230.513 42.5964 230.401 42.6214 230.282 42.6277C230.033 42.6089 229.815 42.4899 229.684 42.2895Z" fill="#FFEA00"/>
<path d="M239.48 78.8334C239.231 78.7206 239.013 78.5578 238.839 78.3449C238.204 77.7751 237.575 77.1928 236.927 76.6417C236.541 76.3161 236.13 76.0218 235.707 75.7463C234.635 75.045 234.629 75.0512 233.552 75.7212C231.958 76.6918 230.183 77.3368 228.333 77.606C227.187 77.8127 226.023 77.8878 224.858 77.844C224.79 77.844 224.721 77.844 224.653 77.8565C224.441 77.8753 224.223 77.9004 224.154 77.6374C224.086 77.3931 224.422 77.2992 224.597 77.1615C224.771 77.0237 224.976 76.8922 225.17 76.7607C230.631 72.9786 235.022 67.8314 237.899 61.8263C237.986 61.651 238.085 61.4882 238.191 61.3254C238.204 61.3003 238.254 61.2941 238.409 61.2377C238.646 62.033 238.764 62.8595 238.764 63.6861C238.87 65.1263 238.802 66.5728 238.559 68.0005C238.322 69.5096 237.787 70.9498 236.996 72.2522C236.722 72.6404 236.715 73.1539 236.971 73.5484C237.326 74.1996 237.743 74.8133 238.216 75.3831C238.739 76.0093 239.287 76.6167 239.811 77.2491C240.01 77.4871 240.184 77.7438 240.321 78.0193C240.433 78.2322 240.396 78.5015 240.228 78.6768C240.103 78.8146 239.935 78.8897 239.748 78.8897C239.661 78.8772 239.568 78.8647 239.48 78.8334ZM214.969 75.5397C213.026 74.6567 211.17 73.5797 209.445 72.3211C209.32 72.2272 209.19 72.1395 209.071 72.0456C208.666 71.7137 208.673 71.5071 209.109 71.2691C209.383 71.1188 209.663 70.9936 209.937 70.8496C215.953 67.775 221.09 63.2102 224.871 57.5871C226.988 54.4061 228.582 50.8995 229.591 47.2051C229.666 46.9421 229.722 46.6728 229.803 46.4161C229.959 45.9214 230.195 45.8275 230.525 46.1656C232.499 48.1568 234.175 50.4299 235.501 52.9095C235.557 53.016 235.607 53.1287 235.644 53.2477C235.557 53.5357 235.482 53.8363 235.376 54.1306C234.243 57.537 232.593 60.7493 230.488 63.661C226.863 68.6204 222.149 72.6718 216.712 75.4958C216.432 75.6586 216.121 75.7463 215.797 75.7526C215.511 75.74 215.23 75.6712 214.969 75.5397ZM198.646 54.4687C198.628 54.356 198.621 54.2433 198.615 54.1306V54.1181C198.453 52.1268 198.677 50.1293 199.269 48.2195C199.294 48.1443 199.313 48.0629 199.325 47.9815V47.9753C199.331 47.9439 199.338 47.9064 199.344 47.8751C199.387 47.7498 199.387 47.6684 199.356 47.6183C199.319 47.5745 199.257 47.5494 199.194 47.5557C199.145 47.5557 199.095 47.562 199.045 47.5745C197.581 48.7392 195.894 49.5908 194.088 50.073C193.073 50.3234 192.033 50.4487 190.993 50.4487C190.532 50.4487 190.059 50.4236 189.585 50.3798C189.467 50.3673 189.355 50.3422 189.243 50.3046C189.193 50.2859 189.143 50.2608 189.106 50.2295L189.043 50.1919C189.019 49.9978 189.143 49.9164 189.268 49.835C189.299 49.8162 189.33 49.7912 189.361 49.7661C190.551 48.8206 191.609 47.7123 192.5 46.4787L192.512 46.4599C192.786 46.1405 192.985 45.7586 193.098 45.3516C193.123 45.2514 193.104 45.1449 193.042 45.0635C192.979 44.9884 192.886 44.9508 192.792 44.9571C192.761 44.9571 192.724 44.9633 192.693 44.9696C192.232 45.0948 191.796 45.2952 191.404 45.5582L191.329 45.602C191.086 45.7461 190.843 45.9026 190.613 46.0529C190.301 46.2533 189.978 46.4662 189.648 46.6478C188.215 47.4305 186.689 48.0191 185.101 48.4011C184.971 48.4386 184.827 48.4574 184.69 48.4574C184.41 48.4574 184.136 48.3572 183.912 48.1882C181.57 46.5413 179.796 44.2057 178.824 41.5006C177.759 38.5951 177.628 35.4329 178.444 32.446C178.836 31.0058 179.447 29.6407 180.256 28.3884C181.066 27.136 182.075 26.0214 183.239 25.0947L183.302 25.0446C183.345 25.0133 183.383 24.982 183.42 24.9444C183.75 24.6563 183.781 24.6062 183.538 24.2869C182.081 22.3645 180.823 20.2919 179.783 18.1065C179.621 17.6557 179.191 17.3614 178.718 17.3801C178.675 17.3801 178.637 17.3801 178.594 17.3864C178.313 17.4052 178.021 17.4114 177.747 17.4177H177.709H177.547C177.348 17.424 177.143 17.424 176.943 17.424C174.303 17.4428 171.687 16.9606 169.221 16.0088C168.131 15.5955 167.104 15.0257 166.176 14.3181C165.453 13.7859 164.849 13.1033 164.401 12.3269C164.208 12.0138 164.164 11.7571 164.264 11.588C164.364 11.4189 164.619 11.325 165.018 11.3187H165.042C165.385 11.325 165.721 11.3563 166.051 11.4189C167.496 11.7132 168.916 12.1265 170.299 12.6525C172.927 13.598 175.499 14.7001 178.008 15.9462C179.167 16.5098 180.151 17.3739 180.867 18.4509C181.894 20.0164 182.841 21.6319 183.7 23.2913C183.744 23.3789 183.787 23.4666 183.825 23.5543C183.924 23.836 184.099 24.0803 184.335 24.2681L184.784 24.0427C185.282 23.7922 185.799 23.5417 186.316 23.2975C186.54 23.2161 186.665 22.9657 186.584 22.7402C186.447 21.9888 186.347 21.3626 186.266 20.7803C186.247 20.63 186.241 20.4735 186.247 20.3169C186.247 20.2418 186.247 20.1604 186.247 20.079V20.0727V20.079C186.042 19.29 185.961 18.4697 186.011 17.6494C185.961 16.4409 186.079 16.4847 184.802 16.0401C181.539 14.9443 178.731 12.784 176.831 9.8973C176.402 9.24607 176.084 8.52597 175.885 7.76829C175.773 7.39258 175.735 7.00435 175.779 6.60986C175.804 6.41574 175.978 6.27172 176.171 6.29677C176.177 6.29677 176.184 6.29677 176.19 6.29677C176.501 6.32182 176.8 6.43453 177.049 6.62238C177.56 6.97304 178.077 7.3237 178.55 7.72446C181.06 9.87852 183.358 12.2705 185.419 14.8566C186.098 15.6143 186.496 16.5849 186.546 17.6056C186.758 18.2317 186.882 18.8892 186.92 19.553C186.932 19.7033 186.951 19.8535 186.97 20.0101C187.038 20.6363 187.1 21.2812 187.157 21.9012V21.9137V21.9325C187.181 22.2142 187.213 22.5085 187.237 22.7903C187.325 22.8091 187.418 22.8154 187.505 22.8154C187.773 22.8029 188.035 22.7528 188.284 22.6714C188.439 22.6213 188.595 22.5837 188.751 22.5524C189.535 22.4209 190.326 22.352 191.123 22.352C192.817 22.3395 194.493 22.6964 196.043 23.3852C197.637 24.1178 199.07 25.151 200.278 26.4284C201.306 27.4929 202.152 28.7202 202.781 30.0603C203.404 31.4128 203.821 32.8468 204.033 34.3183C204.382 36.7228 204.133 39.1774 203.305 41.4567C203.255 41.6007 203.211 41.7448 203.161 41.9013C203.136 41.9765 203.118 42.0453 203.093 42.1205C203.136 42.1518 203.192 42.1643 203.249 42.1643C203.336 42.158 203.423 42.1142 203.479 42.0453C203.51 42.014 203.547 41.989 203.585 41.9639C203.666 41.9138 203.747 41.8575 203.821 41.7949C203.865 41.7573 203.915 41.7197 203.958 41.6884C205.173 40.8118 206.512 40.1167 207.925 39.6283C209.339 39.1461 210.809 38.8518 212.297 38.7391C212.478 38.7266 212.621 38.7203 212.739 38.7203C213.032 38.7203 213.194 38.7642 213.256 38.8706C213.356 39.0334 213.238 39.334 213.001 39.7974C211.724 42.3209 210.167 44.6878 208.349 46.8481C206.524 49.0022 204.469 50.9496 202.227 52.6591C201.623 53.1224 200.982 53.567 200.365 53.9928C200.135 54.1494 199.898 54.3184 199.661 54.4813C199.5 54.594 199.331 54.6879 199.157 54.7756C199.113 54.8006 199.057 54.8131 199.008 54.8131C198.814 54.8006 198.665 54.6566 198.646 54.4687ZM184.952 30.8555C184.952 33.3164 186.926 35.3139 189.374 35.3264H189.398C191.846 35.3264 193.826 33.3352 193.832 30.8806C193.839 28.4259 191.852 26.4284 189.411 26.4222H189.398C186.951 26.4222 184.971 28.4009 184.952 30.8555ZM218.039 36.2907C216.675 35.9651 215.274 35.8649 213.879 35.9964C213.194 36.0403 213.063 35.9526 212.895 35.2951C212.409 33.4103 212.011 31.5005 211.706 29.5718C210.989 25.2575 210.672 20.8867 210.746 16.516C210.771 13.429 211.164 10.3607 211.917 7.36754C212.235 6.12144 212.708 4.91918 213.318 3.78579C213.723 3.02812 214.246 2.33932 214.863 1.74445C215.946 0.711253 217.379 0.135168 218.873 0.128906C219.963 0.179001 221.028 0.42321 222.037 0.84275C223.108 1.30612 224.123 1.88847 225.07 2.571C226.832 3.84841 228.451 5.32619 229.878 6.97304C230.376 7.5366 230.376 7.63679 229.89 8.13774C228.464 9.6844 227.274 11.4377 226.365 13.3413C224.69 16.7289 223.283 20.2418 222.155 23.8486C220.922 27.5869 219.882 31.3815 218.936 35.2012C218.88 35.4266 218.842 35.6583 218.768 35.8775C218.668 36.1655 218.512 36.3095 218.269 36.3095C218.188 36.3221 218.114 36.3158 218.039 36.2907ZM188.533 34.2369C188.645 33.8048 188.433 33.3602 188.035 33.1724C187.655 32.947 187.169 33.0784 186.945 33.4604C186.901 33.5105 186.858 33.5669 186.795 33.6483C186.384 33.2225 186.179 32.6401 186.229 32.0515C186.216 31.5005 186.409 30.962 186.77 30.5424C187.524 29.6971 188.782 29.5218 189.735 30.1291C190.806 30.7678 191.317 32.0453 190.986 33.2475C190.731 34.1868 189.884 34.8317 188.913 34.8317C188.875 34.8317 188.844 34.8317 188.813 34.8317C188.452 34.838 188.402 34.7065 188.533 34.2369Z" fill="white"/>
<path d="M199.039 47.5808C199.101 47.4931 199.169 47.4054 199.244 47.324C199.319 47.2426 199.425 47.18 199.518 47.2927C199.562 47.3553 199.574 47.4305 199.556 47.4994C199.493 47.6309 199.419 47.7624 199.338 47.8813C199.238 47.7811 199.138 47.681 199.039 47.5808Z" fill="#A6AECC"/>
<path d="M257.468 5.77603H259.7V13H261.068V5.77603H263.288V4.66003H257.468V5.77603Z" fill="white"/>
<path d="M264.673 13H266.041V7.28803L268.597 13H269.545L272.089 7.28803V13H273.457V4.66003H271.993L269.077 11.2L266.149 4.66003H264.673V13Z" fill="white"/>
</svg>
