<svg width="1440" height="141" viewBox="0 0 1440 141" fill="none" xmlns="http://www.w3.org/2000/svg">
<path d="M1440 26.2122L1364.87 14.2419C1305.76 4.82384 1245.44 6.09611 1186.78 17.9982L1123.15 30.9078C1055.76 44.5805 986.2 43.366 919.331 27.3492C851.455 11.0916 780.82 10.0877 712.51 24.4097L644.391 38.6917C603.305 47.306 561.297 50.7117 519.359 48.8284L401.725 43.5457C377.607 42.4626 353.598 39.634 329.888 35.0822L256.961 21.0816C193.586 8.91509 128.456 9.13146 65.1639 21.7188L0.00012207 34.6784V117.765L1440 121.184V26.2122Z" fill="url(#paint0_linear_1405_750)" fill-opacity="0.5"/>
<path d="M1440 56.0189L1341.18 36.9415C1281.48 25.4149 1219.95 27.3117 1161.07 42.4945L1130.61 50.3489C1077.56 64.0262 1021.78 62.8229 969.37 46.871C916.185 30.6818 859.532 29.6879 805.811 44.0015L786.663 49.1035C732.211 63.6121 674.872 63.3085 620.576 48.2242C573.179 35.0563 523.364 33.1262 475.091 42.5871L444.827 48.5183C386.472 59.955 326.218 57.1382 269.185 40.3073C218.324 25.2981 164.829 21.4125 112.334 28.9144L0 44.9675V141H1440V56.0189Z" fill="url(#paint1_linear_1405_750)"/>
<path d="M1440 28.2002L1332.39 45.2627C1277.19 54.0149 1220.91 53.4502 1165.9 43.5921L1148.89 40.5446C1103.19 32.3549 1056.56 30.571 1010.37 35.2445L947.47 41.6078C913.248 45.07 878.76 44.9915 844.554 41.3737L786.849 35.2705C742.483 30.5781 697.688 31.8447 653.657 39.0367L619.508 44.6147C565.535 53.4307 510.481 53.3323 456.54 44.3235L420.532 38.3097C380.328 31.5952 339.454 29.822 298.82 33.0296L219.738 39.2723C193.62 41.334 167.38 41.3397 141.261 39.2893L0 28.2002V141H1440V28.2002Z" fill="url(#paint2_linear_1405_750)" fill-opacity="0.8"/>
<defs>
<linearGradient id="paint0_linear_1405_750" x1="1515.55" y1="59.6422" x2="-308.714" y2="59.6422" gradientUnits="userSpaceOnUse">
<stop stop-color="#0052D4"/>
<stop offset="0.5" stop-color="#4364F7"/>
<stop offset="1" stop-color="#6FB1FC"/>
</linearGradient>
<linearGradient id="paint1_linear_1405_750" x1="1440" y1="79.2648" x2="0" y2="79.2648" gradientUnits="userSpaceOnUse">
<stop stop-color="#0052D4"/>
<stop offset="0.5" stop-color="#4364F7"/>
<stop offset="1" stop-color="#6FB1FC"/>
</linearGradient>
<linearGradient id="paint2_linear_1405_750" x1="1440" y1="84.6002" x2="0" y2="84.6002" gradientUnits="userSpaceOnUse">
<stop stop-color="#0052D4"/>
<stop offset="0.5" stop-color="#4364F7"/>
<stop offset="1" stop-color="#6FB1FC"/>
</linearGradient>
</defs>
</svg>
