<svg width="132" height="44" viewBox="0 0 132 44" fill="none" xmlns="http://www.w3.org/2000/svg">
<g clip-path="url(#clip0_1378_4493)">
<path d="M8.08159 44.0001C7.78197 44.0001 7.49031 44.0001 7.19334 44.0001C6.57865 43.9909 5.96538 43.9294 5.35849 43.8161C4.79359 43.7051 4.24592 43.4984 3.73311 43.2027C2.71429 42.5988 1.88446 41.6411 1.36001 40.4641C1.10191 39.871 0.923107 39.2361 0.829705 38.581C0.72832 37.8774 0.674244 37.1659 0.667963 36.4526C0.667963 36.2134 0.652054 35.416 0.652054 35.416V8.57808C0.652054 8.57808 0.652054 7.79297 0.667963 7.56296C0.672549 6.84874 0.725743 6.13606 0.827054 5.4315C0.919247 4.77411 1.09809 4.13698 1.35736 3.54233C1.61508 2.95719 1.95261 2.42388 2.35698 1.9629C2.76083 1.4953 3.22509 1.10317 3.73311 0.800568C4.24478 0.504299 4.79165 0.297586 5.35584 0.1872C5.96429 0.0714652 6.57941 0.00892894 7.19599 0.00012207H8.08159H124.075H124.971C125.582 0.00617106 126.192 0.0676968 126.795 0.184133C127.365 0.292249 127.917 0.499026 128.434 0.797501C129.455 1.40676 130.284 2.37248 130.804 3.55766C131.062 4.14779 131.24 4.77954 131.335 5.4315C131.436 6.14134 131.493 6.85886 131.504 7.57829C131.504 7.90031 131.504 8.24686 131.504 8.59035C131.504 9.01664 131.504 9.42146 131.504 9.81709V34.1678C131.504 34.5818 131.504 34.9836 131.504 35.3946C131.504 35.8055 131.504 36.103 131.504 36.4526C131.495 37.1578 131.439 37.8611 131.337 38.5565C131.246 39.2162 131.068 39.8557 130.807 40.4518C130.28 41.6244 129.452 42.5791 128.436 43.1843C127.921 43.4832 127.369 43.69 126.8 43.7977C126.194 43.9116 125.58 43.9732 124.966 43.9817C124.679 43.9817 124.377 43.9817 124.085 43.9817H8.08159V44.0001Z" fill="white"/>
<path d="M54.1869 28.7063H49.8438L48.7895 31.6687H46.8809L51.1277 20.6012H52.9301L57.2733 31.6687H55.2758L54.1869 28.7063ZM50.3969 27.1923H53.6314L52.4734 24.0229C52.3153 23.5864 52.1573 23.1019 52.0042 22.572C51.8635 23.0413 51.7104 23.5182 51.5475 24.0078L50.3969 27.1923Z" fill="black"/>
<path d="M58.0411 25.4431C58.0411 24.8325 58.0214 24.1596 57.9819 23.4244H59.7102C59.7752 23.7704 59.8197 24.1201 59.8436 24.4716C60.146 24.1012 60.5232 23.8021 60.9494 23.5948C61.3756 23.3874 61.8407 23.2768 62.3126 23.2705C62.8661 23.2616 63.4095 23.4215 63.8735 23.7298C64.3375 24.0382 64.701 24.481 64.9175 25.0015C65.2213 25.7172 65.3655 26.4929 65.3397 27.2726C65.3585 28.1227 65.1897 28.9661 64.8459 29.7404C64.5583 30.3831 64.0887 30.9228 63.4978 31.2898C62.8898 31.6488 62.1974 31.8312 61.4954 31.8172C60.9429 31.8168 60.3945 31.7213 59.8732 31.5346V34.9487L58.0263 35.1102L58.0411 25.4431ZM62.8953 29.6496C63.2706 29.1449 63.4608 28.3879 63.4608 27.3786C63.4608 26.4584 63.3044 25.7855 62.9916 25.3599C62.8503 25.1621 62.6642 25.0022 62.4492 24.8941C62.2341 24.786 61.9967 24.7328 61.7571 24.7391C61.4121 24.7344 61.0717 24.8213 60.7695 24.9914C60.4484 25.1773 60.1563 25.4112 59.9028 25.6854V30.1013C60.1074 30.1999 60.323 30.2727 60.5448 30.3183C60.7833 30.371 61.0266 30.3981 61.2707 30.399C61.5806 30.418 61.8905 30.3597 62.1735 30.2292C62.4565 30.0986 62.7042 29.8997 62.8953 29.6496Z" fill="black"/>
<path d="M66.4632 25.4431C66.4632 24.8325 66.4435 24.1596 66.404 23.4244H68.1323C68.1993 23.7702 68.2447 24.12 68.2681 24.4716C68.9875 23.6709 69.8105 23.2705 70.7372 23.2705C71.2906 23.2616 71.8341 23.4215 72.2981 23.7298C72.7621 24.0382 73.1256 24.481 73.3421 25.0015C73.6458 25.7172 73.79 26.4929 73.7643 27.2726C73.787 28.1217 73.6224 28.9651 73.2828 29.7404C72.9945 30.3834 72.524 30.9231 71.9322 31.2898C71.3244 31.6492 70.6319 31.8316 69.9298 31.8172C69.3774 31.8168 68.829 31.7213 68.3076 31.5346V34.9487L66.4608 35.1102L66.4632 25.4431ZM71.3248 29.6496C71.7001 29.1331 71.8878 28.3761 71.8878 27.3786C71.8878 26.4584 71.7322 25.7855 71.4211 25.3599C71.2798 25.1621 71.0937 25.0022 70.8787 24.8941C70.6636 24.786 70.4262 24.7328 70.1866 24.7391C69.8416 24.7349 69.5014 24.8218 69.199 24.9914C68.8779 25.1773 68.5858 25.4112 68.3323 25.6854V30.1013C68.5372 30.1991 68.7527 30.272 68.9743 30.3183C69.2128 30.371 69.4561 30.3981 69.7002 30.399C70.0101 30.4176 70.3198 30.3591 70.6027 30.2286C70.8857 30.098 71.1334 29.8994 71.3248 29.6496Z" fill="black"/>
<path d="M77.1593 31.146C76.3703 30.7037 75.7295 30.0294 75.3199 29.2105C74.8722 28.2852 74.6519 27.2623 74.6779 26.2304C74.6459 25.1264 74.9015 24.0335 75.4186 23.0636C75.8856 22.2219 76.5869 21.5412 77.4334 21.108C78.3231 20.6637 79.3026 20.4398 80.2926 20.4544C80.893 20.4517 81.4915 20.5229 82.0753 20.6664C82.6213 20.7977 83.1512 20.9907 83.6555 21.2417L83.1765 22.6926C82.3031 22.2424 81.3422 21.9975 80.3642 21.976C79.6739 21.9642 78.9927 22.1383 78.3889 22.4807C77.8161 22.8167 77.3558 23.3215 77.068 23.9291C76.737 24.6497 76.5763 25.4397 76.5989 26.2355C76.5866 26.9524 76.7089 27.6651 76.9593 28.3349C77.1867 28.9278 77.5866 29.4351 78.105 29.7884C78.6956 30.1661 79.3841 30.3525 80.0803 30.3233C80.441 30.3224 80.8011 30.2912 81.1568 30.23C81.501 30.174 81.8392 30.0845 82.1666 29.9625V27.7116H79.663V26.2456H83.9617V30.9113C83.338 31.2083 82.6849 31.4359 82.0136 31.5901C81.3479 31.7468 80.6671 31.8264 79.984 31.8273C79.0009 31.8514 78.0282 31.6168 77.1593 31.146Z" fill="black"/>
<path d="M90.5219 31.6685C90.452 31.3081 90.4091 30.9428 90.3935 30.5758C90.0851 30.9426 89.7082 31.2428 89.2849 31.459C88.807 31.7064 88.2773 31.8311 87.7417 31.8224C87.3034 31.828 86.8695 31.7323 86.4726 31.5423C86.095 31.3613 85.7793 31.0686 85.5664 30.702C85.3306 30.2866 85.2134 29.8119 85.2282 29.3318C85.2143 28.9677 85.2837 28.6053 85.4307 28.2733C85.5777 27.9413 85.7983 27.6488 86.0751 27.4191C86.638 26.9413 87.5771 26.7033 88.8923 26.705C89.3822 26.7048 89.8715 26.7402 90.3565 26.811V26.6495C90.3565 25.9227 90.205 25.4096 89.9021 25.1102C89.5401 24.7918 89.0702 24.6314 88.5935 24.6636C88.1666 24.6689 87.742 24.7282 87.3294 24.8402C86.9206 24.9409 86.5221 25.0812 86.1393 25.2591L85.8479 23.8864C86.2666 23.7037 86.7015 23.5626 87.1466 23.465C87.7065 23.3356 88.2788 23.2713 88.8528 23.2732C89.4609 23.2562 90.066 23.367 90.6305 23.5987C91.1271 23.8231 91.5314 24.2175 91.7737 24.714C92.0767 25.3788 92.2182 26.1086 92.1861 26.8412V30.1216C92.1861 30.4581 92.2058 30.9745 92.2453 31.671L90.5219 31.6685ZM89.4157 30.1544C89.7716 29.9854 90.0913 29.7461 90.3565 29.4504V27.9364C89.9466 27.8869 89.5346 27.8591 89.1219 27.8531C88.3598 27.8531 87.8322 27.9793 87.5392 28.2316C87.3963 28.355 87.2827 28.51 87.207 28.6849C87.1313 28.8597 87.0954 29.0499 87.1022 29.241C87.0888 29.4061 87.1104 29.5722 87.1653 29.7281C87.2203 29.8839 87.3074 30.0259 87.4207 30.1443C87.6614 30.3518 87.9705 30.4574 88.2849 30.4396C88.6781 30.4335 89.0649 30.336 89.4157 30.1544Z" fill="black"/>
<path d="M93.6131 29.6903V19.9501L95.4501 19.7987V29.3547C95.424 29.62 95.4857 29.8866 95.6254 30.1117C95.696 30.1893 95.7829 30.2494 95.8796 30.2874C95.9763 30.3254 96.0802 30.3404 96.1834 30.3313C96.3509 30.3239 96.5168 30.295 96.6772 30.2455L96.8945 31.598C96.6878 31.6778 96.4734 31.7353 96.255 31.7696C96.0193 31.8114 95.7807 31.8333 95.5415 31.8352C94.2559 31.8268 93.6131 31.1118 93.6131 29.6903Z" fill="black"/>
<path d="M98.2081 29.6903V19.9501L100.048 19.7987V29.3547C100.021 29.62 100.083 29.8866 100.223 30.1117C100.293 30.1893 100.38 30.2494 100.477 30.2874C100.574 30.3254 100.678 30.3404 100.781 30.3313C100.948 30.3239 101.114 30.295 101.275 30.2455L101.49 31.598C101.284 31.6778 101.07 31.7353 100.853 31.7696C100.616 31.8115 100.377 31.8334 100.136 31.8352C98.8526 31.8268 98.2098 31.1118 98.2081 29.6903Z" fill="black"/>
<path d="M109.045 27.7873H103.769C103.853 29.515 104.657 30.3788 106.183 30.3788C106.575 30.3767 106.965 30.3293 107.346 30.2375C107.736 30.1449 108.116 30.0182 108.485 29.859L108.889 31.1509C107.939 31.6088 106.898 31.8384 105.848 31.8222C105.095 31.8444 104.349 31.6707 103.68 31.3175C103.1 30.9973 102.635 30.4972 102.351 29.8892C102.038 29.185 101.886 28.4169 101.907 27.6434C101.886 26.833 102.048 26.0285 102.379 25.2917C102.661 24.6663 103.117 24.1397 103.69 23.7776C104.277 23.4241 104.949 23.2441 105.63 23.2578C106.307 23.2334 106.974 23.4248 107.539 23.8054C108.049 24.1669 108.443 24.6731 108.675 25.2614C108.929 25.9022 109.055 26.5886 109.045 27.2801V27.7873ZM107.245 26.5887C107.249 26.0529 107.075 25.5317 106.751 25.11C106.606 24.9441 106.427 24.8129 106.227 24.7257C106.027 24.6385 105.811 24.5974 105.593 24.6053C105.374 24.6007 105.157 24.6432 104.955 24.7302C104.754 24.8172 104.572 24.9466 104.423 25.11C104.075 25.5245 103.862 26.0396 103.813 26.5836L107.245 26.5887Z" fill="black"/>
<path d="M110.442 25.4958C110.442 25.0442 110.42 24.3528 110.381 23.4267H112.109C112.139 23.6563 112.166 23.9313 112.195 24.2468C112.225 24.5622 112.24 24.8246 112.25 25.024C112.436 24.7023 112.647 24.3968 112.882 24.1105C113.086 23.8658 113.332 23.6614 113.608 23.5074C113.898 23.3473 114.224 23.2665 114.553 23.2727C114.803 23.2665 115.053 23.298 115.294 23.3661L115.062 25.0013C114.773 24.9157 114.469 24.894 114.171 24.9375C113.873 24.981 113.588 25.0887 113.334 25.2536C112.925 25.564 112.569 25.9408 112.279 26.3689V31.668H110.442V25.4958Z" fill="black"/>
<path d="M116.321 35.0422C116.096 35.005 115.874 34.9502 115.657 34.8782L115.993 33.503C116.148 33.5457 116.306 33.5802 116.465 33.6064C116.642 33.6387 116.822 33.6556 117.003 33.6569C117.826 33.6569 118.438 33.1194 118.84 32.0445L118.961 31.7391L115.986 23.4271H117.961L119.472 28.0727C119.665 28.6702 119.822 29.2795 119.941 29.8971C120.082 29.3015 120.245 28.706 120.435 28.1105L121.941 23.4271H123.8L120.837 31.777C120.614 32.4495 120.309 33.0912 119.931 33.6872C119.643 34.1374 119.249 34.5068 118.785 34.7621C118.289 35.01 117.741 35.1312 117.188 35.1154C116.898 35.1166 116.608 35.0921 116.321 35.0422Z" fill="black"/>
<path d="M46.8809 10.0634H50.1648L50.0734 10.8759H47.8389V12.4479H49.945V13.205H47.8389V14.9461H50.1919L50.1104 15.7712H46.8809V10.0634Z" fill="black"/>
<path d="M52.4337 12.8593L50.7053 10.0634H51.8016L52.9769 12.1174L54.2114 10.0634H55.2756L53.5472 12.8239L55.4163 15.7712H54.3053L52.9744 13.5254L51.6189 15.7712H50.5547L52.4337 12.8593Z" fill="black"/>
<path d="M56.125 10.0634H57.6312C58.3373 10.0634 58.8789 10.2106 59.2558 10.5049C59.4433 10.6557 59.5924 10.8505 59.6904 11.0728C59.7884 11.2951 59.8325 11.5383 59.8188 11.7818C59.8292 12.1295 59.7436 12.4732 59.5718 12.7735C59.4042 13.0558 59.1597 13.282 58.8682 13.4245C58.5443 13.581 58.1893 13.6587 57.8312 13.6516C57.5825 13.648 57.3346 13.6218 57.0904 13.5734V15.7712H56.125V10.0634ZM58.5447 12.612C58.6501 12.5086 58.7322 12.3831 58.7855 12.2441C58.8388 12.1051 58.8619 11.956 58.8533 11.807C58.8659 11.6642 58.8439 11.5205 58.7892 11.3884C58.7345 11.2564 58.6488 11.1402 58.5398 11.05C58.2619 10.877 57.9385 10.796 57.6139 10.8178H57.0904V12.8365C57.2739 12.8703 57.4596 12.8897 57.646 12.8946C57.9697 12.9194 58.2906 12.8185 58.5447 12.612Z" fill="black"/>
<path d="M60.7719 10.0634H61.7348V14.9284H64.0459L63.9644 15.7712H60.7719V10.0634Z" fill="black"/>
<path d="M65.5125 15.4917C65.1078 15.2589 64.7809 14.9073 64.5743 14.4823C64.3497 14.0113 64.2388 13.4921 64.2508 12.9683C64.239 12.4209 64.3576 11.8788 64.5965 11.3886C64.8154 10.9469 65.1596 10.5828 65.5841 10.344C66.0593 10.0896 66.5912 9.96611 67.1273 9.98565C67.6342 9.97174 68.1358 10.0945 68.5816 10.3414C68.9838 10.575 69.3081 10.9266 69.5124 11.3508C69.7326 11.8169 69.8418 12.3297 69.831 12.8472C69.8443 13.4007 69.7248 13.9491 69.4828 14.4445C69.2618 14.8847 68.9181 15.2482 68.4952 15.4891C68.0283 15.743 67.5054 15.8698 66.9767 15.8575C66.4655 15.8708 65.9601 15.7445 65.5125 15.4917ZM68.0112 14.7927C68.2834 14.6083 68.4951 14.3446 68.6186 14.0357C68.7572 13.6821 68.8252 13.3037 68.8186 12.9229C68.8248 12.549 68.7646 12.1771 68.6409 11.8252C68.5301 11.5204 68.3322 11.2567 68.073 11.0682C67.7723 10.8802 67.4267 10.7807 67.0742 10.7807C66.7218 10.7807 66.3761 10.8802 66.0755 11.0682C65.8025 11.2617 65.5899 11.5316 65.4631 11.8454C65.3227 12.1844 65.2529 12.5497 65.2582 12.9178C65.2523 13.2971 65.3176 13.674 65.4508 14.0281C65.5691 14.352 65.7853 14.629 66.0682 14.8187C66.3511 15.0084 66.6857 15.1009 67.0236 15.0829C67.3741 15.0917 67.7188 14.9904 68.0112 14.7927Z" fill="black"/>
<path d="M70.905 10.0635H72.6531C73.1652 10.0265 73.6749 10.164 74.1024 10.4547C74.2664 10.5863 74.397 10.7564 74.4829 10.9505C74.5689 11.1447 74.6078 11.3572 74.5962 11.57C74.602 11.8467 74.541 12.1206 74.4185 12.3674C74.3113 12.5838 74.1617 12.7754 73.979 12.9301C73.8156 13.0649 73.6322 13.1722 73.4358 13.248L75.1641 15.7714H74.0407L72.5864 13.5004H71.8778V15.7714H70.905V10.0635ZM72.4185 12.7636C72.6329 12.7683 72.8454 12.7208 73.0382 12.6248C73.2119 12.5395 73.3583 12.4056 73.4605 12.2387C73.5624 12.0605 73.6145 11.8571 73.6111 11.6507C73.621 11.5316 73.6019 11.4119 73.5553 11.3022C73.5088 11.1925 73.4363 11.0964 73.3444 11.0224C73.1129 10.8743 72.8416 10.8046 72.5691 10.8231H71.8704V12.7736L72.4185 12.7636Z" fill="black"/>
<path d="M75.9173 10.0634H79.2085L79.1147 10.8759H76.8925V12.4479H78.9789V13.205H76.8728V14.9461H79.2258L79.1542 15.7712H75.9173V10.0634Z" fill="black"/>
<path d="M82.7888 10.0634H83.7517V15.7712H82.7888V10.0634Z" fill="black"/>
<path d="M86.3023 10.886H84.5739L84.6579 10.0634H89.0034L88.9146 10.886H87.2677V15.7712H86.3023V10.886Z" fill="black"/>
<path d="M93.1884 15.4913C92.7844 15.2584 92.4584 14.9067 92.2526 14.4819C92.026 14.0115 91.9142 13.4921 91.9267 12.9679C91.9149 12.4205 92.0335 11.8784 92.2724 11.3883C92.4919 10.9469 92.836 10.5831 93.26 10.3436C93.7316 10.088 94.2597 9.96108 94.7933 9.97519C95.3062 9.96107 95.8134 10.0874 96.2624 10.3411C96.6652 10.5739 96.9897 10.9257 97.1932 11.3504C97.4143 11.8163 97.5243 12.3291 97.5142 12.8468C97.5279 13.4006 97.4075 13.9493 97.1636 14.4441C96.9433 14.8849 96.5995 15.2486 96.176 15.4888C95.7093 15.7432 95.1863 15.8702 94.6575 15.8572C94.1446 15.8713 93.6374 15.745 93.1884 15.4913ZM95.6896 14.7923C95.9605 14.6071 96.1711 14.3435 96.2945 14.0353C96.433 13.6817 96.501 13.3033 96.4945 12.9225C96.5007 12.5486 96.4405 12.1767 96.3167 11.8248C96.2069 11.5202 96.0098 11.2564 95.7513 11.0678C95.4503 10.8796 95.1042 10.78 94.7513 10.78C94.3984 10.78 94.0524 10.8796 93.7513 11.0678C93.4784 11.2613 93.2658 11.5312 93.139 11.845C92.9997 12.1844 92.93 12.5494 92.9341 12.9174C92.9281 13.2967 92.9935 13.6736 93.1267 14.0277C93.2445 14.339 93.4498 14.6077 93.7168 14.7999C94.0091 14.9971 94.3544 15.0959 94.7044 15.0825C95.054 15.0898 95.3975 14.9886 95.6896 14.7923Z" fill="black"/>
<path d="M98.5834 10.0634H99.6895L102.452 14.4868C102.428 14.0654 102.418 13.6794 102.418 13.3236V10.0634H103.312V15.7712H102.24L99.4352 11.2771C99.4624 11.7818 99.4772 12.2385 99.4772 12.6347V15.7712H98.5834V10.0634Z" fill="black"/>
<path fill-rule="evenodd" clip-rule="evenodd" d="M29.9171 8.3811H18.1058C12.5374 8.3811 10.5001 10.434 10.5001 16.045V27.9553C10.5001 33.5663 12.5374 35.6192 18.1058 35.6192H29.9171C35.4856 35.6192 37.5258 33.5663 37.5258 27.9553V16.045C37.5314 10.434 35.4941 8.3811 29.9171 8.3811Z" fill="#C8102E"/>
<path d="M15.8523 22.0001H16.5694V25.5648H15.8523V24.1165H14.2333V25.5648H13.5163V22.0001H14.2333V23.434H15.8523V22.0001ZM19.8928 24.0391C19.8928 24.6127 19.6083 24.9281 19.0904 24.9281C18.5726 24.9281 18.2823 24.6127 18.2823 24.0076V22.0001H17.5653V24.0362C17.5653 25.0371 18.1173 25.6106 19.079 25.6106C20.0408 25.6106 20.6099 25.0371 20.6099 24.0047V22.0001H19.8928V24.0391ZM28.1787 24.4492L27.3763 22.0001H26.7873L25.9905 24.4521L25.208 22.0001H24.4455L25.6775 25.5648H26.2722L27.0718 23.2247L27.8742 25.5648H28.4746L29.7066 22.0001H28.9611L28.1787 24.4492ZM30.9899 24.0276H32.296V23.3824H30.9899V22.654H32.885V22.0001H30.2843V25.5562H32.9533V24.9138H30.9899V24.0276ZM33.8069 25.5562H34.5154V22.0001H33.8069V25.5562ZM22.0269 24.8191L21.7054 25.559H20.9741L22.5191 22.0001H23.1508L24.7016 25.559H23.9618L23.6573 24.822L22.0269 24.8191ZM22.2944 24.1768H23.3728L22.8321 22.9035L22.2944 24.1768Z" fill="white"/>
<path d="M24.0158 17.4681C22.8229 17.4674 21.6791 16.9895 20.8357 16.1393C19.9922 15.2892 19.518 14.1364 19.5172 12.9342H20.1517C20.1517 13.9671 20.5588 14.9576 21.2835 15.688C22.0082 16.4183 22.991 16.8286 24.0158 16.8286C25.0406 16.8286 26.0235 16.4183 26.7481 15.688C27.4728 14.9576 27.8799 13.9671 27.8799 12.9342H28.5144C28.5136 14.1364 28.0394 15.2892 27.196 16.1393C26.3525 16.9895 25.2087 17.4674 24.0158 17.4681Z" fill="white"/>
</g>
<defs>
<clipPath id="clip0_1378_4493">
<rect width="132" height="44" fill="white"/>
</clipPath>
</defs>
</svg>
