<svg width="132" height="44" viewBox="0 0 132 44" fill="none" xmlns="http://www.w3.org/2000/svg">
<path d="M126.041 0H5.95935C2.66809 0 0 2.6528 0 5.92521V38.0748C0 41.3472 2.66809 44 5.95935 44H126.041C129.332 44 132 41.3472 132 38.0748V5.92521C132 2.6528 129.332 0 126.041 0Z" fill="white"/>
<path d="M50.4732 14.1376V17.4803C50.3256 17.6949 50.1483 17.8858 49.9469 18.0471C49.6517 18.2863 49.3183 18.4703 48.9616 18.5907C48.4395 18.7549 47.8947 18.8291 47.3492 18.8104C46.8391 18.8184 46.3326 18.7201 45.8601 18.5213C45.4129 18.327 45.0119 18.035 44.6844 17.6654C44.3423 17.2695 44.0831 16.8048 43.923 16.3006C43.7354 15.7111 43.6446 15.0934 43.6543 14.4731V13.7675C43.6455 13.1497 43.7247 12.534 43.8894 11.94C44.0267 11.4403 44.2631 10.9755 44.5836 10.5752C44.8843 10.2034 45.2688 9.91344 45.7033 9.73087C46.1859 9.52505 46.704 9.42273 47.2261 9.43014C47.8103 9.41147 48.3902 9.53843 48.9168 9.80027C49.3557 10.0152 49.7251 10.3566 49.9805 10.7834C50.2486 11.2216 50.4206 11.7151 50.4844 12.2292H49.3647C49.3223 11.9092 49.2155 11.6018 49.0512 11.327C48.8953 11.0504 48.6661 10.8257 48.3906 10.6793C48.045 10.4956 47.6591 10.4079 47.2709 10.4248C46.9039 10.4172 46.54 10.4963 46.2072 10.6562C45.908 10.8035 45.6528 11.0312 45.4682 11.3155C45.2545 11.6318 45.1059 11.99 45.0315 12.368C44.9272 12.8226 44.8783 13.2888 44.8859 13.756V14.4731C44.8829 14.9497 44.9432 15.4245 45.0651 15.8842C45.1726 16.2683 45.3472 16.6289 45.5801 16.9483C45.7925 17.2282 46.0646 17.4538 46.3751 17.6075C46.6988 17.7576 47.0504 17.8326 47.4052 17.8273C47.7477 17.8361 48.09 17.8012 48.4241 17.7232C48.6373 17.6657 48.841 17.5761 49.0288 17.4572C49.1515 17.375 49.2643 17.2779 49.3647 17.168V15.167H47.2597V14.1839L50.4732 14.1376ZM58.0311 17.7001V18.6369H53.3508V17.6538L58.0311 17.7001ZM53.5523 9.60364V18.6369H52.4326V9.55737L53.5523 9.60364ZM57.3817 13.5246V14.5078H53.3172V13.5246H57.3817ZM57.9303 9.60364V10.5405H53.3172V9.5458L57.9303 9.60364ZM62.8346 9.60364V18.6369H61.7149V9.55737L62.8346 9.60364ZM65.6786 9.60364V10.5405H58.8485V9.5458L65.6786 9.60364ZM76.6292 13.8832V14.4615C76.6393 15.084 76.5562 15.7043 76.3828 16.3006C76.2357 16.8079 75.9921 17.2797 75.6662 17.6885C75.3633 18.0635 74.9799 18.3605 74.5465 18.556C74.0829 18.7597 73.5835 18.8621 73.0797 18.8567C72.587 18.86 72.099 18.7576 71.6465 18.556C71.2156 18.3563 70.8331 18.06 70.5268 17.6885C70.1974 17.2804 69.95 16.8085 69.799 16.3006C69.6124 15.7069 69.5217 15.0856 69.5303 14.4615V13.8832C69.5229 13.26 69.6098 12.6395 69.7878 12.0441C69.9427 11.5355 70.1939 11.0637 70.5268 10.6562C70.8324 10.2811 71.2148 9.98082 71.6465 9.77713C72.1038 9.57863 72.5949 9.47639 73.0909 9.47639C73.587 9.47639 74.078 9.57863 74.5353 9.77713C74.9663 9.98213 75.3484 10.2822 75.655 10.6562C75.9809 11.065 76.2245 11.5368 76.3716 12.0441C76.5565 12.6229 76.6547 13.2275 76.6627 13.8369L76.6292 13.8832ZM75.5095 14.4615V13.8716C75.5198 13.3846 75.4671 12.8984 75.3527 12.4258C75.2599 12.0481 75.1005 11.6913 74.8824 11.3733C74.6863 11.0939 74.4242 10.8709 74.1211 10.7256C73.8062 10.5724 73.4612 10.4972 73.1133 10.5058C72.773 10.5008 72.436 10.5759 72.128 10.7256C71.8322 10.8777 71.5752 11.0996 71.3778 11.3733C71.1515 11.6878 70.9878 12.0455 70.8963 12.4258C70.778 12.8978 70.7215 13.3841 70.7284 13.8716V14.4615C70.7215 14.949 70.778 15.4353 70.8963 15.9073C70.9927 16.2893 71.1559 16.65 71.3778 16.9714C71.5793 17.2456 71.84 17.4674 72.1392 17.6191C72.4484 17.7651 72.7846 17.8401 73.1245 17.8389C73.4755 17.8425 73.8232 17.7675 74.1434 17.6191C74.4412 17.4701 74.6988 17.2476 74.8936 16.9714C75.1124 16.651 75.2683 16.2895 75.3527 15.9073C75.4598 15.4181 75.5012 14.9161 75.4759 14.4152L75.5095 14.4615ZM85.2284 9.60364V18.6369H84.0527L79.5739 11.6046V18.6369H78.4543V9.55737H79.5739L84.0527 16.6128V9.55737L85.2284 9.60364Z" fill="black"/>
<path d="M51.3418 29.8528V34.1366C51.1131 34.3919 50.8514 34.6148 50.5638 34.7991C50.1473 35.0646 49.6955 35.2684 49.2221 35.4046C48.5766 35.5875 47.9078 35.6722 47.2377 35.6559C46.5942 35.6645 45.955 35.5482 45.3547 35.3132C44.7971 35.0898 44.2962 34.7424 43.889 34.2965C43.4681 33.824 43.1494 33.2676 42.9531 32.663C42.7171 31.9451 42.6028 31.1919 42.6149 30.4354V29.7614C42.6063 29.0106 42.7128 28.2629 42.9306 27.5452C43.1192 26.9363 43.4345 26.3754 43.8551 25.9002C44.2415 25.4561 44.7238 25.1081 45.2645 24.8836C45.8431 24.6404 46.4648 24.5199 47.0911 24.5294C47.867 24.5092 48.6375 24.6654 49.3461 24.9864C49.9119 25.267 50.3857 25.7074 50.7104 26.2544C51.033 26.8181 51.2329 27.4452 51.2967 28.0936H49.1995C49.1545 27.7565 49.0474 27.431 48.8838 27.134C48.7325 26.8643 48.5099 26.6428 48.2411 26.4943C47.8897 26.325 47.5023 26.2465 47.1136 26.2658C46.7735 26.2628 46.4374 26.3411 46.1327 26.4943C45.8439 26.6543 45.5967 26.8814 45.4111 27.1568C45.1979 27.5077 45.049 27.8947 44.9714 28.2992C44.8615 28.794 44.8085 29.3 44.8135 29.8071V30.4925C44.8091 30.9996 44.8621 31.5055 44.9714 32.0004C45.0593 32.4091 45.2239 32.7969 45.4562 33.1427C45.6582 33.4291 45.9302 33.6574 46.2454 33.8053C46.5993 33.9671 46.9849 34.0452 47.373 34.0338C47.6649 34.0378 47.9563 34.0071 48.2411 33.9424C48.4371 33.8938 48.6265 33.8209 48.8049 33.7253C48.9265 33.6546 49.04 33.5703 49.1432 33.474V31.5549H47.1249V29.967L51.3418 29.8528ZM52.6384 31.5663V31.4064C52.6346 30.8548 52.7222 30.3064 52.8978 29.7842C53.0467 29.3042 53.2924 28.8607 53.6194 28.482C53.93 28.1175 54.3146 27.8253 54.7469 27.6252C55.7757 27.2141 56.9202 27.2141 57.949 27.6252C58.4025 27.8164 58.8073 28.1093 59.1329 28.482C59.4634 28.8601 59.7129 29.3035 59.8658 29.7842C60.0373 30.3071 60.1211 30.8554 60.1138 31.4064V31.5663C60.1203 32.1209 60.0364 32.6728 59.8658 33.1999C59.71 33.6759 59.4607 34.115 59.1329 34.4907C58.8253 34.8584 58.4399 35.1513 58.0054 35.3475C56.9766 35.7586 55.8321 35.7586 54.8033 35.3475C54.3507 35.1546 53.9463 34.8619 53.6194 34.4907C53.2951 34.1144 53.0496 33.6752 52.8978 33.1999C52.7233 32.6735 52.6356 32.1216 52.6384 31.5663V31.5663ZM54.7581 31.4064V31.5663C54.7524 31.8848 54.7826 32.2029 54.8484 32.5144C54.8971 32.7827 54.9885 33.0412 55.119 33.2798C55.2473 33.4919 55.4255 33.6685 55.6376 33.7939C55.8717 33.9209 56.1331 33.9873 56.3987 33.9873C56.6642 33.9873 56.9257 33.9209 57.1597 33.7939C57.3711 33.6715 57.5463 33.494 57.6671 33.2798C57.8013 33.0418 57.8965 32.7833 57.949 32.5144C58.0091 32.2021 58.0393 31.8846 58.0392 31.5663V31.4064C58.0388 31.0995 58.0086 30.7934 57.949 30.4925C57.899 30.2176 57.7997 29.9543 57.6559 29.7157C57.5364 29.4983 57.366 29.3139 57.1597 29.1788C56.9257 29.0463 56.6611 28.9793 56.393 28.9846C56.1249 28.9781 55.86 29.0452 55.6263 29.1788C55.4192 29.3165 55.2458 29.5001 55.119 29.7157C54.9887 29.9584 54.8973 30.2207 54.8484 30.4925C54.7832 30.7925 54.753 31.0992 54.7581 31.4064V31.4064ZM61.1173 31.5663V31.4064C61.1134 30.8548 61.2011 30.3064 61.3766 29.7842C61.5256 29.3042 61.7713 28.8607 62.0982 28.482C62.4089 28.1175 62.7935 27.8253 63.2258 27.6252C64.2546 27.2141 65.3991 27.2141 66.4279 27.6252C66.8611 27.8237 67.246 28.1162 67.5554 28.482C67.8859 28.8601 68.1354 29.3035 68.2883 29.7842C68.4597 30.3071 68.5436 30.8554 68.5363 31.4064V31.5663C68.5428 32.1209 68.4589 32.6728 68.2883 33.1999C68.1325 33.6759 67.8832 34.115 67.5554 34.4907C67.2478 34.8584 66.8624 35.1513 66.4279 35.3475C65.3991 35.7586 64.2546 35.7586 63.2258 35.3475C62.792 35.1499 62.4069 34.8573 62.0982 34.4907C61.7739 34.1144 61.5284 33.6752 61.3766 33.1999C61.2021 32.6735 61.1145 32.1216 61.1173 31.5663V31.5663ZM63.237 31.4064V31.5663C63.2312 31.8848 63.2615 32.2029 63.3272 32.5144C63.376 32.7827 63.4674 33.0412 63.5978 33.2798C63.7262 33.4919 63.9044 33.6685 64.1165 33.7939C64.3495 33.9291 64.6148 33.9963 64.8832 33.9881C65.1476 33.993 65.4085 33.926 65.6386 33.7939C65.85 33.6715 66.0252 33.494 66.146 33.2798C66.2802 33.0418 66.3754 32.7833 66.4279 32.5144C66.488 32.2021 66.5182 31.8846 66.5181 31.5663V31.4064C66.5177 31.0995 66.4875 30.7934 66.4279 30.4925C66.3779 30.2176 66.2785 29.9543 66.1347 29.7157C66.0127 29.4864 65.8297 29.2964 65.6065 29.1672C65.3833 29.038 65.1288 28.9747 64.8719 28.9846C64.6037 28.9781 64.3388 29.0452 64.1052 29.1788C63.8981 29.3165 63.7246 29.5001 63.5978 29.7157C63.4675 29.9584 63.3762 30.2207 63.3272 30.4925C63.2621 30.7925 63.2318 31.0992 63.237 31.4064V31.4064ZM74.9631 27.4653H76.8799V35.2332C76.8994 35.892 76.7311 36.5424 76.3951 37.1067C76.0711 37.6153 75.6036 38.0133 75.0533 38.249C74.4246 38.5272 73.7436 38.6636 73.0576 38.6489C72.3217 38.6387 71.5989 38.4507 70.9492 38.1005C70.6274 37.918 70.344 37.6735 70.1148 37.3808L71.0507 36.1243C71.2824 36.404 71.5708 36.6299 71.8963 36.7868C72.2274 36.9589 72.5954 37.0452 72.9674 37.0381C73.3036 37.0502 73.6372 36.9755 73.9371 36.8211C74.1973 36.683 74.4097 36.4678 74.5459 36.2042C74.693 35.9026 74.7665 35.5696 74.7602 35.2332V29.3044L74.9631 27.4653ZM69.6187 31.5777V31.4292C69.6138 30.8614 69.6898 30.2958 69.8442 29.75C69.9739 29.2837 70.188 28.846 70.4757 28.4591C70.7453 28.102 71.0925 27.8128 71.4904 27.6138C71.9095 27.4125 72.3684 27.3109 72.8321 27.3168C73.293 27.3031 73.7501 27.4051 74.1626 27.6138C74.5264 27.8089 74.8306 28.1013 75.0421 28.4591C75.2842 28.8601 75.4666 29.295 75.5833 29.75C75.7148 30.2806 75.8164 30.8184 75.8877 31.3607V31.7034C75.8193 32.2292 75.71 32.7487 75.5607 33.257C75.4249 33.7054 75.2275 34.1322 74.9744 34.525C74.7471 34.8707 74.4417 35.1565 74.0837 35.3589C73.694 35.5637 73.2597 35.6658 72.8209 35.6559C72.3594 35.6623 71.9032 35.5566 71.4904 35.3475C71.0974 35.1408 70.7546 34.8481 70.4869 34.4907C70.1934 34.1059 69.9753 33.6677 69.8442 33.1999C69.6905 32.6734 69.6145 32.1267 69.6187 31.5777V31.5777ZM71.7385 31.4292V31.5777C71.7327 31.8924 71.763 32.2068 71.8286 32.5144C71.8869 32.7833 71.9858 33.0415 72.1218 33.2798C72.2491 33.4889 72.4228 33.6649 72.6292 33.7939C72.8516 33.9117 73.0998 33.9707 73.3508 33.9652C73.683 33.982 74.0126 33.8985 74.2979 33.7253C74.5459 33.5534 74.7381 33.3109 74.8504 33.0285C74.9791 32.7087 75.0517 32.3684 75.0646 32.0232V31.0522C75.056 30.7665 75.0144 30.4828 74.9406 30.2069C74.8712 29.9759 74.7686 29.7565 74.6361 29.5558C74.4971 29.3797 74.3196 29.2389 74.1175 29.1445C73.8834 29.0397 73.6292 28.989 73.3733 28.996C73.1162 28.9923 72.8629 29.0595 72.6405 29.1902C72.4393 29.3257 72.2668 29.5004 72.1331 29.7043C71.9961 29.9462 71.8972 30.2083 71.8399 30.4811C71.7697 30.792 71.7357 31.1102 71.7385 31.4292ZM80.7585 24.0953V35.5188H78.6275V24.0953H80.7585ZM86.1593 35.6559C85.5933 35.6632 85.031 35.5624 84.5018 35.3589C84.0318 35.1672 83.6057 34.8795 83.2503 34.5136C82.912 34.1593 82.6475 33.7397 82.4723 33.2798C82.2906 32.7946 82.1989 32.2795 82.2017 31.7605V31.4635C82.1973 30.8969 82.2849 30.3334 82.4611 29.7957C82.6157 29.3123 82.865 28.8655 83.194 28.482C83.5007 28.1134 83.8863 27.8204 84.3215 27.6252C84.8132 27.4137 85.3432 27.3086 85.8774 27.3168C86.3914 27.3056 86.9021 27.4029 87.377 27.6023C87.8095 27.7756 88.1958 28.0495 88.5045 28.402C88.8085 28.768 89.0384 29.1911 89.181 29.6472C89.3532 30.1744 89.4445 30.7254 89.4516 31.2807V32.1717H83.1376V30.7438H87.377V30.5839C87.3822 30.3077 87.3243 30.034 87.2079 29.7842C87.1119 29.5554 86.951 29.3606 86.7456 29.2245C86.5031 29.0703 86.2199 28.9945 85.9338 29.0074C85.68 29.0023 85.43 29.0696 85.2122 29.2016C85.0127 29.3317 84.8466 29.5079 84.7274 29.7157C84.598 29.964 84.5032 30.2293 84.4455 30.5039C84.3849 30.8278 84.3547 31.1567 84.3553 31.4863V31.7833C84.3526 32.0858 84.3983 32.3867 84.4906 32.6744C84.5758 32.9317 84.7056 33.1715 84.8739 33.3826C85.0473 33.5767 85.2584 33.7322 85.4941 33.8396C85.7566 33.9575 86.0413 34.016 86.3284 34.0109C86.6937 34.0112 87.0548 33.9334 87.3883 33.7825C87.723 33.6251 88.0164 33.3903 88.2452 33.097L89.2712 34.2394C89.0818 34.5083 88.8538 34.7471 88.5947 34.9476C88.2794 35.1777 87.9341 35.3622 87.5687 35.496C87.107 35.6283 86.627 35.6823 86.148 35.6559H86.1593ZM98.6521 31.6463H95.9235V29.9099H98.6521C99.0053 29.9238 99.3568 29.8533 99.6781 29.7043C99.925 29.5702 100.126 29.363 100.253 29.1102C100.379 28.843 100.441 28.5495 100.434 28.2535C100.437 27.9431 100.376 27.6355 100.253 27.351C100.132 27.0763 99.9316 26.8452 99.6781 26.6885C99.3665 26.5079 99.0107 26.4207 98.6521 26.4372H96.6903V35.5074H94.4352V24.6894H98.5957C99.3355 24.667 100.07 24.8237 100.738 25.1463C101.31 25.4219 101.791 25.8581 102.125 26.4029C102.447 26.9601 102.611 27.5965 102.598 28.2421C102.615 28.8773 102.451 29.5041 102.125 30.047C101.783 30.5574 101.301 30.9547 100.738 31.1893C100.078 31.489 99.3638 31.6447 98.6408 31.6463H98.6521ZM106.274 24.0953V35.5188H104.109V24.0953H106.274ZM112.295 33.6911V30.1384C112.305 29.9107 112.263 29.6838 112.171 29.4758C112.095 29.2888 111.96 29.1323 111.788 29.0303C111.583 28.9216 111.353 28.8703 111.122 28.8818C110.912 28.8721 110.703 28.9153 110.513 29.0074C110.348 29.0792 110.207 29.1983 110.108 29.3501C110.014 29.513 109.967 29.6988 109.972 29.887H107.864C107.863 29.545 107.944 29.2079 108.101 28.9046C108.264 28.5867 108.495 28.3096 108.777 28.0936C109.096 27.8488 109.454 27.6631 109.837 27.5452C110.289 27.4027 110.761 27.3333 111.235 27.3396C111.799 27.3296 112.358 27.4345 112.881 27.648C113.337 27.8457 113.728 28.1706 114.009 28.5848C114.302 29.0513 114.447 29.5973 114.426 30.1498V33.5768C114.414 33.9593 114.441 34.342 114.505 34.7192C114.553 34.972 114.633 35.2177 114.742 35.4503V35.5759H112.611C112.491 35.3157 112.411 35.0383 112.374 34.7535C112.312 34.4029 112.282 34.0472 112.284 33.6911H112.295ZM112.577 30.6067V31.8176H111.449C111.201 31.8124 110.954 31.8471 110.716 31.9204C110.528 31.9695 110.354 32.0635 110.209 32.1946C110.084 32.3044 109.983 32.4409 109.916 32.5944C109.856 32.755 109.825 32.9253 109.826 33.097C109.818 33.2702 109.859 33.4421 109.945 33.592C110.031 33.7419 110.158 33.8636 110.311 33.9424C110.484 34.0229 110.673 34.062 110.863 34.0566C111.153 34.0616 111.439 33.9949 111.697 33.8624C111.914 33.7497 112.1 33.585 112.239 33.3826C112.355 33.231 112.425 33.0485 112.442 32.8571L112.994 33.7596C112.914 33.981 112.808 34.1919 112.678 34.3879C112.535 34.6142 112.365 34.8215 112.171 35.0048C111.953 35.205 111.701 35.3636 111.427 35.4731C111.101 35.6044 110.751 35.6666 110.401 35.6559C109.928 35.6621 109.461 35.5565 109.036 35.3475C108.643 35.1551 108.308 34.8592 108.067 34.4907C107.827 34.1214 107.701 33.6878 107.706 33.2456C107.696 32.8513 107.777 32.46 107.943 32.1032C108.098 31.7769 108.331 31.4944 108.619 31.2807C108.961 31.0406 109.343 30.8664 109.747 30.7667C110.267 30.6354 110.801 30.5739 111.337 30.5839L112.577 30.6067ZM118.293 34.6049L120.39 27.4653H122.646L119.455 36.7183C119.38 36.9415 119.289 37.1591 119.184 37.3694C119.065 37.6135 118.909 37.8371 118.722 38.032C118.515 38.2552 118.265 38.4339 117.989 38.5575C117.652 38.6947 117.292 38.7608 116.929 38.7517C116.764 38.7654 116.598 38.7654 116.433 38.7517L115.982 38.6489V37.0838H116.32C116.553 37.0895 116.785 37.0587 117.008 36.9925C117.169 36.9302 117.313 36.8281 117.425 36.6954C117.545 36.5434 117.633 36.3686 117.684 36.1814L118.293 34.6049ZM117.414 27.4653L119.128 33.2912L119.432 35.5759L118 35.7359L115.148 27.4881L117.414 27.4653Z" fill="black"/>
<path d="M9.82483 8.38074C9.6799 8.48232 9.56143 8.61781 9.47951 8.77564C9.39759 8.93348 9.35466 9.10898 9.35437 9.2872V34.7124C9.35466 34.8906 9.39759 35.0661 9.47951 35.2239C9.56143 35.3818 9.6799 35.5172 9.82483 35.6188L23.9056 22.0219L9.82483 8.38074Z" fill="#29B6F6"/>
<path d="M9.82483 8.38074C9.6799 8.48232 9.56143 8.61781 9.47951 8.77564C9.39759 8.93348 9.35466 9.10898 9.35437 9.2872V34.7124C9.35466 34.8906 9.39759 35.0661 9.47951 35.2239C9.56143 35.3818 9.6799 35.5172 9.82483 35.6188L23.9056 22.0219L9.82483 8.38074Z" fill="url(#paint0_linear_1405_2744)"/>
<path d="M28.063 17.5684C22.1971 14.1332 14.9203 9.92426 10.5764 7.47391C10.3843 7.36462 10.166 7.31746 9.94867 7.33831C9.73134 7.35916 9.52464 7.4471 9.35437 7.59115L23.6525 22.0002L28.063 17.5684Z" fill="#00E676"/>
<path d="M28.063 17.5684C22.1971 14.1332 14.9203 9.92426 10.5764 7.47391C10.3843 7.36462 10.166 7.31746 9.94867 7.33831C9.73134 7.35916 9.52464 7.4471 9.35437 7.59115L23.6525 22.0002L28.063 17.5684Z" fill="url(#paint1_linear_1405_2744)"/>
<path d="M9.35437 35.3796C9.54995 35.5332 9.79283 35.6175 10.0436 35.6189C10.2308 35.6165 10.4143 35.5679 10.5771 35.4775C14.9236 33.204 22.2048 29.3098 28.063 26.1226L23.6165 21.9999L9.35437 35.3796Z" fill="#F44336"/>
<path d="M9.35437 35.3796C9.54995 35.5332 9.79283 35.6175 10.0436 35.6189C10.2308 35.6165 10.4143 35.5679 10.5771 35.4775C14.9236 33.204 22.2048 29.3098 28.063 26.1226L23.6165 21.9999L9.35437 35.3796Z" fill="url(#paint2_linear_1405_2744)"/>
<path d="M33.6857 20.9981L28.1811 17.8096L23.9056 21.9945L28.1811 26.1905C30.3188 24.9838 32.2 23.8766 33.6964 22.9909C33.8771 22.9003 34.0295 22.7587 34.1361 22.5825C34.2428 22.4063 34.2993 22.2025 34.2993 21.9945C34.2993 21.7865 34.2428 21.5828 34.1361 21.4065C34.0295 21.2303 33.8771 21.0888 33.6964 20.9981H33.6857Z" fill="#FFEA00"/>
<path d="M33.6857 20.9981L28.1811 17.8096L23.9056 21.9945L28.1811 26.1905C30.3188 24.9838 32.2 23.8766 33.6964 22.9909C33.8771 22.9003 34.0295 22.7587 34.1361 22.5825C34.2428 22.4063 34.2993 22.2025 34.2993 21.9945C34.2993 21.7865 34.2428 21.5828 34.1361 21.4065C34.0295 21.2303 33.8771 21.0888 33.6964 20.9981H33.6857Z" fill="url(#paint3_linear_1405_2744)"/>
<path opacity="0.2" d="M10.9563 7.80659C16.8411 11.2154 28.1965 17.9737 33.8415 21.4538C34.0436 21.5782 34.2039 21.7696 34.2993 22.0002C34.274 21.8219 34.2118 21.6522 34.1174 21.504C34.023 21.3559 33.8988 21.2331 33.7544 21.145C28.1093 17.6649 16.8302 10.9066 10.989 7.49777C10.8332 7.39777 10.657 7.34159 10.4763 7.33431C10.2956 7.32703 10.1161 7.36887 9.9539 7.45606C9.79173 7.54326 9.65202 7.67307 9.54736 7.83378C9.4427 7.9945 9.37638 8.18108 9.35437 8.3767C9.42005 8.21958 9.51495 8.07904 9.63305 7.96397C9.75115 7.84889 9.88989 7.76181 10.0405 7.70821C10.1911 7.65462 10.3502 7.6357 10.5079 7.65263C10.6655 7.66956 10.8182 7.72199 10.9563 7.80659V7.80659Z" fill="black"/>
<path opacity="0.1" d="M10.9563 35.1796C16.8411 32.0143 28.1965 25.7387 33.8415 22.4962C34.0419 22.3836 34.202 22.2099 34.2993 21.9999C34.274 22.1654 34.2118 22.323 34.1174 22.4606C34.023 22.5982 33.8988 22.7122 33.7544 22.794C28.1093 26.0255 16.8302 32.301 10.989 35.4664C10.8332 35.5592 10.657 35.6114 10.4763 35.6182C10.2956 35.6249 10.1161 35.5861 9.9539 35.5051C9.79173 35.4241 9.65202 35.3036 9.54736 35.1544C9.4427 35.0051 9.37638 34.8319 9.35437 34.6502C9.42131 34.795 9.51688 34.9243 9.63516 35.0303C9.75344 35.1362 9.89193 35.2164 10.0421 35.266C10.1922 35.3157 10.3508 35.3336 10.508 35.3187C10.6653 35.3039 10.8179 35.2565 10.9563 35.1796V35.1796Z" fill="white"/>
<path d="M33.7401 20.4535C32.2173 19.5607 15.2496 9.83071 11.0185 7.46884C10.8304 7.3635 10.6167 7.31804 10.4039 7.33814C10.1911 7.35823 9.98878 7.443 9.82208 7.58184C9.6795 7.68459 9.56265 7.8213 9.48128 7.98054C9.39992 8.13978 9.3564 8.31693 9.35437 8.49721V34.4891C9.37676 34.7811 9.49854 35.0552 9.69787 35.2623C9.8972 35.4694 10.161 35.596 10.442 35.6192C10.6252 35.6167 10.8048 35.5662 10.9641 35.4723C15.217 33.1104 32.1521 23.3804 33.6857 22.4876C33.8696 22.3951 34.0247 22.2506 34.1332 22.0707C34.2417 21.8909 34.2992 21.6829 34.2992 21.4706C34.2992 21.2583 34.2417 21.0503 34.1332 20.8704C34.0247 20.6905 33.8696 20.546 33.6857 20.4535H33.7401Z" fill="url(#paint4_linear_1405_2744)"/>
<defs>
<linearGradient id="paint0_linear_1405_2744" x1="16.63" y1="10.5474" x2="16.63" y2="28.8867" gradientUnits="userSpaceOnUse">
<stop stop-color="#00B8D4" stop-opacity="0"/>
<stop offset="1" stop-color="white" stop-opacity="0.3"/>
</linearGradient>
<linearGradient id="paint1_linear_1405_2744" x1="8.14342" y1="10.3229" x2="27.4825" y2="18.869" gradientUnits="userSpaceOnUse">
<stop stop-color="white" stop-opacity="0.2"/>
<stop offset="1" stop-color="white" stop-opacity="0"/>
</linearGradient>
<linearGradient id="paint2_linear_1405_2744" x1="16.4021" y1="28.4613" x2="20.9262" y2="33.0846" gradientUnits="userSpaceOnUse">
<stop stop-opacity="0.1"/>
<stop offset="1" stop-opacity="0"/>
</linearGradient>
<linearGradient id="paint3_linear_1405_2744" x1="26.6312" y1="19.2156" x2="32.1966" y2="24.5887" gradientUnits="userSpaceOnUse">
<stop stop-opacity="0.05"/>
<stop offset="1" stop-opacity="0"/>
</linearGradient>
<linearGradient id="paint4_linear_1405_2744" x1="4944.95" y1="6191.44" x2="5553.31" y2="5941.29" gradientUnits="userSpaceOnUse">
<stop stop-color="white" stop-opacity="0.2"/>
<stop offset="1" stop-color="white" stop-opacity="0"/>
</linearGradient>
</defs>
</svg>
