<svg width="30" height="30" viewBox="0 0 30 30" fill="none" xmlns="http://www.w3.org/2000/svg">
<path d="M29.24 14.6111C29.2383 11.8174 28.4362 9.08258 26.9285 6.73051C25.4209 4.37845 23.2709 2.50759 20.7331 1.33942C18.1953 0.171249 15.3759 -0.245324 12.6087 0.139015C9.84152 0.523354 7.24238 1.69251 5.11897 3.50808C2.99557 5.32365 1.43683 7.70961 0.627269 10.3835C-0.182291 13.0574 -0.208771 15.9073 0.550966 18.5958C1.3107 21.2843 2.82484 23.6988 4.91414 25.5535C7.00344 27.4082 9.58041 28.6254 12.34 29.0611V18.8411H8.62V14.6111H12.34V11.3911C12.34 7.73113 14.52 5.70113 17.86 5.70113C18.9557 5.71652 20.0487 5.81346 21.13 5.99113V9.59113H19.29C18.9762 9.54936 18.6571 9.57872 18.3563 9.67702C18.0554 9.77532 17.7805 9.94006 17.5519 10.159C17.3234 10.378 17.147 10.6456 17.0359 10.9419C16.9247 11.2383 16.8817 11.5559 16.91 11.8711V14.6111H21L20.35 18.8411H16.95V29.0611C20.3812 28.5052 23.5023 26.7457 25.7543 24.0979C28.0063 21.4502 29.242 18.0871 29.24 14.6111Z" fill="url(#paint0_linear_1473_776)"/>
<path d="M20.31 18.8411L21 14.6111H16.91V11.8711C16.8817 11.5559 16.9247 11.2383 17.0359 10.9419C17.147 10.6455 17.3234 10.378 17.5519 10.159C17.7805 9.94005 18.0554 9.77532 18.3562 9.67702C18.6571 9.57871 18.9762 9.54936 19.29 9.59113H21.13V5.99113C20.0487 5.81345 18.9557 5.71652 17.86 5.70113C14.52 5.70113 12.34 7.70113 12.34 11.3911V14.6111H8.62V18.8411H12.34V29.0611C13.0948 29.1739 13.8568 29.2307 14.62 29.2311C15.3865 29.2304 16.1518 29.1735 16.91 29.0611V18.8411H20.31Z" fill="white"/>
<defs>
<linearGradient id="paint0_linear_1473_776" x1="4.28" y1="4.27113" x2="24.96" y2="24.9511" gradientUnits="userSpaceOnUse">
<stop stop-color="#4676ED"/>
<stop offset="0.19" stop-color="#436DE4"/>
<stop offset="0.49" stop-color="#3C55CD"/>
<stop offset="0.87" stop-color="#302EA8"/>
<stop offset="1" stop-color="#2B1E99"/>
</linearGradient>
</defs>
</svg>
