<svg width="30" height="30" viewBox="0 0 30 30" fill="none" xmlns="http://www.w3.org/2000/svg">
<path d="M14.62 29.24C22.6944 29.24 29.24 22.6944 29.24 14.62C29.24 6.5456 22.6944 0 14.62 0C6.5456 0 0 6.5456 0 14.62C0 22.6944 6.5456 29.24 14.62 29.24Z" fill="url(#paint0_linear_1473_781)"/>
<path d="M19.16 9.09C18.9622 9.09 18.7689 9.14865 18.6044 9.25853C18.44 9.36841 18.3118 9.52459 18.2361 9.70731C18.1604 9.89004 18.1406 10.0911 18.1792 10.2851C18.2178 10.4791 18.313 10.6573 18.4529 10.7971C18.5927 10.937 18.7709 11.0322 18.9649 11.0708C19.1589 11.1094 19.36 11.0896 19.5427 11.0139C19.7254 10.9382 19.8816 10.81 19.9915 10.6456C20.1014 10.4811 20.16 10.2878 20.16 10.09C20.16 9.82478 20.0546 9.57043 19.8671 9.38289C19.6796 9.19535 19.4252 9.09 19.16 9.09Z" fill="white"/>
<path d="M14.69 10.38C13.8554 10.38 13.0395 10.6275 12.3455 11.0912C11.6515 11.5549 11.1106 12.214 10.7912 12.9851C10.4718 13.7562 10.3883 14.6047 10.5511 15.4233C10.7139 16.2419 11.1158 16.9938 11.706 17.584C12.2962 18.1742 13.0481 18.5761 13.8667 18.7389C14.6853 18.9017 15.5338 18.8182 16.3049 18.4988C17.076 18.1794 17.7351 17.6385 18.1988 16.9445C18.6625 16.2505 18.91 15.4346 18.91 14.6C18.91 14.0458 18.8008 13.4971 18.5888 12.9851C18.3767 12.4731 18.0659 12.0079 17.674 11.616C17.2821 11.2242 16.8169 10.9133 16.3049 10.7012C15.7929 10.4892 15.2442 10.38 14.69 10.38ZM14.69 17.31C14.154 17.31 13.6301 17.1511 13.1844 16.8533C12.7387 16.5555 12.3914 16.1323 12.1863 15.6371C11.9812 15.1419 11.9275 14.597 12.0321 14.0713C12.1366 13.5456 12.3947 13.0627 12.7737 12.6837C13.1527 12.3047 13.6356 12.0466 14.1613 11.9421C14.687 11.8375 15.2319 11.8912 15.7271 12.0963C16.2223 12.3014 16.6455 12.6488 16.9433 13.0944C17.2411 13.5401 17.4 14.064 17.4 14.6C17.4 15.3187 17.1145 16.008 16.6063 16.5163C16.098 17.0245 15.4087 17.31 14.69 17.31Z" fill="white"/>
<path d="M18 23.17H11.2C10.5224 23.1687 9.85165 23.0339 9.22611 22.7734C8.60057 22.5129 8.03247 22.1317 7.55425 21.6516C7.07603 21.1715 6.69705 20.602 6.43895 19.9754C6.18085 19.3489 6.04868 18.6776 6.05 18V11.18C6.04737 10.5015 6.17856 9.82922 6.43607 9.20152C6.69358 8.57382 7.07235 8.00307 7.55071 7.52193C8.02906 7.04079 8.5976 6.65871 9.22379 6.39756C9.84998 6.13641 10.5215 6.00131 11.2 6H18C19.365 6.00264 20.6734 6.54608 21.6387 7.51132C22.6039 8.47656 23.1474 9.78495 23.15 11.15V18C23.1513 18.6776 23.0191 19.3489 22.761 19.9754C22.5029 20.602 22.124 21.1715 21.6457 21.6516C21.1675 22.1317 20.5994 22.5129 19.9739 22.7734C19.3483 23.0339 18.6776 23.1687 18 23.17ZM11.2 7.64C10.2619 7.64264 9.36306 8.01645 8.69975 8.67976C8.03644 9.34306 7.66263 10.2419 7.66 11.18V18C7.66263 18.9381 8.03644 19.8369 8.69975 20.5002C9.36306 21.1635 10.2619 21.5374 11.2 21.54H18C18.4679 21.544 18.9319 21.4554 19.3654 21.2794C19.7989 21.1034 20.1934 20.8434 20.5261 20.5144C20.8588 20.1854 21.1232 19.7939 21.304 19.3624C21.4849 18.9309 21.5787 18.4679 21.58 18V11.18C21.5787 10.7121 21.4849 10.2491 21.304 9.81758C21.1232 9.38607 20.8588 8.99456 20.5261 8.66558C20.1934 8.3366 19.7989 8.07663 19.3654 7.90062C18.9319 7.72462 18.4679 7.63604 18 7.64H11.2Z" fill="white"/>
<defs>
<linearGradient id="paint0_linear_1473_781" x1="24.96" y1="4.28" x2="4.28" y2="24.96" gradientUnits="userSpaceOnUse">
<stop stop-color="#FBE18A"/>
<stop offset="0.21" stop-color="#FCBB45"/>
<stop offset="0.38" stop-color="#F75274"/>
<stop offset="0.52" stop-color="#D53692"/>
<stop offset="0.74" stop-color="#8F39CE"/>
<stop offset="1" stop-color="#5B4FE9"/>
</linearGradient>
</defs>
</svg>
