<svg width="30" height="30" viewBox="0 0 30 30" fill="none" xmlns="http://www.w3.org/2000/svg">
<g clip-path="url(#clip0_1473_769)">
<path d="M14.62 29.24C22.6944 29.24 29.24 22.6944 29.24 14.62C29.24 6.5456 22.6944 0 14.62 0C6.5456 0 0 6.5456 0 14.62C0 22.6944 6.5456 29.24 14.62 29.24Z" fill="url(#paint0_linear_1473_769)"/>
<path d="M8.49001 11.9H11.32V21H8.49001V11.9ZM9.91001 7.38001C10.2348 7.38201 10.5517 7.4804 10.8204 7.6627C11.0892 7.84501 11.2978 8.10301 11.4198 8.40402C11.5418 8.70502 11.5717 9.03547 11.5056 9.35346C11.4396 9.67146 11.2806 9.96268 11.0489 10.1902C10.8171 10.4178 10.523 10.5714 10.2039 10.6316C9.8847 10.6918 9.55486 10.6558 9.25615 10.5284C8.95743 10.4009 8.7033 10.1876 8.52596 9.91547C8.34861 9.64338 8.25605 9.32476 8.26001 9.00001C8.26528 8.56679 8.44177 8.15326 8.75092 7.84973C9.06007 7.5462 9.47677 7.37733 9.91001 7.38001Z" fill="white"/>
<path d="M13.1 11.9H15.81V13.14C16.0831 12.6788 16.4749 12.2992 16.9444 12.0407C17.414 11.7821 17.9442 11.6541 18.48 11.67C21.35 11.67 21.87 13.56 21.87 16.01V21.01H19.09V16.57C19.09 15.52 19.09 14.16 17.62 14.16C16.15 14.16 15.92 15.31 15.92 16.5V21H13.1V11.9Z" fill="white"/>
</g>
<defs>
<linearGradient id="paint0_linear_1473_769" x1="24.96" y1="4.28" x2="4.28" y2="24.96" gradientUnits="userSpaceOnUse">
<stop stop-color="#007AB5"/>
<stop offset="1" stop-color="#0046E5"/>
</linearGradient>
<clipPath id="clip0_1473_769">
<rect width="29.24" height="29.24" fill="white"/>
</clipPath>
</defs>
</svg>
