<svg width="30" height="30" viewBox="0 0 30 30" fill="none" xmlns="http://www.w3.org/2000/svg">
<g clip-path="url(#clip0_1473_792)">
<path d="M14.62 29.24C22.6944 29.24 29.24 22.6944 29.24 14.62C29.24 6.5456 22.6944 0 14.62 0C6.5456 0 0 6.5456 0 14.62C0 22.6944 6.5456 29.24 14.62 29.24Z" fill="url(#paint0_linear_1473_792)"/>
<path d="M22.7 9.61C22.1852 9.83137 21.6441 9.98596 21.09 10.07C21.35 10.07 21.73 9.56 21.88 9.37C22.1221 9.07412 22.3054 8.73469 22.42 8.37C22.42 8.37 22.42 8.31 22.42 8.29C22.409 8.28016 22.3948 8.27472 22.38 8.27472C22.3652 8.27472 22.351 8.28016 22.34 8.29C21.7317 8.60961 21.087 8.85471 20.42 9.02C20.4002 9.03141 20.3778 9.03742 20.355 9.03742C20.3322 9.03742 20.3098 9.03141 20.29 9.02L20.13 8.85C19.8509 8.61361 19.5373 8.42138 19.2 8.28C18.75 8.09789 18.264 8.02259 17.78 8.06C17.3083 8.09059 16.8484 8.22006 16.43 8.44C16.0102 8.65546 15.6391 8.95501 15.34 9.32C15.0358 9.70371 14.8144 10.1464 14.69 10.62C14.6 11.0756 14.6 11.5444 14.69 12C14.69 12.07 14.69 12.08 14.62 12.07C12.0722 11.8201 9.71032 10.6249 8 8.72C7.93 8.63 7.89 8.63 7.82 8.72C7.47878 9.34901 7.34993 10.0714 7.45264 10.7796C7.55536 11.4878 7.88414 12.1439 8.39 12.65C8.52 12.77 8.65 12.9 8.79 13.01C8.35021 12.9752 7.92181 12.8528 7.53 12.65C7.45 12.6 7.41 12.65 7.4 12.72C7.39087 12.8465 7.39087 12.9735 7.4 13.1C7.47586 13.6903 7.70762 14.2498 8.07144 14.7208C8.43526 15.1918 8.918 15.5574 9.47 15.78C9.60321 15.8428 9.7446 15.8866 9.89 15.91C9.47994 15.9836 9.06006 15.9836 8.65 15.91C8.56 15.91 8.52 15.91 8.56 16.02C8.77329 16.5766 9.12482 17.0698 9.58146 17.4529C10.0381 17.8361 10.5848 18.0966 11.17 18.21C11.29 18.21 11.41 18.21 11.53 18.21C11.0254 18.6864 10.4103 19.0301 9.74 19.21C8.87165 19.517 7.94728 19.633 7.03 19.55C6.89 19.55 6.86 19.55 6.82 19.55C6.78 19.55 6.82 19.61 6.82 19.65C6.82 19.69 7.19 19.88 7.38 19.99C7.95587 20.294 8.56267 20.5354 9.19 20.71C10.8068 21.1977 12.5234 21.2521 14.1678 20.8677C15.8122 20.4834 17.3268 19.6738 18.56 18.52C19.4474 17.5576 20.1336 16.4275 20.5784 15.1963C21.0231 13.9651 21.2175 12.6574 21.15 11.35C21.15 11.25 21.27 11.19 21.35 11.13C21.8372 10.7562 22.2653 10.3112 22.62 9.81C22.675 9.73793 22.7065 9.65062 22.71 9.56C22.71 9.56 22.76 9.58 22.7 9.61Z" fill="white"/>
</g>
<defs>
<linearGradient id="paint0_linear_1473_792" x1="24.96" y1="4.28" x2="4.28" y2="24.96" gradientUnits="userSpaceOnUse">
<stop stop-color="#33CCFF"/>
<stop offset="1" stop-color="#337FFF"/>
</linearGradient>
<clipPath id="clip0_1473_792">
<rect width="29.24" height="29.24" fill="white"/>
</clipPath>
</defs>
</svg>
