<svg width="30" height="30" viewBox="0 0 30 30" fill="none" xmlns="http://www.w3.org/2000/svg">
<g clip-path="url(#clip0_1473_787)">
<path d="M14.62 29.24C22.6944 29.24 29.24 22.6944 29.24 14.62C29.24 6.5456 22.6944 0 14.62 0C6.5456 0 0 6.5456 0 14.62C0 22.6944 6.5456 29.24 14.62 29.24Z" fill="url(#paint0_linear_1473_787)"/>
<path d="M22.45 12.5C22.4447 11.5716 22.0729 10.683 21.4155 10.0274C20.7581 9.3719 19.8684 9.00263 18.94 9.00001H10C9.5369 8.99605 9.07758 9.08352 8.64835 9.25739C8.21912 9.43127 7.82842 9.68814 7.49864 10.0133C7.16886 10.3384 6.90648 10.7254 6.72653 11.1521C6.54658 11.5789 6.45261 12.0369 6.45 12.5V16.67C6.44997 17.1343 6.54206 17.594 6.72095 18.0225C6.89984 18.451 7.16197 18.8397 7.49215 19.1662C7.82234 19.4927 8.21401 19.7504 8.64449 19.9244C9.07497 20.0984 9.5357 20.1853 10 20.18H19C19.9309 20.18 20.8237 19.8102 21.4819 19.152C22.1402 18.4937 22.51 17.6009 22.51 16.67L22.45 12.5ZM17.17 14.9L13.17 16.9C13.02 16.98 12.48 16.9 12.48 16.69V12.59C12.48 12.41 13.02 12.3 13.18 12.39L17 14.48C17.16 14.58 17.33 14.81 17.17 14.9Z" fill="white"/>
</g>
<defs>
<linearGradient id="paint0_linear_1473_787" x1="24.96" y1="4.28" x2="4.28" y2="24.96" gradientUnits="userSpaceOnUse">
<stop stop-color="#FF0000"/>
<stop offset="1" stop-color="#850000"/>
</linearGradient>
<clipPath id="clip0_1473_787">
<rect width="29.24" height="29.24" fill="white"/>
</clipPath>
</defs>
</svg>
