<svg width="48" height="32" viewBox="0 0 48 32" fill="none" xmlns="http://www.w3.org/2000/svg">
<g clip-path="url(#clip0_1382_2596)">
<path d="M0 4C0 1.79086 1.79086 0 4 0H44C46.2091 0 48 1.79086 48 4V28C48 30.2091 46.2091 32 44 32H4C1.79086 32 0 30.2091 0 28V4Z" fill="white"/>
<path d="M35.4228 9.87066L34.494 11.9181H36.3566L35.4228 9.87066ZM24.7056 11.1394C24.8807 11.0563 24.9838 10.8756 24.9838 10.6511C24.9838 10.4312 24.8755 10.2719 24.7004 10.1971C24.541 10.1141 24.2957 10.1045 24.0605 10.1045H22.3989V11.2453H24.0382C24.3007 11.2453 24.5201 11.2418 24.7056 11.1394ZM3.41468 9.87066L2.49645 11.9181H4.33846L3.41468 9.87066ZM46.1664 22.9869H43.5605V21.8853H46.1559C46.4132 21.8853 46.5933 21.8546 46.7018 21.7581C46.8044 21.672 46.8624 21.5503 46.8613 21.4231C46.8613 21.2734 46.796 21.1546 46.6964 21.0835C46.5987 21.005 46.456 20.9693 46.221 20.9693C44.954 20.9302 43.3733 21.0049 43.3733 19.3793C43.3733 18.6343 43.8934 17.8501 45.3094 17.8501H47.9973V16.828H45.5C44.7464 16.828 44.1988 16.9922 43.8112 17.2476V16.828H40.1174C39.5269 16.828 38.8335 16.9611 38.5057 17.2476V16.828H31.9092V17.2476C31.3843 16.903 30.4984 16.828 30.0898 16.828H25.7388V17.2476C25.3236 16.8817 24.3998 16.828 23.8371 16.828H18.9676L17.8535 17.925L16.8099 16.828H9.53586V23.9964H16.6726L17.8207 22.8818L18.9022 23.9964L23.3013 23.9999V22.3136H23.734C24.3176 22.3222 25.006 22.3006 25.6135 22.0617V23.9962H29.242V22.1278H29.417C29.6403 22.1278 29.6625 22.1363 29.6625 22.3393V23.9958H40.6855C41.3853 23.9958 42.1169 23.833 42.5219 23.5369V23.9958H46.0184C46.7459 23.9958 47.4565 23.903 47.9971 23.6654V22.3301C47.6695 22.7661 47.0305 22.9872 46.1663 22.9872L46.1664 22.9869ZM23.7917 21.2943H22.108V23.0173H19.4853L17.8237 21.3168L16.097 23.0173H10.7521V17.8803H16.1793L17.8394 19.5642L19.5557 17.8803H23.8674C24.9383 17.8803 26.1415 18.1501 26.1415 19.5727C26.1415 20.9997 24.9712 21.2943 23.7917 21.2943ZM31.8879 21.0614C32.0785 21.3121 32.106 21.5462 32.1116 21.999V23.0174H30.7567V22.3747C30.7567 22.0657 30.7895 21.6081 30.5386 21.3692C30.3417 21.1852 30.041 21.1413 29.5485 21.1413H28.1065V23.0174H26.7508V17.8804H29.8659C30.5493 17.8804 31.0467 17.908 31.4896 18.1228C31.9154 18.3568 32.1834 18.6775 32.1834 19.2635C32.1833 20.0834 31.5822 20.5016 31.227 20.6302C31.5272 20.731 31.7727 20.9117 31.8879 21.0614ZM37.4619 18.9427H34.3021V19.8766H37.3847V20.9248H34.3021V21.9468L37.4619 21.9514V23.0173H32.9583V17.8803H37.4619V18.9427ZM40.9293 23.0173H38.3012V21.9157H40.9188C41.1748 21.9157 41.3563 21.8849 41.47 21.7884C41.5628 21.709 41.6295 21.5935 41.6295 21.4536C41.6295 21.3038 41.5572 21.185 41.4648 21.1137C41.3615 21.0354 41.2191 20.9999 40.9842 20.9999C39.7223 20.9605 38.142 21.0352 38.142 19.4098C38.142 18.6647 38.6566 17.8804 40.0712 17.8804H42.7765V18.9736H40.3011C40.0557 18.9736 39.8962 18.9821 39.7606 19.0666C39.6126 19.1498 39.5578 19.2732 39.5578 19.436C39.5578 19.6298 39.6833 19.7617 39.853 19.8187C39.9954 19.8637 40.1482 19.8769 40.3781 19.8769L41.1046 19.895C41.8369 19.9109 42.3399 20.0264 42.6456 20.3079C42.9081 20.5552 43.0492 20.8676 43.0492 21.3962C43.0491 22.5014 42.2901 23.0173 40.9293 23.0173ZM30.4638 19.0256C30.3008 18.9375 30.0602 18.9328 29.8201 18.9328H28.1584V20.0865H29.7978C30.0603 20.0865 30.2835 20.078 30.4638 19.9806C30.6387 19.8844 30.7434 19.7073 30.7434 19.4876C30.7434 19.2679 30.6387 19.1088 30.4638 19.0256ZM45.5405 18.9327C45.295 18.9327 45.1318 18.9412 44.9944 19.0255C44.852 19.1088 44.7974 19.2322 44.7974 19.3951C44.7974 19.5888 44.9176 19.7207 45.0924 19.7778C45.2349 19.8228 45.3875 19.836 45.6123 19.836L46.3438 19.8537C47.0817 19.8704 47.5745 19.9859 47.8749 20.2674C47.9296 20.3064 47.9624 20.3504 48 20.3944V18.9328H45.5406L45.5405 18.9327ZM23.8384 18.9327H22.079V20.241H23.8228C24.3412 20.241 24.6636 20.007 24.6639 19.5626C24.6636 19.1134 24.3256 18.9327 23.8384 18.9327ZM12.096 18.9327V19.8667H15.0583V20.9148H12.096V21.9368H15.4136L16.955 20.4298L15.4791 18.9327H12.096ZM20.759 22.525V18.4066L18.6873 20.4327L20.759 22.525ZM12.2093 14.2774V15.1625H23.4827L23.4775 13.29H23.6957C23.8485 13.2948 23.8929 13.3076 23.8929 13.5371V15.1626H29.7237V14.7266C30.194 14.9559 30.9254 15.1626 31.8879 15.1626H34.3409L34.8659 14.0218H36.0298L36.5432 15.1626H41.2701V14.079L41.9857 15.1625H45.7738V7.99991H42.0251V8.84583L41.5002 7.99991H37.6535V8.84583L37.1715 7.99991H31.9754C31.1056 7.99991 30.3412 8.11034 29.7236 8.41816V7.99991H26.1378V8.41816C25.7448 8.10088 25.2092 7.99991 24.614 7.99991H11.514L10.6351 9.84998L9.73242 7.99991H5.60636V8.84583L5.153 7.99991H1.63415L8.42492e-05 11.4056V14.1297L2.41638 8.99389H4.42129L6.71611 13.8564V8.99389H8.91855L10.6844 12.4779L12.3068 8.99389H14.5534V14.1297H13.1703L13.1652 10.1074L11.2085 14.1297H10.0237L8.06204 10.1039V14.1297H5.31737L4.7989 12.9841H1.98936L1.46553 14.1297H2.27094e-05V15.1629H2.30567L2.8255 14.0221H3.98946L4.50794 15.1629H9.04422V14.2907L9.44909 15.1665H11.804L12.2089 14.2775L12.2093 14.2774ZM29.974 9.59253C30.41 9.18263 31.0933 8.9936 32.0231 8.9936H33.3294V10.094H32.0505C31.5583 10.094 31.28 10.1607 31.0123 10.3984C30.7821 10.6146 30.6243 11.0234 30.6243 11.5616C30.6243 12.1119 30.7446 12.5086 30.9953 12.7677C31.203 12.9709 31.5807 13.0326 31.9358 13.0326H32.542L34.4437 8.99378H36.4655L38.7501 13.8515V8.99384H40.8047L43.1766 12.5706V8.99384H44.5588V14.1295H42.6466L40.0889 10.2748V14.1295H37.3408L36.8157 12.9839H34.0126L33.5032 14.1295H31.924C31.2682 14.1295 30.4378 13.9975 29.9675 13.5614C29.4932 13.1254 29.2467 12.5347 29.2467 11.6008C29.2464 10.8391 29.3937 10.1428 29.974 9.59253ZM27.1985 8.99366H28.5752V14.1295H27.1985V8.99366ZM20.9909 8.99366H24.0945C24.7839 8.99366 25.2923 9.01031 25.7286 9.23966C26.1554 9.46906 26.4114 9.80399 26.4114 10.3767C26.4114 11.1957 25.8106 11.6187 25.4607 11.7457C25.7558 11.848 26.0082 12.0286 26.1283 12.1782C26.3189 12.4337 26.3517 12.6618 26.3517 13.1205V14.1294H24.9907L24.9856 13.4818C24.9856 13.1727 25.0181 12.7282 24.7726 12.4813C24.5755 12.3007 24.2749 12.2614 23.789 12.2614H22.3405V14.1295H20.9911L20.9909 8.99366ZM15.5513 8.99366H20.059V10.0631H16.9008V10.9889H19.9832V12.0416H16.9008V13.0673H20.059V14.1294H15.5513V8.99366Z" fill="#2557D6"/>
</g>
<defs>
<clipPath id="clip0_1382_2596">
<rect width="48" height="32" fill="white"/>
</clipPath>
</defs>
</svg>
