<svg width="48" height="32" viewBox="0 0 48 32" fill="none" xmlns="http://www.w3.org/2000/svg">
<g clip-path="url(#clip0_1382_2593)">
<path d="M0 4C0 1.79086 1.79086 0 4 0H44C46.2091 0 48 1.79086 48 4V28C48 30.2091 46.2091 32 44 32H4C1.79086 32 0 30.2091 0 28V4Z" fill="white"/>
<path d="M37.2104 25.1287C39.0539 25.1287 39.9216 24.4252 40.6796 22.293L43.9999 12.98H42.0775L39.8509 20.1851H39.8119L37.5853 12.9897H35.6083L38.8116 21.8538L38.64 22.393C38.5188 23.1647 37.826 23.7153 37.0461 23.6584C36.8973 23.6584 36.6086 23.6429 36.4915 23.6275V25.0913C36.7297 25.1238 36.9705 25.1392 37.2104 25.1384V25.1287ZM30.8038 20.4648C29.7954 20.4648 29.1554 19.9769 29.1554 19.2385C29.1554 18.4733 29.7726 18.0276 30.9526 17.9569L33.054 17.8243V18.5123C33.0076 19.6459 32.0505 20.5283 30.9168 20.4819C30.8786 20.4803 30.8412 20.477 30.8038 20.4738V20.4648ZM30.2964 21.9099C31.4406 21.9408 32.5108 21.3447 33.0857 20.3551H33.1247V21.8189H34.8748V15.7563C34.8748 13.9981 33.4687 12.8653 31.3039 12.8653C29.2961 12.8653 27.8112 14.0136 27.7567 15.592H29.4604C29.6637 14.7894 30.4265 14.26 31.2494 14.3494C32.4058 14.3494 33.054 14.8886 33.054 15.8807V16.5524L30.6956 16.6931C28.5 16.8257 27.3126 17.7243 27.3126 19.2873C27.311 20.8723 28.5374 21.9189 30.2955 21.9189L30.2964 21.9099ZM20.1547 11.2299H22.3341C23.9752 11.2299 24.9128 12.1049 24.9128 13.6444C24.9128 15.1838 23.9752 16.0661 22.3268 16.0661H20.1547V11.2299ZM18.2639 9.636V21.8164H20.1547V17.6641H22.7724C24.9047 17.7788 26.7255 16.1434 26.8402 14.0111C26.8467 13.89 26.8475 13.7696 26.8426 13.6484C26.9434 11.5397 25.3162 9.74904 23.2075 9.64739C23.0831 9.64169 22.9595 9.64251 22.8351 9.6482L18.2639 9.636ZM11.9883 11.909C10.9019 11.8463 9.97234 12.5262 9.45676 12.5262C8.94118 12.5262 8.14422 11.9407 7.28465 11.9569C6.14614 11.9862 5.10847 12.6165 4.55792 13.6135C3.38607 15.6294 4.25296 18.614 5.38578 20.2542C5.94039 21.0674 6.60561 21.9579 7.47982 21.9262C8.30768 21.8953 8.63622 21.387 9.63648 21.387C10.6367 21.387 10.9336 21.9262 11.8086 21.9099C12.7145 21.8945 13.2854 21.0967 13.8416 20.2835C14.2336 19.7077 14.5386 19.0775 14.7476 18.4131C13.6798 17.9463 12.9878 16.8948 12.9821 15.7295C12.9983 14.7016 13.5367 13.7533 14.4117 13.2142C13.8538 12.4221 12.9585 11.9358 11.9899 11.9016L11.9883 11.909ZM11.3101 10.8331C10.8344 11.4324 10.1065 11.7764 9.34128 11.7626C9.29249 11.016 9.54622 10.2817 10.0447 9.72383C10.5408 9.14807 11.2402 8.787 11.9964 8.71625C12.0501 9.48393 11.8037 10.2418 11.3085 10.8306" fill="black"/>
</g>
<defs>
<clipPath id="clip0_1382_2593">
<rect width="48" height="32" fill="white"/>
</clipPath>
</defs>
</svg>
