<svg width="48" height="32" viewBox="0 0 48 32" fill="none" xmlns="http://www.w3.org/2000/svg">
<g clip-path="url(#clip0_1382_2600)">
<path d="M0 4C0 1.79086 1.79086 0 4 0H44C46.2091 0 48 1.79086 48 4V28C48 30.2091 46.2091 32 44 32H4C1.79086 32 0 30.2091 0 28V4Z" fill="white"/>
<path d="M28.5803 15.982C28.584 15.1223 28.2616 14.2613 27.6129 13.6125C26.9628 12.9624 26.0997 12.6403 25.2382 12.6455C25.2341 12.6455 25.23 12.6452 25.2258 12.6452C23.355 12.6452 21.8711 14.1287 21.8711 16C21.8711 17.8528 23.3733 19.3546 25.2258 19.3546C27.0971 19.3546 28.5808 17.8708 28.5808 16C28.5808 15.9939 28.5803 15.9881 28.5803 15.982Z" fill="#F26E21"/>
<path d="M21.2473 17.4191C20.7459 17.921 20.2831 18.1172 19.7847 18.1278C18.5703 18.1169 17.6775 17.2176 17.6775 15.9354C17.6775 15.29 17.9218 14.761 18.309 14.3091C18.672 13.9644 19.1397 13.7418 19.6775 13.7418C20.2581 13.7418 20.7099 13.9353 21.2256 14.4514V12.9676C20.7099 12.7097 20.258 12.5806 19.6775 12.5806C18.8574 12.6392 18.0841 12.9705 17.491 13.4909C17.3201 13.6447 17.1563 13.8145 17.0173 14.0088C16.5841 14.5703 16.3222 15.2579 16.3222 16.0002C16.3222 17.8708 17.8066 19.2901 19.6774 19.2901C19.6865 19.2901 19.6955 19.2893 19.7044 19.2892C19.7169 19.2894 19.7293 19.2901 19.7418 19.2901C20.2579 19.2901 20.7099 19.1614 21.2904 18.9033L21.2473 17.4191C21.2255 17.4409 21.2689 17.4611 21.2473 17.4817V17.4191Z" fill="#2B2B2B"/>
<path d="M32.816 13.5045L31.3549 17.0966L29.6774 12.8383H28.3228L30.9678 19.3544H31.6774L34.4516 12.8383H33.097L32.816 13.5045Z" fill="#2B2B2B"/>
<path d="M34.9679 15.6771V19.1612H38.4519H38.5161V18.1285H37.4195H36.2582V16.9675V16.3871H38.4519V15.2899H36.2582V13.9352H38.5161V12.8383H34.9679V15.6771Z" fill="#2B2B2B"/>
<path d="M5.80678 12.8383H4V19.1612H5.80669C6.77427 19.1612 7.48383 18.9029 8.06447 18.4512C8.77403 17.8706 9.22584 16.9676 9.22584 16C9.22593 14.1286 7.87086 12.8383 5.80678 12.8383ZM7.29049 17.6128C6.90337 17.9352 6.38724 18.1285 5.61299 18.1285H5.22587V13.9351H5.5484C6.32264 13.9351 6.83878 14.0642 7.22599 14.4511C7.67753 14.838 7.93573 15.419 7.93573 15.9998C8.00023 16.5804 7.74221 17.2253 7.29049 17.6128Z" fill="#2B2B2B"/>
<path d="M11.0327 12.8378H9.80692V19.1605H11.0327V12.8378Z" fill="#2B2B2B"/>
<path d="M14.1291 15.29C13.3551 15.032 13.1613 14.8383 13.1613 14.5158C13.1613 14.1287 13.5484 13.8062 14.0645 13.8062C14.4517 13.8062 14.7742 13.9353 15.0968 14.3224L15.7421 13.4838C15.2258 13.032 14.5809 12.7742 13.8712 12.7742C12.7742 12.7742 11.8709 13.5484 11.8709 14.5804C11.8709 15.4838 12.2584 15.8708 13.4195 16.3224C13.9356 16.5157 14.1292 16.5805 14.2585 16.7095C14.5161 16.8383 14.6454 17.0966 14.6454 17.3544C14.6454 17.8706 14.2585 18.2578 13.6775 18.2578C13.0963 18.2578 12.5806 17.9353 12.3225 17.419L11.5483 18.1933C12.1292 19.0319 12.8388 19.419 13.7421 19.419C15.0323 19.419 15.9351 18.5803 15.9351 17.3544C15.9353 16.2579 15.5485 15.8062 14.1291 15.29Z" fill="#2B2B2B"/>
<path d="M42.0002 16.5156C42.9676 16.3224 43.484 15.677 43.484 14.7095C43.484 13.5484 42.6451 12.8383 41.226 12.8383H39.3549V19.1612H40.5807V16.6447H40.7745L42.5159 19.1612H44L42.0002 16.5156ZM40.9676 15.7414H40.5808V13.8061H40.9676C41.7419 13.8061 42.1937 14.1286 42.1937 14.7742C42.1937 15.419 41.742 15.7414 40.9676 15.7414Z" fill="#2B2B2B"/>
</g>
<defs>
<clipPath id="clip0_1382_2600">
<rect width="48" height="32" fill="white"/>
</clipPath>
</defs>
</svg>
