<svg width="48" height="32" viewBox="0 0 48 32" fill="none" xmlns="http://www.w3.org/2000/svg">
<g clip-path="url(#clip0_1382_2582)">
<path d="M0 4C0 1.79086 1.79086 0 4 0H44C46.2091 0 48 1.79086 48 4V28C48 30.2091 46.2091 32 44 32H4C1.79086 32 0 30.2091 0 28V4Z" fill="white"/>
<path d="M22.9173 17.0753V21.699H21.4402V10.2804H25.3577C25.8253 10.2707 26.2902 10.353 26.7256 10.5227C27.161 10.6924 27.5582 10.946 27.8944 11.2689C28.234 11.5722 28.5042 11.9442 28.687 12.3599C28.8697 12.7755 28.9608 13.2252 28.954 13.6787C28.9638 14.1347 28.8741 14.5873 28.6912 15.0056C28.5083 15.4239 28.2365 15.798 27.8944 16.1022C27.2094 16.7509 26.3638 17.075 25.3577 17.0744H22.9173V17.0753ZM22.9173 11.6862V15.6722H25.3944C25.6659 15.6802 25.9362 15.6318 26.1878 15.5301C26.4395 15.4285 26.667 15.2758 26.8559 15.0818C27.0437 14.9004 27.193 14.6835 27.295 14.4438C27.3969 14.2042 27.4495 13.9467 27.4495 13.6865C27.4495 13.4263 27.3969 13.1688 27.295 12.9291C27.193 12.6894 27.0437 12.4725 26.8559 12.2911C26.6694 12.0931 26.4427 11.9366 26.1907 11.8322C25.9387 11.7277 25.6673 11.6776 25.3944 11.6853H22.9173V11.6862Z" fill="#5F6368"/>
<path d="M32.3578 13.6317C33.4496 13.6317 34.3113 13.9215 34.9431 14.5009C35.575 15.0804 35.8906 15.8748 35.8899 16.8843V21.6994H34.4771V20.6152H34.4129C33.8012 21.5081 32.9878 21.9545 31.9725 21.9545C31.1058 21.9545 30.3807 21.6994 29.7972 21.1892C29.5172 20.9551 29.2933 20.6618 29.1419 20.3308C28.9905 19.9998 28.9154 19.6394 28.922 19.2759C28.922 18.4675 29.2296 17.8246 29.8449 17.3472C30.4602 16.8698 31.2817 16.6304 32.3092 16.6292C33.1863 16.6292 33.9086 16.7887 34.4762 17.1075V16.7723C34.4778 16.5245 34.424 16.2794 34.3184 16.0548C34.2129 15.8303 34.0584 15.6319 33.8661 15.474C33.4755 15.124 32.9664 14.933 32.4404 14.9392C31.6153 14.9392 30.9624 15.2848 30.4816 15.976L29.1807 15.1624C29.8963 14.142 30.9554 13.6317 32.3578 13.6317ZM30.4468 19.3078C30.4458 19.4945 30.4897 19.6787 30.575 19.8451C30.6602 20.0115 30.7842 20.1553 30.9367 20.2645C31.2634 20.5197 31.6688 20.6548 32.0844 20.6471C32.7077 20.6461 33.3052 20.3997 33.7459 19.962C34.2352 19.5046 34.4798 18.968 34.4798 18.3521C34.0193 17.9877 33.3771 17.8054 32.5532 17.8054C31.9532 17.8054 31.4529 17.9491 31.0523 18.2364C30.6477 18.5279 30.4468 18.8823 30.4468 19.3078Z" fill="#5F6368"/>
<path d="M44.0001 13.8866L39.0679 25.1431H37.5431L39.3734 21.2044L36.1303 13.8866H37.7358L40.0798 19.4989H40.112L42.3918 13.8866H44.0001Z" fill="#5F6368"/>
<path d="M16.9485 16.0786C16.9491 15.6316 16.911 15.1853 16.8347 14.7448H10.6053V17.2712H14.1733C14.1002 17.6747 13.9457 18.0594 13.719 18.402C13.4922 18.7446 13.198 19.038 12.854 19.2647V20.9046H14.9834C16.2302 19.763 16.9485 18.0748 16.9485 16.0786Z" fill="#4285F4"/>
<path d="M10.6053 22.489C12.3879 22.489 13.8888 21.9077 14.9834 20.9055L12.854 19.2656C12.2613 19.6646 11.498 19.8924 10.6053 19.8924C8.88239 19.8924 7.41999 18.7389 6.89705 17.1846H4.70346V18.8747C5.25325 19.9612 6.09629 20.8745 7.13847 21.5127C8.18065 22.1509 9.38094 22.4889 10.6053 22.489Z" fill="#34A853"/>
<path d="M6.897 17.1849C6.62054 16.3705 6.62054 15.4885 6.897 14.674V12.9839H4.7034C4.2409 13.8979 4.00003 14.9066 4.00003 15.9295C4.00003 16.9523 4.2409 17.9611 4.7034 18.875L6.897 17.1849Z" fill="#FBBC04"/>
<path d="M10.6053 11.9662C11.5474 11.9509 12.4576 12.3043 13.1393 12.9501L15.0246 11.0779C13.8291 9.96276 12.2454 9.35055 10.6053 9.36957C9.38094 9.36963 8.18065 9.70763 7.13847 10.3459C6.09629 10.9841 5.25325 11.8974 4.70346 12.9839L6.89705 14.6739C7.41999 13.1196 8.88239 11.9662 10.6053 11.9662Z" fill="#EA4335"/>
</g>
<defs>
<clipPath id="clip0_1382_2582">
<rect width="48" height="32" fill="white"/>
</clipPath>
</defs>
</svg>
