<svg width="48" height="32" viewBox="0 0 48 32" fill="none" xmlns="http://www.w3.org/2000/svg">
<g clip-path="url(#clip0_1382_2576)">
<path d="M0 4C0 1.79086 1.79086 0 4 0H44C46.2091 0 48 1.79086 48 4V28C48 30.2091 46.2091 32 44 32H4C1.79086 32 0 30.2091 0 28V4Z" fill="white"/>
<path d="M29.2488 25.4358H18.7498V6.56726H29.2488V25.4358Z" fill="#6C6BBD"/>
<path d="M19.4223 15.9999C19.4223 12.1724 21.2144 8.76286 24.0052 6.56565C21.9644 4.95893 19.3888 3.99994 16.5896 3.99994C9.96287 3.99994 4.59114 9.37243 4.59114 15.9999C4.59114 22.6274 9.96287 27.9999 16.5896 27.9999C19.3888 27.9999 21.9644 27.0409 24.0052 25.4342C21.2144 23.237 19.4223 19.8275 19.4223 15.9999Z" fill="#EB001B"/>
<path d="M43.4086 15.9999C43.4086 22.6274 38.0369 27.9999 31.4102 27.9999C28.611 27.9999 26.0354 27.0409 23.9938 25.4342C26.7853 23.237 28.5774 19.8275 28.5774 15.9999C28.5774 12.1724 26.7853 8.76286 23.9938 6.56565C26.0354 4.95893 28.611 3.99994 31.4102 3.99994C38.0369 3.99994 43.4086 9.37243 43.4086 15.9999Z" fill="#0099DF"/>
</g>
<defs>
<clipPath id="clip0_1382_2576">
<rect width="48" height="32" fill="white"/>
</clipPath>
</defs>
</svg>
