<svg width="48" height="32" viewBox="0 0 48 32" fill="none" xmlns="http://www.w3.org/2000/svg">
<g clip-path="url(#clip0_1382_2569)">
<path d="M0 4C0 1.79086 1.79086 0 4 0H44C46.2091 0 48 1.79086 48 4V28C48 30.2091 46.2091 32 44 32H4C1.79086 32 0 30.2091 0 28V4Z" fill="white"/>
<path d="M29.004 6.52746L18.6791 6.56253L18.9962 25.4728L29.3211 25.4377L29.004 6.52746Z" fill="#FF5F00"/>
<path d="M19.3574 16.0563C19.2927 12.2101 21.0144 8.79265 23.7118 6.57599C21.675 4.97741 19.1218 4.01606 16.3542 4.02543C9.79782 4.04761 4.58403 9.45029 4.69609 16.106C4.80814 22.7616 10.2032 28.1284 16.7597 28.1062C19.5272 28.0969 22.0478 27.1184 24.0305 25.5062C21.2593 23.3415 19.4222 19.9026 19.3574 16.0563Z" fill="#EB001B"/>
<path d="M43.304 15.8944C43.4161 22.5501 38.2023 27.9528 31.6459 27.975C28.8783 27.9843 26.3251 27.023 24.2883 25.4244C27.0187 23.2076 28.7074 19.7903 28.6427 15.944C28.5779 12.0978 26.7413 8.69238 23.9696 6.49423C25.9523 4.88204 28.4729 3.90353 31.2404 3.89417C37.7969 3.87199 43.1925 9.27222 43.304 15.8944Z" fill="#F79E1B"/>
</g>
<defs>
<clipPath id="clip0_1382_2569">
<rect width="48" height="32" fill="white"/>
</clipPath>
</defs>
</svg>
