<svg width="48" height="32" viewBox="0 0 48 32" fill="none" xmlns="http://www.w3.org/2000/svg">
<g clip-path="url(#clip0_1382_2560)">
<path d="M0 4C0 1.79086 1.79086 0 4 0H44C46.2091 0 48 1.79086 48 4V28C48 30.2091 46.2091 32 44 32H4C1.79086 32 0 30.2091 0 28V4Z" fill="white"/>
<path d="M10.7709 11.5174C10.2695 11.1727 9.61529 10.9999 8.80818 10.9999H5.68347C5.43604 10.9999 5.29935 11.1237 5.27338 11.3709L4.00406 19.3388C3.99087 19.417 4.01045 19.4886 4.06262 19.5537C4.11449 19.6189 4.17974 19.6513 4.25788 19.6513H5.74209C6.00241 19.6513 6.1455 19.5278 6.17176 19.2803L6.52324 17.1322C6.53607 17.0281 6.58186 16.9434 6.66 16.8782C6.73808 16.8132 6.83573 16.7706 6.95291 16.7511C7.07009 16.7318 7.18058 16.722 7.28493 16.722C7.38897 16.722 7.5126 16.7286 7.65604 16.7416C7.79912 16.7545 7.89034 16.7609 7.92944 16.7609C9.04904 16.7609 9.92785 16.4454 10.5659 15.8138C11.2037 15.1825 11.5229 14.307 11.5229 13.187C11.5229 12.4189 11.272 11.8624 10.7709 11.5172V11.5174ZM9.15983 13.9099C9.09453 14.3656 8.92548 14.6649 8.65208 14.8082C8.37863 14.9516 7.98805 15.023 7.48036 15.023L6.83585 15.0425L7.16793 12.9528C7.19383 12.8097 7.27842 12.7381 7.42174 12.7381H7.79292C8.31344 12.7381 8.69124 12.8131 8.9256 12.9626C9.15983 13.1124 9.23797 13.4283 9.15983 13.9099Z" fill="#003087"/>
<path d="M43.7459 11.0001H42.3009C42.1573 11.0001 42.0728 11.0717 42.047 11.215L40.7775 19.3393L40.758 19.3783C40.758 19.4438 40.784 19.5053 40.8362 19.5639C40.888 19.6224 40.9534 19.6517 41.0314 19.6517H42.3206C42.5675 19.6517 42.7043 19.5283 42.7307 19.2807L44 11.2932V11.2738C44 11.0914 43.9151 11.0003 43.7459 11.0003V11.0001Z" fill="#009CDE"/>
<path d="M26.2869 14.1449C26.2869 14.0799 26.2608 14.0179 26.209 13.9595C26.1568 13.9009 26.0982 13.8715 26.0332 13.8715H24.5295C24.386 13.8715 24.2688 13.9369 24.1778 14.0667L22.1077 17.1134L21.2485 14.184C21.183 13.9759 21.04 13.8715 20.8188 13.8715H19.3539C19.2887 13.8715 19.2301 13.9008 19.1783 13.9595C19.1261 14.0179 19.1002 14.08 19.1002 14.1449C19.1002 14.1711 19.2272 14.555 19.481 15.2971C19.7348 16.0395 20.0082 16.8402 20.3012 17.6995C20.5942 18.5587 20.747 19.0146 20.7601 19.0663C19.6924 20.5247 19.1588 21.3058 19.1588 21.4098C19.1588 21.5792 19.2433 21.6637 19.4127 21.6637H20.9164C21.0596 21.6637 21.1767 21.5988 21.268 21.4686L26.2481 14.2815C26.2739 14.2557 26.2869 14.2103 26.2869 14.1448V14.1449Z" fill="#003087"/>
<path d="M40.2896 13.8712H38.8054C38.6229 13.8712 38.5126 14.0861 38.4735 14.5158C38.1346 13.9951 37.5166 13.7345 36.6181 13.7345C35.6807 13.7345 34.8832 14.0861 34.2258 14.7891C33.5683 15.4922 33.2396 16.3192 33.2396 17.2695C33.2396 18.0378 33.4642 18.6497 33.9133 19.1052C34.3625 19.5612 34.9645 19.7888 35.7199 19.7888C36.0974 19.7888 36.4815 19.7105 36.8721 19.5544C37.2626 19.3982 37.5683 19.19 37.7901 18.9295C37.7901 18.9425 37.7768 19.0009 37.751 19.105C37.7247 19.2094 37.7119 19.2877 37.7119 19.3394C37.7119 19.548 37.7963 19.6518 37.9658 19.6518H39.3134C39.5605 19.6518 39.7039 19.5284 39.7428 19.2808L40.5436 14.1836C40.5565 14.1054 40.537 14.0339 40.485 13.9688C40.4327 13.9038 40.3677 13.8712 40.2896 13.8712ZM37.7411 17.7186C37.4091 18.0442 37.0087 18.2068 36.54 18.2068C36.1623 18.2068 35.8566 18.1028 35.6222 17.8944C35.3877 17.6865 35.2705 17.4001 35.2705 17.0351C35.2705 16.5537 35.4333 16.1465 35.7589 15.8145C36.0839 15.4825 36.4879 15.3166 36.9697 15.3166C37.3339 15.3166 37.6367 15.424 37.8778 15.6387C38.1184 15.8536 38.2392 16.1498 38.2392 16.5275C38.2391 16.9961 38.0731 17.3933 37.7411 17.7186Z" fill="#009CDE"/>
<path d="M18.104 13.8712H16.6197C16.4372 13.8712 16.3268 14.0861 16.2877 14.5158C15.9361 13.9951 15.3177 13.7345 14.4323 13.7345C13.4949 13.7345 12.6974 14.0861 12.04 14.7891C11.3824 15.4922 11.0538 16.3192 11.0538 17.2695C11.0538 18.0378 11.2784 18.6497 11.7276 19.1052C12.1768 19.5612 12.7788 19.7888 13.534 19.7888C13.8984 19.7888 14.2762 19.7105 14.6667 19.5544C15.0573 19.3982 15.3698 19.19 15.6041 18.9295C15.5519 19.0856 15.526 19.2223 15.526 19.3394C15.526 19.548 15.6106 19.6518 15.7799 19.6518H17.1274C17.3746 19.6518 17.5179 19.5284 17.557 19.2808L18.3577 14.1836C18.3705 14.1054 18.3511 14.0339 18.2991 13.9688C18.247 13.9038 18.182 13.8712 18.104 13.8712ZM15.5554 17.7283C15.2233 18.0477 14.8163 18.2068 14.3349 18.2068C13.9571 18.2068 13.6544 18.1028 13.4267 17.8944C13.1987 17.6865 13.0849 17.4001 13.0849 17.0351C13.0849 16.5537 13.2476 16.1465 13.5732 15.8145C13.8985 15.4825 14.3021 15.3165 14.784 15.3165C15.1484 15.3165 15.4511 15.424 15.6922 15.6387C15.9329 15.8536 16.0534 16.1498 16.0534 16.5275C16.0534 17.0092 15.8874 17.4097 15.5554 17.7283Z" fill="#003087"/>
<path d="M32.9563 11.5175C32.455 11.1728 31.801 11.0001 30.9937 11.0001H27.8884C27.628 11.0001 27.4847 11.1238 27.4588 11.3711L26.1894 19.3389C26.1762 19.4172 26.1958 19.4888 26.248 19.5538C26.2996 19.619 26.3651 19.6514 26.4432 19.6514H28.0445C28.2007 19.6514 28.3048 19.5669 28.3571 19.3976L28.7086 17.1323C28.7216 17.0282 28.7671 16.9436 28.8454 16.8784C28.9235 16.8133 29.021 16.7708 29.1383 16.7513C29.2554 16.7319 29.3659 16.7222 29.4703 16.7222C29.5744 16.7222 29.698 16.7288 29.8413 16.7417C29.9844 16.7547 30.0759 16.7611 30.1147 16.7611C31.2345 16.7611 32.1131 16.4456 32.7512 15.8139C33.3892 15.1826 33.7081 14.3072 33.7081 13.1872C33.7082 12.4191 33.4574 11.8625 32.9563 11.5173V11.5175ZM30.9546 14.7301C30.6682 14.9254 30.2384 15.023 29.6657 15.023L29.0407 15.0426L29.3727 12.9528C29.3985 12.8098 29.4831 12.7381 29.6265 12.7381H29.9779C30.2644 12.7381 30.4922 12.7511 30.6617 12.7771C30.8306 12.8032 30.9937 12.8845 31.1499 13.0211C31.3062 13.1579 31.3842 13.3565 31.3842 13.6168C31.3842 14.1638 31.2409 14.5347 30.9546 14.7301Z" fill="#009CDE"/>
</g>
<defs>
<clipPath id="clip0_1382_2560">
<rect width="48" height="32" fill="white"/>
</clipPath>
</defs>
</svg>
