<svg width="48" height="32" viewBox="0 0 48 32" fill="none" xmlns="http://www.w3.org/2000/svg">
<g clip-path="url(#clip0_1382_2552)">
<path d="M0 4C0 1.79086 1.79086 0 4 0H44C46.2091 0 48 1.79086 48 4V28C48 30.2091 46.2091 32 44 32H4C1.79086 32 0 30.2091 0 28V4Z" fill="white"/>
<path d="M41.31 10.0347H38.7953C38.0351 10.0347 37.4503 10.2686 37.0994 11.0289L32.3041 21.9645H35.6959C35.6959 21.9645 36.2807 20.5025 36.3977 20.1517C36.7486 20.1517 40.0819 20.1517 40.5497 20.1517C40.6667 20.561 40.9591 21.906 40.9591 21.906H44L41.31 10.0347ZM37.3333 17.6955C37.6257 16.9938 38.6199 14.3622 38.6199 14.3622C38.6199 14.4207 38.9123 13.6604 39.0293 13.2511L39.2632 14.3037C39.2632 14.3037 39.9064 17.1692 40.0234 17.754H37.3333V17.6955Z" fill="#3362AB"/>
<path d="M32.5381 18.0464C32.5381 20.5025 30.3158 22.1399 26.8655 22.1399C25.4035 22.1399 24 21.8475 23.2398 21.4966L23.7076 18.8066L24.117 18.982C25.1696 19.4499 25.8714 19.6253 27.1579 19.6253C28.0936 19.6253 29.0878 19.2744 29.0878 18.4557C29.0878 17.9294 28.6784 17.5785 27.3919 16.9937C26.1638 16.4089 24.5264 15.4733 24.5264 13.7774C24.5264 11.4382 26.8071 9.85922 30.0234 9.85922C31.2515 9.85922 32.3041 10.0931 32.9474 10.3855L32.4796 12.9586L32.2457 12.7247C31.6609 12.4908 30.9006 12.2569 29.7895 12.2569C28.5614 12.3154 27.9766 12.8417 27.9766 13.3095C27.9766 13.8358 28.6784 14.2452 29.7895 14.7715C31.6609 15.6487 32.5381 16.6428 32.5381 18.0464Z" fill="#3362AB"/>
<path d="M4.00002 10.1517L4.0585 9.91776H9.08774C9.7895 9.91776 10.3158 10.1517 10.4913 10.9119L11.6024 16.1751C10.4913 13.368 7.91815 11.0873 4.00002 10.1517Z" fill="#F9B50B"/>
<path d="M18.6784 10.0349L13.5906 21.9062H10.1403L7.21637 11.9647C9.32163 13.3097 11.076 15.415 11.7193 16.877L12.0702 18.1051L15.2281 9.97641H18.6784V10.0349Z" fill="#3362AB"/>
<path d="M20.0234 9.97641H23.2397L21.193 21.9062H17.9766L20.0234 9.97641Z" fill="#3362AB"/>
</g>
<defs>
<clipPath id="clip0_1382_2552">
<rect width="48" height="32" fill="white"/>
</clipPath>
</defs>
</svg>
